<svg xmlns="http://www.w3.org/2000/svg" height="24" viewBox="0 96 960 960" width="24">
    <path
        d="M360 816h240q17 0 28.5-11.5T640 776q0-17-11.5-28.5T600 736H360q-17 0-28.5 11.5T320 776q0 17 11.5 28.5T360 816Zm0-160h240q17 0 28.5-11.5T640 616q0-17-11.5-28.5T600 576H360q-17 0-28.5 11.5T320 616q0 17 11.5 28.5T360 656ZM240 976q-33 0-56.5-23.5T160 896V256q0-33 23.5-56.5T240 176h287q16 0 30.5 6t25.5 17l194 194q11 11 17 25.5t6 30.5v447q0 33-23.5 56.5T720 976H240Zm280-560V256H240v640h480V456H560q-17 0-28.5-11.5T520 416ZM240 256v200-200 640-640Z" />
</svg>