<svg xmlns="http://www.w3.org/2000/svg" height="24" viewBox="0 96 960 960" width="24">
    <path
        d="M280 936q-33 0-56.5-23.5T200 856V336q-17 0-28.5-11.5T160 296q0-17 11.5-28.5T200 256h160q0-17 11.5-28.5T400 216h160q17 0 28.5 11.5T600 256h160q17 0 28.5 11.5T800 296q0 17-11.5 28.5T760 336v520q0 33-23.5 56.5T680 936H280Zm0-600v520h400V336H280Zm80 400q0 17 11.5 28.5T400 776q17 0 28.5-11.5T440 736V456q0-17-11.5-28.5T400 416q-17 0-28.5 11.5T360 456v280Zm160 0q0 17 11.5 28.5T560 776q17 0 28.5-11.5T600 736V456q0-17-11.5-28.5T560 416q-17 0-28.5 11.5T520 456v280ZM280 336v520-520Z" />
</svg>