<svg
    xmlns="http://www.w3.org/2000/svg"
    viewBox="0 0 862 574"
    id="vector">
    <path
        id="path"
        d="M 105.422 505.622 C 105.422 524.502 94.198 531.095 80.353 531.095 C 80.031 531.095 79.71 531.092 79.391 531.083 C 78.75 531.069 78.114 531.041 77.487 530.996 C 64.991 530.113 55.282 523.18 55.282 505.622 C 55.282 487.453 78.497 464.525 80.248 462.823 L 80.251 462.821 C 80.317 462.755 80.352 462.722 80.352 462.722 C 80.352 462.722 105.422 486.74 105.422 505.622 Z"
        fill="#3f3d56"/>
    <path
        id="path_1"
        d="M 79.438 528.207 L 88.608 515.395 L 79.415 529.613 L 79.391 531.084 C 78.75 531.07 78.114 531.042 77.487 530.997 L 78.475 512.108 L 78.468 511.962 L 78.485 511.934 L 78.577 510.15 L 69.362 495.895 L 78.605 508.811 L 78.628 509.189 L 79.375 494.917 L 71.486 480.189 L 79.471 492.41 L 80.248 462.823 L 80.251 462.722 L 80.251 462.821 L 80.122 486.153 L 87.975 476.903 L 80.09 488.162 L 79.883 500.941 L 87.217 488.678 L 79.852 502.823 L 79.737 509.927 L 90.383 492.857 L 79.696 512.405 Z"
        fill="#f2f2f2"/>
    <path
        id="path_2"
        d="M 423.935 396.448 C 417.237 372.135 380.046 354.215 351.027 349.59 L 351.027 337.911 Q 351.832 337.611 352.627 337.294 C 352.475 334.96 352.006 332.658 351.233 330.45 C 363.628 325.411 374.334 316.944 382.092 306.043 C 393.015 294.612 400.276 280.174 402.94 264.589 C 405.604 249.005 403.551 232.974 397.045 218.564 C 390.54 204.154 379.874 192.012 366.423 183.703 C 369.181 181.964 371.324 179.402 372.549 176.381 C 373.774 173.359 374.019 170.028 373.25 166.86 C 372.481 163.691 370.736 160.843 368.262 158.719 C 365.789 156.595 362.709 155.301 359.461 155.02 C 362.113 148.759 362.588 141.785 360.81 135.221 C 359.033 128.658 355.102 122.877 349.653 118.811 C 344.203 114.744 337.543 112.621 330.745 112.785 C 323.947 112.949 317.397 115.389 312.149 119.714 C 318.348 116.416 325.503 115.366 332.388 116.746 C 339.273 118.125 345.471 121.849 349.921 127.281 C 354.371 132.712 356.804 139.522 356.802 146.544 C 356.802 146.811 356.786 147.074 356.779 147.339 C 356.566 140.259 353.883 133.471 349.198 128.158 C 344.513 122.844 338.115 119.333 331.117 118.235 C 324.119 117.137 316.952 118.52 310.865 122.143 C 304.778 125.766 300.146 131.406 297.774 138.081 C 295.403 144.756 295.438 152.055 297.875 158.706 C 294.77 159.377 291.952 161.006 289.82 163.362 C 287.688 165.717 286.348 168.683 285.989 171.84 C 285.63 174.997 286.27 178.188 287.818 180.962 C 273.106 188.692 261.188 200.852 253.754 215.716 C 246.32 230.579 243.739 247.409 246.378 263.818 C 249.017 280.226 256.745 295.398 268.465 307.181 C 275.846 317.125 285.719 324.949 297.087 329.862 L 297.087 349.329 C 267.761 353.519 229.141 371.771 222.393 396.684 C 216.512 418.394 210.235 442.236 207.112 456.234 C 233.883 475.045 290.057 486.09 325.261 486.09 C 358.709 486.09 413.379 476.121 439.362 458.992 C 436.547 443.611 430.072 418.722 423.935 396.448 Z M 370.308 171.869 C 370.308 172.146 370.297 172.42 370.282 172.693 C 370.086 169.261 368.73 165.994 366.439 163.431 C 364.147 160.869 361.052 159.158 357.663 158.58 Q 358.104 157.833 358.505 157.059 C 361.857 157.827 364.852 159.711 366.995 162.401 C 369.139 165.09 370.307 168.43 370.308 171.869 Z"
        fill="none"/>
    <path
        id="path_3"
        d="M 325.203 480.773 C 357.698 480.773 410.811 471.088 436.054 454.447 C 433.32 439.504 427.029 415.324 421.067 393.685 C 413.475 366.126 365.556 347.02 336.97 347.02 L 309.424 347.021 C 280.75 347.021 232.762 366.237 225.265 393.914 C 219.552 415.005 213.454 438.168 210.419 451.768 C 236.427 470.042 291.001 480.773 325.203 480.773 Z"
        fill="#4285f4"/>
    <path
        id="path_4"
        d="M 324.68 252.595 M 247.588 252.595 C 247.536 236.284 252.663 220.37 262.225 207.156 C 271.787 193.942 285.301 184.097 300.811 179.047 C 316.32 173.997 333.04 173.997 348.549 179.047 C 364.059 184.097 377.573 193.942 387.135 207.156 C 396.697 220.37 401.824 236.284 401.772 252.595 C 401.772 273.033 393.644 292.655 379.192 307.107 C 364.74 321.559 345.118 329.687 324.68 329.687 C 304.242 329.687 284.62 321.559 270.168 307.107 C 255.716 292.655 247.588 273.033 247.588 252.595"
        fill="#f55f44"/>
    <path
        id="path_5"
        d="M 303.866 306.181 L 344.201 306.181 C 345.26 306.181 346.301 306.46 347.219 306.99 C 348.136 307.519 348.898 308.281 349.427 309.199 C 349.957 310.116 350.236 311.157 350.236 312.216 L 350.236 353.458 C 350.236 360.028 347.623 366.335 342.978 370.98 C 338.333 375.625 332.026 378.238 325.456 378.238 L 322.611 378.238 C 316.041 378.238 309.734 375.625 305.089 370.98 C 300.444 366.335 297.831 360.028 297.831 353.458 L 297.831 312.216 C 297.831 310.616 298.467 309.08 299.599 307.949 C 300.73 306.817 302.266 306.181 303.866 306.181 Z"
        fill="#fda57d"/>
    <path
        id="path_6"
        d="M 326.454 341.097 C 335.133 341.102 343.734 339.445 351.79 336.215 C 351.377 329.854 348.558 323.883 343.908 319.524 C 339.259 315.164 333.119 312.734 326.745 312.731 L 324.597 312.732 C 318.329 312.733 312.282 315.081 307.655 319.31 C 303.028 323.538 300.147 329.349 299.583 335.592 C 308.073 339.234 317.216 341.107 326.454 341.097 Z"
        fill="#000000"
        fill-opacity="0.05"
        stroke-opacity="0.05"/>
    <path
        id="path_7"
        d="M 324.817 266.344 M 256.614 266.344 C 256.614 248.262 263.805 230.903 276.59 218.117 C 289.376 205.332 306.735 198.141 324.817 198.141 C 342.899 198.141 360.258 205.332 373.044 218.117 C 385.829 230.903 393.02 248.262 393.02 266.344 C 393.02 284.426 385.829 301.785 373.044 314.571 C 360.258 327.356 342.899 334.547 324.817 334.547 C 306.735 334.547 289.376 327.356 276.59 314.571 C 263.805 301.785 256.614 284.426 256.614 266.344"
        fill="#fda57d"/>
    <path
        id="path_8"
        d="M 301.717 177.143 M 286.955 177.143 C 286.945 174.02 287.927 170.972 289.758 168.442 C 291.589 165.911 294.177 164.026 297.147 163.059 C 300.117 162.092 303.318 162.092 306.288 163.059 C 309.258 164.026 311.846 165.911 313.677 168.442 C 315.508 170.972 316.49 174.02 316.48 177.143 C 316.49 180.266 315.508 183.314 313.677 185.844 C 311.846 188.375 309.258 190.26 306.288 191.227 C 303.318 192.194 300.117 192.194 297.147 191.227 C 294.177 190.26 291.589 188.375 289.758 185.844 C 287.927 183.314 286.945 180.266 286.955 177.143"
        fill="#f55f44"/>
    <path
        id="path_9"
        d="M 354.205 177.143 M 339.443 177.143 C 339.433 174.02 340.415 170.972 342.246 168.442 C 344.077 165.911 346.665 164.026 349.635 163.059 C 352.605 162.092 355.806 162.092 358.776 163.059 C 361.746 164.026 364.334 165.911 366.165 168.442 C 367.996 170.972 368.978 174.02 368.968 177.143 C 368.978 180.266 367.996 183.314 366.165 185.844 C 364.334 188.375 361.746 190.26 358.776 191.227 C 355.806 192.194 352.605 192.194 349.635 191.227 C 346.665 190.26 344.077 188.375 342.246 185.844 C 340.415 183.314 339.433 180.266 339.443 177.143"
        fill="#f55f44"/>
    <path
        id="path_10"
        d="M 326.32 152.539 M 296.795 152.539 C 296.759 146.282 298.712 140.172 302.373 135.096 C 306.033 130.021 311.214 126.238 317.163 124.298 C 323.112 122.357 329.527 122.357 335.476 124.298 C 341.425 126.238 346.606 130.021 350.266 135.096 C 353.927 140.172 355.88 146.282 355.844 152.539 C 355.88 158.796 353.927 164.906 350.266 169.982 C 346.606 175.057 341.425 178.84 335.476 180.78 C 329.527 182.721 323.112 182.721 317.163 180.78 C 311.214 178.84 306.033 175.057 302.373 169.982 C 298.712 164.906 296.759 158.796 296.795 152.539"
        fill="#f55f44"/>
    <path
        id="path_11"
        d="M 357.485 159.1 C 354.55 159.096 351.68 159.971 349.247 161.612 C 352.633 160.402 356.347 160.47 359.687 161.803 C 363.026 163.137 365.765 165.647 367.386 168.857 C 369.006 172.067 369.399 175.761 368.489 179.24 C 367.579 182.719 365.428 185.748 362.443 187.753 C 365.719 186.586 368.479 184.298 370.233 181.296 C 371.987 178.293 372.624 174.765 372.031 171.338 C 371.438 167.912 369.653 164.803 366.992 162.564 C 364.331 160.325 360.962 159.098 357.485 159.1 Z"
        fill="#f55f44"/>
    <path
        id="path_12"
        d="M 331.241 118.094 C 324.389 118.084 317.745 120.469 312.464 124.834 C 318.924 121.399 326.436 120.484 333.531 122.27 C 340.626 124.056 346.81 128.417 350.874 134.501 C 354.938 140.585 356.599 147.967 355.532 155.205 C 354.465 162.444 350.744 169.033 345.097 173.685 C 350.913 170.594 355.531 165.644 358.211 159.628 C 360.891 153.611 361.482 146.867 359.889 140.476 C 358.296 134.085 354.609 128.408 349.419 124.353 C 344.228 120.298 337.827 118.094 331.241 118.095 Z"
        fill="#f55f44"/>
    <path
        id="path_13"
        d="M 275.472 205.027 C 275.472 205.027 283.673 259.156 387.009 229.631 L 336.162 185.344 Z"
        fill="#f55f44"/>
    <path
        id="path_14"
        d="M 59.525 515.012 L 101.985 515.012 C 104.494 515.012 106.96 515.673 109.133 516.927 C 111.307 518.182 113.112 519.987 114.367 522.16 C 115.621 524.334 116.282 526.8 116.282 529.309 L 116.282 530.951 C 116.282 533.46 115.621 535.926 114.367 538.1 C 113.112 540.273 111.307 542.078 109.133 543.333 C 106.96 544.587 104.494 545.248 101.985 545.248 L 59.525 545.248 C 57.015 545.248 54.549 544.588 52.376 543.333 C 50.203 542.078 48.397 540.273 47.143 538.1 C 45.888 535.926 45.227 533.461 45.227 530.951 L 45.227 529.309 C 45.227 526.799 45.888 524.334 47.143 522.16 C 48.397 519.987 50.203 518.182 52.376 516.927 C 54.549 515.672 57.015 515.012 59.525 515.012 Z"
        fill="#4285f4"/>
    <path
        id="path_15"
        d="M 595.133 495.697 L 595.133 484.802 L 540.658 484.802 L 540.658 535.192 C 540.658 538.008 541.778 540.712 543.769 542.704 C 545.761 544.695 548.465 545.815 551.281 545.815 L 584.511 545.815 C 587.327 545.815 590.031 544.695 592.023 542.704 C 594.014 540.712 595.134 538.008 595.134 535.192 L 595.133 524.025 C 598.14 524.05 601.078 523.117 603.52 521.362 C 605.961 519.607 607.781 517.119 608.715 514.261 C 609.649 511.403 609.649 508.32 608.715 505.462 C 607.781 502.604 605.961 500.116 603.52 498.361 C 601.078 496.606 598.14 495.673 595.133 495.698 Z M 595.133 518.577 L 595.133 501.145 C 597.444 501.145 599.662 502.064 601.296 503.698 C 602.93 505.332 603.849 507.55 603.849 509.861 C 603.849 512.172 602.93 514.39 601.296 516.024 C 599.662 517.658 597.444 518.577 595.133 518.577 Z"
        fill="none"
        fill-opacity="0.7"
        stroke-opacity="0.7"/>
    <path
        id="path_16"
        d="M 593.381 497.403 C 589.953 497.403 586.661 498.766 584.237 501.191 C 581.812 503.615 580.449 506.907 580.449 510.335 C 580.449 513.763 581.812 517.055 584.237 519.479 C 586.661 521.904 589.953 523.267 593.381 523.267 C 596.809 523.267 600.101 521.904 602.525 519.479 C 604.95 517.055 606.313 513.763 606.313 510.335 C 606.313 506.907 604.95 503.615 602.525 501.191 C 600.101 498.766 596.809 497.403 593.381 497.403 Z M 593.381 518.293 C 591.271 518.293 589.246 517.454 587.754 515.962 C 586.262 514.47 585.423 512.445 585.423 510.335 C 585.423 508.225 586.262 506.2 587.754 504.708 C 589.246 503.216 591.271 502.377 593.381 502.377 C 595.491 502.377 597.516 503.216 599.008 504.708 C 600.5 506.2 601.339 508.225 601.339 510.335 C 601.339 512.445 600.5 514.47 599.008 515.962 C 597.516 517.454 595.491 518.293 593.381 518.293 Z"
        fill="#4285f4"/>
    <path
        id="path_17"
        d="M 593.381 497.403 C 589.953 497.403 586.661 498.766 584.237 501.191 C 581.812 503.615 580.449 506.907 580.449 510.335 C 580.449 513.763 581.812 517.055 584.237 519.479 C 586.661 521.904 589.953 523.267 593.381 523.267 C 596.809 523.267 600.101 521.904 602.525 519.479 C 604.95 517.055 606.313 513.763 606.313 510.335 C 606.313 506.907 604.95 503.615 602.525 501.191 C 600.101 498.766 596.809 497.403 593.381 497.403 Z M 593.381 518.293 C 591.271 518.293 589.246 517.454 587.754 515.962 C 586.262 514.47 585.423 512.445 585.423 510.335 C 585.423 508.225 586.262 506.2 587.754 504.708 C 589.246 503.216 591.271 502.377 593.381 502.377 C 595.491 502.377 597.516 503.216 599.008 504.708 C 600.5 506.2 601.339 508.225 601.339 510.335 C 601.339 512.445 600.5 514.47 599.008 515.962 C 597.516 517.454 595.491 518.293 593.381 518.293 Z"
        fill="#000000"
        fill-opacity="0.1"
        stroke-opacity="0.1"/>
    <path
        id="path_18"
        d="M 543.642 487.455 L 593.381 487.455 L 593.381 533.412 C 593.381 535.997 592.353 538.479 590.525 540.306 C 588.698 542.134 586.216 543.162 583.631 543.162 L 553.392 543.162 C 550.807 543.162 548.325 542.134 546.498 540.306 C 544.67 538.479 543.642 535.997 543.642 533.412 L 543.642 487.455 Z"
        fill="#4285f4"/>
    <path
        id="path_19"
        d="M 0 543.162 L 645.606 543.162 L 645.606 565.047 L 0 565.047 Z"
        fill="#e0e0e0"/>
    <path
        id="path_20"
        d="M 200.025 385.061 L 445.581 385.061 C 449.425 385.061 453.116 386.59 455.834 389.308 C 458.552 392.026 460.081 395.717 460.081 399.561 L 460.081 528.662 C 460.081 532.506 458.552 536.197 455.834 538.915 C 453.116 541.633 449.425 543.162 445.581 543.162 L 200.025 543.162 C 196.181 543.162 192.49 541.633 189.772 538.915 C 187.054 536.197 185.525 532.506 185.525 528.662 L 185.525 399.561 C 185.525 395.717 187.054 392.026 189.772 389.308 C 192.49 386.59 196.181 385.061 200.025 385.061 Z"
        fill="none"
        fill-opacity="0.7"
        stroke-opacity="0.7"/>
    <path
        id="path_21"
        d="M 217.334 387.978 L 428.273 387.978 C 432.983 387.978 437.611 389.218 441.69 391.573 C 445.77 393.928 449.158 397.316 451.513 401.396 C 453.868 405.475 455.108 410.103 455.108 414.813 L 455.108 516.327 C 455.108 521.037 453.868 525.665 451.513 529.745 C 449.158 533.824 445.77 537.212 441.69 539.567 C 437.611 541.922 432.983 543.162 428.273 543.162 L 217.334 543.162 C 210.22 543.162 203.389 540.333 198.359 535.302 C 193.328 530.272 190.499 523.441 190.499 516.327 L 190.499 414.813 C 190.499 407.699 193.328 400.868 198.359 395.838 C 203.389 390.807 210.22 387.978 217.334 387.978 Z"
        fill="#535461"/>
    <path
        id="path_22"
        d="M 322.803 465.57 M 313.85 465.57 C 313.85 463.196 314.794 460.918 316.472 459.239 C 318.151 457.561 320.429 456.617 322.803 456.617 C 325.177 456.617 327.455 457.561 329.134 459.239 C 330.812 460.918 331.756 463.196 331.756 465.57 C 331.756 467.944 330.812 470.222 329.134 471.901 C 327.455 473.579 325.177 474.523 322.803 474.523 C 320.429 474.523 318.151 473.579 316.472 471.901 C 314.794 470.222 313.85 467.944 313.85 465.57"
        fill="#ffffff"/>
    <path
        id="path_23"
        d="M 27.356 565.047 L 618.25 565.047 L 618.25 574 L 27.356 574 Z"
        fill="#e0e0e0"/>
    <path
        id="path_24"
        d="M 27.356 565.047 L 618.25 565.047 L 618.25 568.031 L 27.356 568.031 Z"
        fill="#000000"
        fill-opacity="0.1"
        stroke-opacity="0.1"/>
    <path
        id="path_25"
        d="M 584.428 487.455 L 584.428 533.463 C 584.428 536.034 583.405 538.503 581.587 540.321 C 579.769 542.139 577.3 543.162 574.729 543.162 L 579.703 543.162 C 582.274 543.162 584.743 542.139 586.561 540.321 C 588.379 538.503 589.402 536.034 589.402 533.463 L 589.402 487.455 Z"
        fill="#000000"
        fill-opacity="0.1"
        stroke-opacity="0.1"/>
    <path
        id="path_26"
        d="M 553.457 450.373 C 553.031 450.386 552.614 450.493 552.234 450.686 C 551.855 450.879 551.522 451.152 551.26 451.488 C 550.608 452.671 551.79 454.004 552.869 454.817 C 554.862 456.318 556.963 457.793 558.318 459.889 C 559.673 461.985 560.099 464.909 558.617 466.918 C 556.683 469.54 552.069 470.105 551.623 473.332 C 551.336 475.404 553.128 477.172 554.943 478.212 C 559.423 480.778 565.199 481.463 568.444 485.479 C 569.786 482.718 572.789 481.123 575.782 480.441 C 578.775 479.759 581.885 479.81 584.92 479.348 C 585.416 479.339 585.902 479.213 586.34 478.98 C 586.778 478.748 587.155 478.416 587.441 478.011 C 588.289 476.289 585.872 474.225 586.706 472.496 C 587.341 471.181 589.207 471.283 590.569 470.756 C 592.787 469.898 593.702 467.043 593.073 464.749 C 592.444 462.455 590.665 460.663 588.795 459.193 C 583.755 455.232 577.694 452.903 571.564 451.228 C 568.713 450.449 565.366 449.227 562.405 449.109 C 559.547 448.996 556.287 449.889 553.457 450.373 Z"
        fill="#eeeeee"/>
    <path
        id="path_27"
        d="M 428.368 0 L 862.844 0 L 862.844 297.668 L 428.368 297.668 Z"
        fill="#535461"
        fill-opacity="0.1"
        stroke-opacity="0.1"/>
    <path
        id="path_28"
        d="M 472.483 29.316 L 565.759 29.316 C 566.952 29.316 568.097 29.79 568.941 30.634 C 569.785 31.478 570.259 32.623 570.259 33.816 L 570.259 119.178 C 570.259 120.371 569.785 121.516 568.941 122.36 C 568.097 123.204 566.952 123.678 565.759 123.678 L 472.483 123.678 C 471.29 123.678 470.145 123.204 469.301 122.36 C 468.457 121.516 467.983 120.371 467.983 119.178 L 467.983 33.816 C 467.983 32.623 468.457 31.478 469.301 30.634 C 470.145 29.79 471.29 29.316 472.483 29.316 Z"
        fill="none"
        fill-opacity="0.5"
        stroke-opacity="0.5"/>
    <path
        id="path_29"
        d="M 473.732 30.047 L 564.648 30.047 C 565.841 30.047 566.986 30.521 567.83 31.365 C 568.674 32.209 569.148 33.354 569.148 34.547 L 569.148 117.621 C 569.148 118.814 568.674 119.959 567.83 120.803 C 566.986 121.647 565.841 122.121 564.648 122.121 L 473.732 122.121 C 472.539 122.121 471.394 121.647 470.55 120.803 C 469.706 119.959 469.232 118.814 469.232 117.621 L 469.232 34.547 C 469.232 33.354 469.706 32.209 470.55 31.365 C 471.394 30.521 472.539 30.047 473.732 30.047 Z"
        fill="#f5f5f5"/>
    <path
        id="path_30"
        d="M 481.432 45.213 L 489.282 45.213 C 490.475 45.213 491.62 45.687 492.464 46.531 C 493.308 47.375 493.782 48.52 493.782 49.713 L 493.782 55.878 C 493.782 57.071 493.308 58.216 492.464 59.06 C 491.62 59.904 490.475 60.378 489.282 60.378 L 481.432 60.378 C 480.239 60.378 479.094 59.904 478.25 59.06 C 477.406 58.216 476.932 57.071 476.932 55.878 L 476.932 49.713 C 476.932 48.52 477.406 47.375 478.25 46.531 C 479.094 45.687 480.239 45.213 481.432 45.213 Z"
        fill="#4285f4"/>
    <path
        id="path_31"
        d="M 499.634 45.213 L 565.026 45.213 C 565.237 45.213 565.44 45.297 565.59 45.446 C 565.739 45.596 565.823 45.799 565.823 46.01 L 565.823 46.101 C 565.823 46.312 565.739 46.515 565.59 46.665 C 565.44 46.814 565.237 46.898 565.026 46.898 L 499.634 46.898 C 499.423 46.898 499.22 46.814 499.071 46.664 C 498.922 46.515 498.838 46.312 498.838 46.101 L 498.838 46.01 C 498.838 45.799 498.922 45.596 499.071 45.447 C 499.22 45.297 499.423 45.213 499.634 45.213 Z"
        fill="#e0e0e0"/>
    <path
        id="path_32"
        d="M 499.634 50.268 L 565.026 50.268 C 565.237 50.268 565.44 50.352 565.59 50.501 C 565.739 50.651 565.823 50.854 565.823 51.065 L 565.823 51.156 C 565.823 51.367 565.739 51.57 565.59 51.72 C 565.44 51.869 565.237 51.953 565.026 51.953 L 499.634 51.953 C 499.423 51.953 499.22 51.869 499.071 51.719 C 498.922 51.57 498.838 51.367 498.838 51.156 L 498.838 51.065 C 498.838 50.854 498.922 50.651 499.071 50.502 C 499.22 50.352 499.423 50.268 499.634 50.268 Z"
        fill="#e0e0e0"/>
    <path
        id="path_33"
        d="M 476.044 68.616 L 565.026 68.616 C 565.237 68.616 565.44 68.7 565.59 68.849 C 565.739 68.999 565.823 69.202 565.823 69.413 L 565.823 69.504 C 565.823 69.715 565.739 69.918 565.59 70.068 C 565.44 70.217 565.237 70.301 565.026 70.301 L 476.044 70.301 C 475.833 70.301 475.63 70.217 475.48 70.068 C 475.331 69.918 475.247 69.715 475.247 69.504 L 475.247 69.413 C 475.247 69.202 475.331 68.999 475.48 68.849 C 475.63 68.7 475.833 68.616 476.044 68.616 Z"
        fill="#e0e0e0"/>
    <path
        id="path_34"
        d="M 476.044 73.671 L 565.026 73.671 C 565.237 73.671 565.44 73.755 565.59 73.904 C 565.739 74.054 565.823 74.257 565.823 74.468 L 565.823 74.559 C 565.823 74.77 565.739 74.973 565.59 75.123 C 565.44 75.272 565.237 75.356 565.026 75.356 L 476.044 75.356 C 475.833 75.356 475.63 75.272 475.48 75.123 C 475.331 74.973 475.247 74.77 475.247 74.559 L 475.247 74.468 C 475.247 74.257 475.331 74.054 475.48 73.904 C 475.63 73.755 475.833 73.671 476.044 73.671 Z"
        fill="#e0e0e0"/>
    <path
        id="path_35"
        d="M 476.044 80.411 L 565.026 80.411 C 565.237 80.411 565.44 80.495 565.59 80.644 C 565.739 80.794 565.823 80.997 565.823 81.208 L 565.823 81.3 C 565.823 81.511 565.739 81.714 565.589 81.863 C 565.44 82.012 565.237 82.096 565.026 82.096 L 476.044 82.096 C 475.833 82.096 475.63 82.012 475.481 81.863 C 475.331 81.714 475.247 81.511 475.247 81.3 L 475.247 81.208 C 475.247 80.997 475.331 80.794 475.48 80.644 C 475.63 80.495 475.833 80.411 476.044 80.411 Z"
        fill="#e0e0e0"/>
    <path
        id="path_36"
        d="M 476.044 85.467 L 526.686 85.467 C 526.897 85.467 527.1 85.551 527.249 85.7 C 527.399 85.849 527.483 86.052 527.483 86.263 L 527.483 86.355 C 527.483 86.566 527.399 86.769 527.25 86.919 C 527.1 87.068 526.897 87.152 526.686 87.152 L 476.044 87.152 C 475.833 87.152 475.63 87.068 475.48 86.919 C 475.331 86.769 475.247 86.566 475.247 86.355 L 475.247 86.263 C 475.247 86.052 475.331 85.849 475.481 85.7 C 475.63 85.551 475.833 85.467 476.044 85.467 Z"
        fill="#e0e0e0"/>
    <path
        id="path_37"
        d="M 476.044 92.19 L 565.026 92.19 C 565.237 92.19 565.44 92.274 565.59 92.423 C 565.739 92.573 565.823 92.776 565.823 92.987 L 565.823 93.079 C 565.823 93.29 565.739 93.493 565.589 93.642 C 565.44 93.791 565.237 93.875 565.026 93.875 L 476.044 93.875 C 475.833 93.875 475.63 93.791 475.481 93.642 C 475.331 93.493 475.247 93.29 475.247 93.079 L 475.247 92.987 C 475.247 92.776 475.331 92.573 475.48 92.423 C 475.63 92.274 475.833 92.19 476.044 92.19 Z"
        fill="#e0e0e0"/>
    <path
        id="path_38"
        d="M 476.044 97.245 L 565.026 97.245 C 565.237 97.245 565.44 97.329 565.59 97.478 C 565.739 97.628 565.823 97.831 565.823 98.042 L 565.823 98.134 C 565.823 98.345 565.739 98.548 565.589 98.697 C 565.44 98.846 565.237 98.93 565.026 98.93 L 476.044 98.93 C 475.833 98.93 475.63 98.846 475.481 98.697 C 475.331 98.548 475.247 98.345 475.247 98.134 L 475.247 98.042 C 475.247 97.831 475.331 97.628 475.48 97.478 C 475.63 97.329 475.833 97.245 476.044 97.245 Z"
        fill="#e0e0e0"/>
    <path
        id="path_39"
        d="M 476.044 103.986 L 565.026 103.986 C 565.237 103.986 565.44 104.07 565.589 104.219 C 565.739 104.368 565.823 104.571 565.823 104.782 L 565.823 104.874 C 565.823 105.014 565.786 105.151 565.716 105.272 C 565.646 105.394 565.546 105.494 565.424 105.564 C 565.303 105.634 565.166 105.671 565.026 105.671 L 476.044 105.671 C 475.904 105.671 475.767 105.634 475.646 105.564 C 475.524 105.494 475.424 105.394 475.354 105.272 C 475.284 105.151 475.247 105.014 475.247 104.874 L 475.247 104.782 C 475.247 104.571 475.331 104.368 475.481 104.219 C 475.63 104.07 475.833 103.986 476.044 103.986 Z"
        fill="#e0e0e0"/>
    <path
        id="path_40"
        d="M 476.044 109.041 L 526.686 109.041 C 526.897 109.041 527.1 109.125 527.25 109.274 C 527.399 109.424 527.483 109.627 527.483 109.838 L 527.483 109.929 C 527.483 110.14 527.399 110.343 527.25 110.493 C 527.1 110.642 526.897 110.726 526.686 110.726 L 476.044 110.726 C 475.833 110.726 475.63 110.642 475.48 110.493 C 475.331 110.343 475.247 110.14 475.247 109.929 L 475.247 109.838 C 475.247 109.627 475.331 109.424 475.48 109.274 C 475.63 109.125 475.833 109.041 476.044 109.041 Z"
        fill="#e0e0e0"/>
    <path
        id="path_41"
        d="M 487.919 51.121 L 581.195 51.121 C 582.388 51.121 583.533 51.595 584.377 52.439 C 585.221 53.283 585.695 54.428 585.695 55.621 L 585.695 140.984 C 585.695 142.177 585.221 143.322 584.377 144.166 C 583.533 145.01 582.388 145.484 581.195 145.484 L 487.919 145.484 C 486.726 145.484 485.581 145.01 484.737 144.166 C 483.893 143.322 483.419 142.177 483.419 140.984 L 483.419 55.621 C 483.419 54.428 483.893 53.283 484.737 52.439 C 485.581 51.595 486.726 51.121 487.919 51.121 Z"
        fill="none"
        fill-opacity="0.5"
        stroke-opacity="0.5"/>
    <path
        id="path_42"
        d="M 489.167 51.853 L 580.084 51.853 C 581.277 51.853 582.422 52.327 583.266 53.171 C 584.11 54.015 584.584 55.16 584.584 56.353 L 584.584 139.427 C 584.584 140.62 584.11 141.765 583.266 142.609 C 582.422 143.453 581.277 143.927 580.084 143.927 L 489.167 143.927 C 487.974 143.927 486.829 143.453 485.985 142.609 C 485.141 141.765 484.667 140.62 484.667 139.427 L 484.667 56.353 C 484.667 55.16 485.141 54.015 485.985 53.171 C 486.829 52.327 487.974 51.853 489.167 51.853 Z"
        fill="#ffffff"/>
    <path
        id="path_43"
        d="M 496.867 67.018 L 504.718 67.018 C 505.911 67.018 507.056 67.492 507.9 68.336 C 508.744 69.18 509.218 70.325 509.218 71.518 L 509.218 77.684 C 509.218 78.877 508.744 80.022 507.9 80.866 C 507.056 81.71 505.911 82.184 504.718 82.184 L 496.867 82.184 C 495.674 82.184 494.529 81.71 493.685 80.866 C 492.841 80.022 492.367 78.877 492.367 77.684 L 492.367 71.518 C 492.367 70.325 492.841 69.18 493.685 68.336 C 494.529 67.492 495.674 67.018 496.867 67.018 Z"
        fill="#4285f4"/>
    <path
        id="path_44"
        d="M 515.07 67.018 L 580.462 67.018 C 580.673 67.018 580.876 67.102 581.025 67.252 C 581.174 67.401 581.258 67.604 581.258 67.815 L 581.258 67.907 C 581.258 68.118 581.174 68.32 581.025 68.47 C 580.875 68.619 580.673 68.703 580.462 68.703 L 515.07 68.703 C 514.859 68.703 514.656 68.619 514.507 68.47 C 514.357 68.321 514.273 68.118 514.273 67.907 L 514.273 67.815 C 514.273 67.675 514.31 67.538 514.38 67.416 C 514.45 67.295 514.55 67.195 514.672 67.125 C 514.793 67.055 514.93 67.018 515.07 67.018 Z"
        fill="#e0e0e0"/>
    <path
        id="path_45"
        d="M 515.07 72.073 L 580.462 72.073 C 580.673 72.073 580.876 72.157 581.025 72.307 C 581.174 72.456 581.258 72.659 581.258 72.87 L 581.258 72.962 C 581.258 73.173 581.174 73.376 581.025 73.525 C 580.876 73.675 580.673 73.759 580.462 73.759 L 515.07 73.759 C 514.93 73.759 514.793 73.722 514.672 73.652 C 514.55 73.582 514.45 73.482 514.38 73.361 C 514.31 73.239 514.273 73.102 514.273 72.962 L 514.273 72.87 C 514.273 72.73 514.31 72.593 514.38 72.472 C 514.45 72.35 514.55 72.25 514.672 72.18 C 514.793 72.11 514.93 72.073 515.07 72.073 Z"
        fill="#e0e0e0"/>
    <path
        id="path_46"
        d="M 491.479 90.422 L 580.462 90.422 C 580.673 90.422 580.875 90.506 581.025 90.655 C 581.174 90.805 581.258 91.007 581.258 91.218 L 581.258 91.31 C 581.258 91.521 581.174 91.724 581.025 91.873 C 580.876 92.023 580.673 92.107 580.462 92.107 L 491.479 92.107 C 491.268 92.107 491.065 92.023 490.915 91.874 C 490.766 91.724 490.682 91.521 490.682 91.31 L 490.682 91.218 C 490.682 91.007 490.766 90.804 490.916 90.655 C 491.065 90.506 491.268 90.422 491.479 90.422 Z"
        fill="#e0e0e0"/>
    <path
        id="path_47"
        d="M 491.479 95.477 L 580.462 95.477 C 580.673 95.477 580.876 95.561 581.025 95.711 C 581.174 95.86 581.258 96.063 581.258 96.274 L 581.258 96.365 C 581.258 96.576 581.174 96.779 581.025 96.928 C 580.876 97.078 580.673 97.162 580.462 97.162 L 491.479 97.162 C 491.268 97.162 491.065 97.078 490.915 96.929 C 490.766 96.779 490.682 96.576 490.682 96.365 L 490.682 96.274 C 490.682 96.063 490.766 95.86 490.915 95.71 C 491.065 95.561 491.268 95.477 491.479 95.477 Z"
        fill="#e0e0e0"/>
    <path
        id="path_48"
        d="M 491.479 102.217 L 580.462 102.217 C 580.673 102.217 580.876 102.301 581.025 102.451 C 581.174 102.6 581.258 102.803 581.258 103.014 L 581.258 103.105 C 581.258 103.316 581.174 103.519 581.025 103.668 C 580.876 103.818 580.673 103.902 580.462 103.902 L 491.479 103.902 C 491.268 103.902 491.065 103.818 490.915 103.669 C 490.766 103.519 490.682 103.316 490.682 103.105 L 490.682 103.014 C 490.682 102.803 490.766 102.6 490.915 102.45 C 491.065 102.301 491.268 102.217 491.479 102.217 Z"
        fill="#e0e0e0"/>
    <path
        id="path_49"
        d="M 491.479 107.272 L 542.122 107.272 C 542.333 107.272 542.536 107.356 542.686 107.505 C 542.835 107.655 542.919 107.858 542.919 108.069 L 542.919 108.16 C 542.919 108.371 542.835 108.574 542.686 108.724 C 542.536 108.873 542.333 108.957 542.122 108.957 L 491.479 108.957 C 491.268 108.957 491.065 108.873 490.915 108.724 C 490.766 108.574 490.682 108.371 490.682 108.16 L 490.682 108.069 C 490.682 107.858 490.766 107.655 490.915 107.505 C 491.065 107.356 491.268 107.272 491.479 107.272 Z"
        fill="#e0e0e0"/>
    <path
        id="path_50"
        d="M 491.479 113.996 L 580.462 113.996 C 580.673 113.996 580.876 114.08 581.025 114.23 C 581.174 114.379 581.258 114.582 581.258 114.793 L 581.258 114.884 C 581.258 115.095 581.174 115.298 581.025 115.447 C 580.876 115.597 580.673 115.681 580.462 115.681 L 491.479 115.681 C 491.268 115.681 491.065 115.597 490.915 115.448 C 490.766 115.298 490.682 115.095 490.682 114.884 L 490.682 114.793 C 490.682 114.653 490.719 114.516 490.789 114.394 C 490.859 114.273 490.959 114.173 491.08 114.103 C 491.202 114.033 491.339 113.996 491.479 113.996 Z"
        fill="#e0e0e0"/>
    <path
        id="path_51"
        d="M 491.479 119.051 L 580.462 119.051 C 580.673 119.051 580.876 119.135 581.025 119.285 C 581.174 119.434 581.258 119.637 581.258 119.848 L 581.258 119.939 C 581.258 120.15 581.174 120.353 581.025 120.502 C 580.876 120.652 580.673 120.736 580.462 120.736 L 491.479 120.736 C 491.268 120.736 491.065 120.652 490.915 120.503 C 490.766 120.353 490.682 120.15 490.682 119.939 L 490.682 119.848 C 490.682 119.637 490.766 119.434 490.915 119.284 C 491.065 119.135 491.268 119.051 491.479 119.051 Z"
        fill="#e0e0e0"/>
    <path
        id="path_52"
        d="M 491.479 125.791 L 580.462 125.791 C 580.673 125.791 580.876 125.875 581.025 126.025 C 581.174 126.174 581.258 126.377 581.258 126.588 L 581.258 126.679 C 581.258 126.89 581.174 127.093 581.025 127.242 C 580.876 127.392 580.673 127.476 580.462 127.476 L 491.479 127.476 C 491.268 127.476 491.065 127.392 490.915 127.243 C 490.766 127.093 490.682 126.89 490.682 126.679 L 490.682 126.588 C 490.682 126.377 490.766 126.174 490.915 126.024 C 491.065 125.875 491.268 125.791 491.479 125.791 Z"
        fill="#e0e0e0"/>
    <path
        id="path_53"
        d="M 491.479 130.846 L 542.122 130.846 C 542.333 130.846 542.536 130.93 542.686 131.079 C 542.835 131.229 542.919 131.432 542.919 131.643 L 542.919 131.735 C 542.919 131.946 542.835 132.149 542.685 132.298 C 542.536 132.447 542.333 132.531 542.122 132.531 L 491.479 132.531 C 491.268 132.531 491.065 132.447 490.916 132.298 C 490.766 132.149 490.682 131.946 490.682 131.735 L 490.682 131.643 C 490.682 131.432 490.766 131.229 490.915 131.079 C 491.065 130.93 491.268 130.846 491.479 130.846 Z"
        fill="#e0e0e0"/>
    <path
        id="path_54"
        d="M 627.965 65.397 L 684.296 65.397 L 684.296 119.519 L 627.965 119.519 Z"
        fill="none"/>
    <path
        id="path_55"
        d="M 628.848 66.722 L 683.411 66.722 L 683.411 118.414 L 628.848 118.414 Z"
        fill="#f5f5f5"/>
    <path
        id="path_56"
        d="M 646.741 97.428 L 666.401 97.428 L 666.401 100.079 L 646.741 100.079 Z"
        fill="#4285f4"
        fill-opacity="0.6"
        stroke-opacity="0.6"/>
    <path
        id="path_57"
        d="M 639.341 102.288 L 672.918 102.288 L 672.918 104.939 L 639.341 104.939 Z"
        fill="#bdbdbd"/>
    <path
        id="path_58"
        d="M 710.096 18.041 L 832.931 18.041 L 832.931 162.365 L 710.096 162.365 Z"
        fill="none"
        fill-opacity="0.5"
        stroke-opacity="0.5"/>
    <path
        id="path_59"
        d="M 713.871 20.364 L 830.318 20.364 L 830.318 159.171 L 713.871 159.171 Z"
        fill="#ffffff"/>
    <path
        id="path_60"
        d="M 731.295 81.264 L 813.185 81.264 L 813.185 84.749 L 731.295 84.749 Z"
        fill="#e0e0e0"/>
    <path
        id="path_61"
        d="M 731.295 104.204 L 813.185 104.204 L 813.185 107.689 L 731.295 107.689 Z"
        fill="#e0e0e0"/>
    <path
        id="path_62"
        d="M 731.295 110.303 L 813.185 110.303 L 813.185 113.788 L 731.295 113.788 Z"
        fill="#e0e0e0"/>
    <path
        id="path_63"
        d="M 731.295 98.106 L 765.851 98.106 L 765.851 101.591 L 731.295 101.591 Z"
        fill="#e0e0e0"/>
    <path
        id="path_64"
        d="M 787.34 98.106 L 813.185 98.106 L 813.185 101.591 L 787.34 101.591 Z"
        fill="#3ad29f"
        fill-opacity="0.6"
        stroke-opacity="0.6"/>
    <path
        id="path_65"
        d="M 760.043 124.532 L 785.888 124.532 L 785.888 128.017 L 760.043 128.017 Z"
        fill="#4285f4"/>
    <path
        id="path_66"
        d="M 638.426 202.956 L 711.412 202.956 L 711.412 262.904 L 638.426 262.904 Z"
        fill="none"
        fill-opacity="0.5"
        stroke-opacity="0.5"/>
    <path
        id="path_67"
        d="M 639.277 204.089 L 710.421 204.089 L 710.421 261.911 L 639.277 261.911 Z"
        fill="#f2f2f2"/>
    <path
        id="path_68"
        d="M 639.277 204.089 L 710.421 204.089 L 710.421 216.986 L 639.277 216.986 Z"
        fill="#4285f4"/>
    <path
        id="path_69"
        d="M 639.277 204.089 L 710.421 204.089 L 710.421 216.986 L 639.277 216.986 Z"
        fill="#000000"
        fill-opacity="0.1"
        stroke-opacity="0.1"/>
    <path
        id="path_70"
        d="M 644.945 221.663 L 704.751 221.663 L 704.751 229.174 L 644.945 229.174 Z"
        fill="#e0e0e0"/>
    <path
        id="path_71"
        d="M 644.945 234.843 L 688.595 234.843 L 688.595 237.394 L 644.945 237.394 Z"
        fill="#e0e0e0"/>
    <path
        id="path_72"
        d="M 644.945 239.236 L 673.289 239.236 L 673.289 241.787 L 644.945 241.787 Z"
        fill="#e0e0e0"/>
    <path
        id="path_73"
        d="M 644.945 243.629 L 682.359 243.629 L 682.359 246.18 L 644.945 246.18 Z"
        fill="#e0e0e0"/>
    <path
        id="path_74"
        d="M 644.945 248.023 L 688.595 248.023 L 688.595 250.574 L 644.945 250.574 Z"
        fill="#e0e0e0"/>
    <path
        id="path_75"
        d="M 644.945 252.416 L 659.542 252.416 L 659.542 254.967 L 644.945 254.967 Z"
        fill="#e0e0e0"/>
    <path
        id="path_76"
        d="M 592.726 180.968 L 683.19 180.968 L 683.19 255.272 L 592.726 255.272 Z"
        fill="none"
        fill-opacity="0.5"
        stroke-opacity="0.5"/>
    <path
        id="path_77"
        d="M 593.78 182.374 L 681.961 182.374 L 681.961 254.043 L 593.78 254.043 Z"
        fill="#ffffff"/>
    <path
        id="path_78"
        d="M 593.78 182.374 L 681.961 182.374 L 681.961 198.359 L 593.78 198.359 Z"
        fill="#4285f4"/>
    <path
        id="path_79"
        d="M 600.807 204.155 L 674.935 204.155 L 674.935 213.465 L 600.807 213.465 Z"
        fill="#f5f5f5"/>
    <path
        id="path_80"
        d="M 600.807 220.492 L 654.91 220.492 L 654.91 223.654 L 600.807 223.654 Z"
        fill="#e0e0e0"/>
    <path
        id="path_81"
        d="M 600.807 225.937 L 635.939 225.937 L 635.939 229.099 L 600.807 229.099 Z"
        fill="#e0e0e0"/>
    <path
        id="path_82"
        d="M 600.807 231.382 L 647.181 231.382 L 647.181 234.544 L 600.807 234.544 Z"
        fill="#e0e0e0"/>
    <path
        id="path_83"
        d="M 600.807 236.828 L 654.91 236.828 L 654.91 239.99 L 600.807 239.99 Z"
        fill="#e0e0e0"/>
    <path
        id="path_84"
        d="M 600.807 242.273 L 618.9 242.273 L 618.9 245.435 L 600.807 245.435 Z"
        fill="#e0e0e0"/>
    <path
        id="path_85"
        d="M 604.671 207.317 L 625.75 207.317 L 625.75 210.128 L 604.671 210.128 Z"
        fill="#69f0ae"/>
    <path
        id="path_86"
        d="M 469.373 366.072 M 457.159 366.072 C 457.159 362.834 458.447 359.725 460.736 357.435 C 463.026 355.146 466.135 353.858 469.373 353.858 C 472.611 353.858 475.72 355.146 478.01 357.435 C 480.299 359.725 481.587 362.834 481.587 366.072 C 481.587 369.31 480.299 372.419 478.01 374.709 C 475.72 376.998 472.611 378.286 469.373 378.286 C 466.135 378.286 463.026 376.998 460.736 374.709 C 458.447 372.419 457.159 369.31 457.159 366.072"
        fill="#535461"
        fill-opacity="0.1"
        stroke-opacity="0.1"/>
    <path
        id="path_87"
        d="M 492.057 326.812 M 479.843 326.812 C 479.843 323.574 481.131 320.465 483.42 318.175 C 485.71 315.886 488.819 314.598 492.057 314.598 C 495.295 314.598 498.404 315.886 500.694 318.175 C 502.983 320.465 504.271 323.574 504.271 326.812 C 504.271 330.05 502.983 333.159 500.694 335.449 C 498.404 337.738 495.295 339.026 492.057 339.026 C 488.819 339.026 485.71 337.738 483.42 335.449 C 481.131 333.159 479.843 330.05 479.843 326.812"
        fill="#535461"
        fill-opacity="0.1"
        stroke-opacity="0.1"/>
</svg>
