<svg
    xmlns="http://www.w3.org/2000/svg"
    viewBox="0 0 609 727"
    id="vector">
    <path
        id="path"
        d="M 362.889 172.947 L 358.89 172.947 L 358.891 63.402 C 358.891 46.593 352.207 30.456 340.321 18.57 C 328.435 6.684 312.298 0 295.489 0 L 63.402 0 C 46.593 0 30.456 6.684 18.57 18.57 C 6.684 30.456 0 46.593 0 63.402 L 0 664.376 C 0 681.185 6.684 697.322 18.57 709.208 C 30.456 721.094 46.593 727.778 63.402 727.778 L 295.488 727.778 C 312.297 727.778 328.434 721.094 340.32 709.208 C 352.206 697.322 358.89 681.185 358.89 664.376 L 358.89 250.924 L 362.889 250.924 Z"
        fill="#00000099"/>
    <path
        id="path_1"
        d="M 345.397 63.844 L 345.397 663.934 C 345.398 675.36 341.263 686.409 333.761 695.027 C 326.258 703.644 315.884 709.262 304.567 710.834 C 302.407 711.136 300.228 711.286 298.047 711.284 L 64.837 711.284 C 62.656 711.286 60.477 711.136 58.317 710.834 C 47.002 709.26 36.63 703.641 29.129 695.024 C 21.629 686.406 17.495 675.358 17.497 663.934 L 17.497 63.844 C 17.497 51.291 22.489 39.239 31.366 30.363 C 40.242 21.486 52.294 16.494 64.847 16.494 L 93.137 16.494 C 91.269 21.065 90.959 26.127 92.253 30.893 C 93.548 35.658 96.377 39.867 100.301 42.865 C 104.225 45.863 109.029 47.487 113.967 47.484 L 246.927 47.484 C 251.865 47.487 256.668 45.862 260.591 42.864 C 264.514 39.865 267.342 35.656 268.635 30.891 C 269.928 26.125 269.616 21.064 267.747 16.494 L 298.047 16.494 C 310.6 16.494 322.652 21.486 331.528 30.363 C 340.405 39.239 345.397 51.291 345.397 63.844 Z"
        fill="#ffffff"/>
    <path
        id="path_2"
        d="M 345.397 511.834 L 345.397 663.934 C 345.398 675.36 341.263 686.409 333.761 695.027 C 326.258 703.644 315.884 709.262 304.567 710.834 L 58.317 710.834 C 47.002 709.26 36.63 703.641 29.129 695.024 C 21.629 686.406 17.495 675.358 17.497 663.934 L 17.497 511.834 Z"
        fill="#e6e6e6"/>
    <path
        id="path_3"
        d="M 181.447 611.334 M 150.127 611.334 C 150.127 603.031 153.429 595.059 159.3 589.187 C 165.172 583.316 173.144 580.014 181.447 580.014 C 189.75 580.014 197.722 583.316 203.594 589.187 C 209.465 595.059 212.767 603.031 212.767 611.334 C 212.767 619.637 209.465 627.609 203.594 633.481 C 197.722 639.352 189.75 642.654 181.447 642.654 C 173.144 642.654 165.172 639.352 159.3 633.481 C 153.429 627.609 150.127 619.637 150.127 611.334"
        fill="#ffffff"/>
    <path
        id="path_4"
        d="M 200.239 611.334 L 183.327 611.334 L 183.327 594.421 L 179.568 594.421 L 179.568 611.334 L 162.655 611.334 L 162.655 615.092 L 179.568 615.092 L 179.568 632.005 L 183.327 632.005 L 183.327 615.092 L 200.239 615.092 L 200.239 611.334 Z"
        fill="#e6e6e6"/>
    <path
        id="path_5"
        d="M 237.06 414.437 L 237.06 442.568 L 222.615 459.294 C 222.615 459.294 216.533 457.013 216.533 441.807 L 214.252 419.759 Z"
        fill="#ffb9b9"/>
    <path
        id="path_6"
        d="M 222.615 442.568 C 222.615 442.568 246.184 426.602 246.944 421.28 C 247.704 415.958 269.549 392.001 275.835 406.835 C 281.767 420.834 257.767 432.834 257.767 432.834 C 257.767 432.834 240.861 463.856 229.457 463.096 C 218.053 462.336 218.053 447.89 222.615 442.568 Z"
        fill="#ffb9b9"/>
    <path
        id="path_7"
        d="M 208.93 613.633 L 206.649 627.319 L 218.814 624.277 L 218.814 613.633 L 208.93 613.633 Z"
        fill="#ffb9b9"/>
    <path
        id="path_8"
        d="M 211.211 621.236 C 211.211 621.236 225.271 612.906 225.844 616.691 C 226.417 620.476 232.499 634.921 235.54 636.442 C 238.581 637.963 242.383 654.689 235.54 653.929 C 230.24 653.34 210.802 643.174 202.306 638.619 C 201.261 638.055 200.47 637.111 200.099 635.983 C 199.728 634.855 199.803 633.626 200.31 632.552 C 200.808 631.63 201.152 630.633 201.327 629.6 C 201.327 628.078 211.211 621.236 211.211 621.236 Z"
        fill="#2f2e41"/>
    <path
        id="path_9"
        d="M 204.368 466.897 C 204.368 466.897 259.869 492.747 254.547 512.514 C 249.225 532.281 229.458 615.913 229.458 615.913 C 229.458 615.913 207.41 621.235 205.889 615.913 C 204.368 610.591 220.334 527.72 218.814 524.678 C 217.294 521.636 189.163 501.869 189.163 501.869 L 131.381 477.54 L 155.71 454.731 Z"
        fill="#2f2e41"/>
    <path
        id="path_10"
        d="M 246.184 618.195 L 253.027 635.682 L 240.862 641.004 L 233.259 627.319 L 246.184 618.195 Z"
        fill="#ffb9b9"/>
    <path
        id="path_11"
        d="M 205.128 342.21 C 205.128 342.21 198.285 351.333 203.607 355.895 C 208.929 360.457 205.128 377.183 205.128 377.183 L 198.285 396.19 L 170.915 390.868 L 170.915 359.697 L 172.436 344.491 C 172.436 344.491 186.121 331.566 187.642 321.682 C 189.163 311.798 205.128 342.21 205.128 342.21 Z"
        fill="#ffb9b9"/>
    <path
        id="path_12"
        d="M 159.511 460.815 C 159.511 460.815 195.245 500.35 195.245 501.871 C 195.245 503.392 214.252 534.563 214.252 534.563 L 251.506 617.434 C 251.506 617.434 237.061 637.201 230.978 635.681 C 224.895 634.161 181.559 545.967 181.559 545.967 C 181.559 545.967 173.956 526.2 153.428 521.638 C 132.9 517.076 116.934 501.11 124.537 482.863 C 132.14 464.616 159.511 460.815 159.511 460.815 Z"
        fill="#2f2e41"/>
    <path
        id="path_13"
        d="M 205.128 323.203 M 180.799 323.203 C 180.783 318.056 182.401 313.033 185.418 308.863 C 188.436 304.693 192.701 301.586 197.595 299.992 C 202.49 298.399 207.766 298.399 212.661 299.992 C 217.555 301.586 221.82 304.693 224.838 308.863 C 227.855 313.033 229.473 318.056 229.457 323.203 C 229.473 328.35 227.855 333.373 224.838 337.543 C 221.82 341.713 217.555 344.82 212.661 346.414 C 207.766 348.007 202.49 348.007 197.595 346.414 C 192.701 344.82 188.436 341.713 185.418 337.543 C 182.401 333.373 180.783 328.35 180.799 323.203"
        fill="#ffb9b9"/>
    <path
        id="path_14"
        d="M 204.368 362.738 C 204.368 362.738 201.327 380.225 198.286 381.745 C 195.245 383.265 192.964 388.588 186.121 380.985 C 179.278 373.382 173.196 358.176 173.196 358.176 L 149.627 387.067 L 147.346 466.897 C 147.346 466.897 173.956 460.054 182.319 466.897 C 190.682 473.74 208.929 472.979 208.929 472.979 L 205.128 457.773 L 208.169 431.923 L 207.409 408.354 L 206.649 391.628 Z"
        fill="#4285f4"/>
    <path
        id="path_15"
        d="M 201.69 349.941 C 201.69 349.941 211.971 355.135 212.732 358.176 C 213.493 361.217 227.177 367.299 227.177 367.299 C 227.177 367.299 232.499 372.621 232.499 375.662 C 232.499 378.703 214.252 413.677 214.252 413.677 C 214.252 413.677 210.451 437.246 211.971 441.808 C 213.491 446.37 208.93 463.856 208.93 463.856 L 218.053 474.5 L 209.69 474.5 C 209.69 474.5 200.567 469.938 200.567 467.657 C 200.567 465.376 202.088 449.41 202.848 442.567 C 203.608 435.724 203.608 411.395 202.088 403.032 C 200.568 394.669 201.328 372.62 201.328 367.298 C 201.328 361.976 201.69 349.941 201.69 349.941 Z"
        fill="#3f3d56"/>
    <path
        id="path_16"
        d="M 178.138 338.396 C 178.138 338.396 174.717 339.169 164.833 342.21 C 154.949 345.251 139.743 349.813 134.421 355.895 C 130.685 360.393 127.376 365.229 124.537 370.34 L 127.578 425.081 C 127.578 425.081 121.496 436.485 122.256 442.568 C 123.016 448.651 129.099 449.411 124.537 462.335 C 119.975 475.259 110.852 486.664 119.215 488.185 C 127.578 489.706 149.627 484.384 159.51 487.425 C 169.393 490.466 180.798 476.021 180.798 476.021 C 180.798 476.021 165.592 477.542 167.873 471.459 C 170.154 465.376 195.243 396.951 189.921 381.745 C 184.599 366.539 178.138 338.396 178.138 338.396 Z"
        fill="#3f3d56"/>
    <path
        id="path_17"
        d="M 228.697 371.861 L 232.498 374.902 C 232.498 374.902 243.142 412.916 240.101 416.718 C 237.06 420.52 212.731 428.883 211.21 423.561 C 209.689 418.239 228.697 371.861 228.697 371.861 Z"
        fill="#3f3d56"/>
    <path
        id="path_18"
        d="M 116.175 398.471 C 116.175 398.471 104.771 431.163 104.771 440.287 C 104.771 449.411 106.292 502.631 106.292 502.631 C 106.292 502.631 113.895 534.576 129.861 525.453 C 145.827 516.33 123.018 501.11 123.018 501.11 C 123.018 501.11 123.778 441.047 129.861 432.684 C 135.944 424.321 138.224 412.156 138.224 412.156 Z"
        fill="#ffb9b9"/>
    <path
        id="path_19"
        d="M 240.862 634.921 C 240.862 634.921 252.266 628.839 254.547 633.4 C 256.828 637.961 268.992 663.051 267.472 666.092 C 265.952 669.133 257.588 681.298 247.705 678.257 C 237.822 675.216 237.061 659.25 237.061 659.25 L 236.301 641.003 Z"
        fill="#2f2e41"/>
    <path
        id="path_20"
        d="M 209.892 317.326 C 208.216 318.115 206.228 318.586 205.175 320.11 C 204.395 321.239 204.317 322.706 203.748 323.955 C 203.127 325.191 202.057 326.145 200.757 326.62 C 199.458 327.095 198.025 327.057 196.753 326.513 C 196.442 324.999 195.561 323.661 194.293 322.777 C 193.652 322.356 192.893 322.151 192.127 322.193 C 191.362 322.235 190.63 322.522 190.039 323.011 C 188.472 324.505 189.027 327.11 188.295 329.148 C 187.609 330.581 186.664 331.876 185.509 332.968 C 183.845 334.888 182.519 337.14 180.515 338.702 C 178.511 340.264 175.472 340.941 173.481 339.362 C 171.807 338.035 171.46 335.586 171.866 333.488 C 172.272 331.39 173.281 329.459 173.849 327.4 C 175.697 320.708 172.751 313.564 173.662 306.682 C 174.83 297.864 182.325 290.898 190.691 287.875 C 194.172 286.457 197.984 286.053 201.685 286.71 C 205.511 287.564 208.779 290 212.444 291.393 C 216.363 292.883 220.624 293.143 224.724 294.014 C 228.824 294.885 233.045 296.569 235.424 300.02 C 237.084 302.427 237.654 305.417 239.03 307.997 C 240.613 310.941 243.179 313.24 246.279 314.491 L 241.944 314.244 C 242.671 316.179 243.856 317.909 245.398 319.285 C 243.366 319.7 241.252 319.42 239.397 318.492 C 239.431 319.383 239.647 320.258 240.032 321.063 C 240.417 321.867 240.963 322.584 241.636 323.169 C 238.3 323.069 234.783 322.915 231.964 321.128 C 230.583 320.253 229.458 319.034 228.158 318.042 C 225.389 315.927 221.953 314.924 218.604 313.963 C 216.845 313.458 214.729 312.756 213.138 313.888 C 211.814 314.829 211.605 316.52 209.892 317.326 Z"
        fill="#2f2e41"/>
    <path
        id="path_21"
        d="M 135.942 361.217 L 124.538 370.341 L 109.332 405.314 C 109.332 405.314 130.62 422.04 135.942 419.759 C 141.264 417.478 150.387 377.183 150.387 377.183 Z"
        fill="#3f3d56"/>
    <path
        id="path_22"
        d="M 282.028 413.938 C 282.088 413.993 282.167 414.024 282.254 414.025 C 282.34 414.027 282.429 413.999 282.507 413.945 C 282.585 413.892 282.648 413.817 282.687 413.73 C 282.725 413.644 282.737 413.551 282.72 413.466 C 282.704 413.382 282.659 413.309 282.594 413.26 C 282.534 413.205 282.455 413.174 282.368 413.173 C 282.282 413.171 282.193 413.199 282.115 413.253 C 282.037 413.306 281.974 413.381 281.935 413.468 C 281.897 413.554 281.885 413.647 281.902 413.732 C 281.918 413.816 281.963 413.889 282.028 413.938 Z"
        fill="#f2f2f2"/>
    <path
        id="path_23"
        d="M 271.614 346.588 C 270.306 346.589 269.05 347.11 268.124 348.035 C 267.199 348.961 266.678 350.217 266.677 351.525 L 266.677 434.182 C 266.678 435.49 267.199 436.746 268.124 437.672 C 269.05 438.597 270.306 439.118 271.614 439.119 L 604.831 439.118 C 606.139 439.117 607.395 438.596 608.321 437.671 C 609.246 436.745 609.767 435.489 609.768 434.181 L 609.768 351.524 C 609.767 350.216 609.246 348.96 608.321 348.034 C 607.395 347.109 606.139 346.588 604.831 346.587 Z"
        fill="#ffffff"/>
    <path
        id="path_24"
        d="M 271.614 346.588 C 270.306 346.589 269.05 347.11 268.124 348.035 C 267.199 348.961 266.678 350.217 266.677 351.525 L 266.677 434.182 C 266.678 435.49 267.199 436.746 268.124 437.672 C 269.05 438.597 270.306 439.118 271.614 439.119 L 604.831 439.118 C 606.139 439.117 607.395 438.596 608.321 437.671 C 609.246 436.745 609.767 435.489 609.768 434.181 L 609.768 351.524 C 609.767 350.216 609.246 348.96 608.321 348.034 C 607.395 347.109 606.139 346.588 604.831 346.587 Z"
        fill="#e6e6e6"/>
    <path
        id="path_25"
        d="M 272.231 433.564 L 604.214 433.564 L 604.214 352.142 L 272.231 352.142 Z"
        fill="#ffffff"/>
    <path
        id="path_26"
        d="M 314.809 392.853 M 288.892 392.853 C 288.892 385.982 291.624 379.385 296.483 374.527 C 301.341 369.668 307.938 366.936 314.809 366.936 C 321.68 366.936 328.277 369.668 333.135 374.527 C 337.994 379.385 340.726 385.982 340.726 392.853 C 340.726 399.724 337.994 406.321 333.135 411.179 C 328.277 416.038 321.68 418.77 314.809 418.77 C 307.938 418.77 301.341 416.038 296.483 411.179 C 291.624 406.321 288.892 399.724 288.892 392.853"
        fill="#4285f4"/>
    <path
        id="path_27"
        d="M 374.665 375.575 C 373.522 375.579 372.426 376.036 371.619 376.845 C 370.813 377.654 370.359 378.752 370.359 379.894 C 370.359 381.037 370.813 382.135 371.619 382.944 C 372.426 383.753 373.522 384.21 374.665 384.214 L 578.297 384.214 C 579.44 384.21 580.536 383.753 581.343 382.944 C 582.149 382.135 582.603 381.037 582.603 379.894 C 582.603 378.752 582.149 377.654 581.343 376.845 C 580.536 376.036 579.44 375.579 578.297 375.575 Z"
        fill="#e6e6e6"/>
    <path
        id="path_28"
        d="M 374.665 401.492 C 373.522 401.496 372.426 401.953 371.619 402.762 C 370.813 403.571 370.359 404.669 370.359 405.812 C 370.359 406.954 370.813 408.052 371.619 408.861 C 372.426 409.67 373.522 410.127 374.665 410.131 L 578.297 410.131 C 579.44 410.127 580.536 409.67 581.343 408.861 C 582.149 408.052 582.603 406.954 582.603 405.812 C 582.603 404.669 582.149 403.571 581.343 402.762 C 580.536 401.953 579.44 401.496 578.297 401.492 Z"
        fill="#e6e6e6"/>
    <path
        id="path_29"
        d="M 58.321 96.834 C 57.356 96.835 56.429 97.219 55.746 97.902 C 55.063 98.585 54.679 99.512 54.678 100.477 L 54.678 161.475 C 54.679 162.44 55.063 163.367 55.746 164.05 C 56.429 164.733 57.356 165.117 58.321 165.118 L 304.223 165.118 C 305.188 165.117 306.115 164.733 306.798 164.05 C 307.481 163.367 307.865 162.44 307.866 161.475 L 307.866 100.477 C 307.865 99.512 307.481 98.585 306.798 97.902 C 306.115 97.219 305.188 96.835 304.223 96.834 Z"
        fill="#ffffff"/>
    <path
        id="path_30"
        d="M 58.321 96.834 C 57.356 96.835 56.429 97.219 55.746 97.902 C 55.063 98.585 54.679 99.512 54.678 100.477 L 54.678 161.475 C 54.679 162.44 55.063 163.367 55.746 164.05 C 56.429 164.733 57.356 165.117 58.321 165.118 L 304.223 165.118 C 305.188 165.117 306.115 164.733 306.798 164.05 C 307.481 163.367 307.865 162.44 307.866 161.475 L 307.866 100.477 C 307.865 99.512 307.481 98.585 306.798 97.902 C 306.115 97.219 305.188 96.835 304.223 96.834 Z"
        fill="#e6e6e6"/>
    <path
        id="path_31"
        d="M 58.776 161.02 L 303.768 161.02 L 303.768 100.932 L 58.776 100.932 Z"
        fill="#ffffff"/>
    <path
        id="path_32"
        d="M 90.197 130.976 M 71.071 130.976 C 71.042 126.919 72.304 122.956 74.675 119.663 C 77.045 116.37 80.403 113.916 84.26 112.656 C 88.117 111.397 92.276 111.397 96.133 112.656 C 99.99 113.916 103.348 116.37 105.718 119.663 C 108.089 122.956 109.351 126.919 109.322 130.976 C 109.351 135.033 108.089 138.996 105.718 142.289 C 103.348 145.582 99.99 148.036 96.133 149.296 C 92.276 150.555 88.117 150.555 84.26 149.296 C 80.403 148.036 77.045 145.582 74.675 142.289 C 72.304 138.996 71.042 135.033 71.071 130.976"
        fill="#4285f4"/>
    <path
        id="path_33"
        d="M 134.368 118.225 C 133.533 118.24 132.736 118.582 132.15 119.178 C 131.565 119.774 131.236 120.577 131.236 121.412 C 131.236 122.248 131.565 123.051 132.15 123.647 C 132.736 124.243 133.533 124.585 134.368 124.6 L 284.642 124.601 C 285.323 124.613 285.99 124.407 286.545 124.012 C 287.1 123.618 287.514 123.056 287.727 122.409 C 287.94 121.763 287.94 121.064 287.727 120.418 C 287.514 119.771 287.1 119.209 286.545 118.815 C 285.99 118.42 285.323 118.214 284.642 118.226 Z"
        fill="#e6e6e6"/>
    <path
        id="path_34"
        d="M 134.368 137.351 C 133.533 137.366 132.736 137.708 132.15 138.304 C 131.565 138.9 131.236 139.703 131.236 140.538 C 131.236 141.374 131.565 142.177 132.15 142.773 C 132.736 143.369 133.533 143.711 134.368 143.726 L 284.642 143.726 C 285.323 143.738 285.99 143.532 286.545 143.137 C 287.1 142.743 287.514 142.181 287.727 141.534 C 287.94 140.888 287.94 140.189 287.727 139.543 C 287.514 138.896 287.1 138.334 286.545 137.94 C 285.99 137.545 285.323 137.339 284.642 137.351 Z"
        fill="#e6e6e6"/>
    <path
        id="path_35"
        d="M 58.321 205.834 C 57.356 205.835 56.429 206.219 55.746 206.902 C 55.063 207.585 54.679 208.512 54.678 209.477 L 54.678 270.475 C 54.679 271.44 55.063 272.367 55.746 273.05 C 56.429 273.733 57.356 274.117 58.321 274.118 L 304.223 274.118 C 305.188 274.117 306.115 273.733 306.798 273.05 C 307.481 272.367 307.865 271.44 307.866 270.475 L 307.866 209.477 C 307.865 208.512 307.481 207.585 306.798 206.902 C 306.115 206.219 305.188 205.835 304.223 205.834 Z"
        fill="#ffffff"/>
    <path
        id="path_36"
        d="M 58.321 205.834 C 57.356 205.835 56.429 206.219 55.746 206.902 C 55.063 207.585 54.679 208.512 54.678 209.477 L 54.678 270.475 C 54.679 271.44 55.063 272.367 55.746 273.05 C 56.429 273.733 57.356 274.117 58.321 274.118 L 304.223 274.118 C 305.188 274.117 306.115 273.733 306.798 273.05 C 307.481 272.367 307.865 271.44 307.866 270.475 L 307.866 209.477 C 307.865 208.512 307.481 207.585 306.798 206.902 C 306.115 206.219 305.188 205.835 304.223 205.834 Z"
        fill="#e6e6e6"/>
    <path
        id="path_37"
        d="M 58.776 270.02 L 303.768 270.02 L 303.768 209.932 L 58.776 209.932 Z"
        fill="#ffffff"/>
    <path
        id="path_38"
        d="M 90.197 239.976 M 71.071 239.976 C 71.042 235.919 72.304 231.956 74.675 228.663 C 77.045 225.37 80.403 222.916 84.26 221.656 C 88.117 220.397 92.276 220.397 96.133 221.656 C 99.99 222.916 103.348 225.37 105.718 228.663 C 108.089 231.956 109.351 235.919 109.322 239.976 C 109.351 244.033 108.089 247.996 105.718 251.289 C 103.348 254.582 99.99 257.036 96.133 258.296 C 92.276 259.555 88.117 259.555 84.26 258.296 C 80.403 257.036 77.045 254.582 74.675 251.289 C 72.304 247.996 71.042 244.033 71.071 239.976"
        fill="#4285f4"/>
    <path
        id="path_39"
        d="M 134.368 227.225 C 133.533 227.24 132.736 227.582 132.15 228.178 C 131.565 228.774 131.236 229.577 131.236 230.412 C 131.236 231.248 131.565 232.051 132.15 232.647 C 132.736 233.243 133.533 233.585 134.368 233.6 L 284.642 233.601 C 285.323 233.613 285.99 233.407 286.545 233.012 C 287.1 232.618 287.514 232.056 287.727 231.409 C 287.94 230.763 287.94 230.064 287.727 229.418 C 287.514 228.771 287.1 228.209 286.545 227.815 C 285.99 227.42 285.323 227.214 284.642 227.226 Z"
        fill="#e6e6e6"/>
    <path
        id="path_40"
        d="M 134.368 246.351 C 133.533 246.366 132.736 246.708 132.15 247.304 C 131.565 247.9 131.236 248.703 131.236 249.538 C 131.236 250.374 131.565 251.177 132.15 251.773 C 132.736 252.369 133.533 252.711 134.368 252.726 L 284.642 252.726 C 285.323 252.738 285.99 252.532 286.545 252.137 C 287.1 251.743 287.514 251.181 287.727 250.534 C 287.94 249.888 287.94 249.189 287.727 248.543 C 287.514 247.896 287.1 247.334 286.545 246.94 C 285.99 246.545 285.323 246.339 284.642 246.351 Z"
        fill="#e6e6e6"/>
</svg>
