<svg xmlns="http://www.w3.org/2000/svg" viewBox="0 0 229.77 179.46"><g id="Capa_2" data-name="Capa 2"><g id="Capa_1-2" data-name="Capa 1"><g id="Light"><g id="Isotype"><polygon points="81.67 115.82 79.25 118.22 111.58 150.55 229.77 32.36 197.41 0 184 13.48 202.81 32.36 194.66 40.43 175.93 21.55 165.12 32.36 175.93 43.1 167.78 51.17 157.05 40.43 146.31 51.17 165.12 70.05 157.05 78.13 138.24 59.24 127.43 70.05 138.24 80.79 130.17 88.86 119.36 78.13 108.62 88.86 127.43 107.75 119.36 115.82 100.55 96.93 89.74 107.75 100.55 118.48 92.48 126.48 81.67 115.82"/><path d="M-1.79,113.45h104a.14.14,0,0,1,.14.14v12.58a31.47,31.47,0,0,1-31.47,31.47h-54a31.46,31.46,0,0,1-31.46-31.46v0A12.73,12.73,0,0,1-1.79,113.45Z" transform="translate(108.71 8.64) rotate(45)"/></g></g></g></g></svg>