<svg width="541" height="77" viewBox="0 0 541 77" fill="none" xmlns="http://www.w3.org/2000/svg">
    <path
        d="M6.46423 14.9291C2.89156 14.4355 0.122526 11.4256 0.00396729 7.74596C0.138126 3.44525 3.66673 0 8.00001 0H22.2088C19.7 1.37945 18 4.04591 18 7.10907V14.9274L6.46423 14.9291Z"
        fill="#000000" />
    <path
        d="M35.6425 11.4027L35.6425 68.7817C35.6425 73.0482 32.1805 76.5069 27.91 76.5069C23.6395 76.5069 20.1776 73.0482 20.1776 68.7817L20.1776 11.4027L35.6425 11.4027Z"
        fill="#000000" />
    <path
        d="M52.2224 2.27848e-07C56.3478 2.27848e-07 59.6922 3.34122 59.6922 7.46282C59.6922 11.5844 56.3478 14.9256 52.2224 14.9256H20.1776V8.10907C20.1776 3.63055 23.8116 0 28.2943 0L52.2224 2.27848e-07Z"
        fill="#000000" />
    <path fill-rule="evenodd" clip-rule="evenodd"
        d="M171.782 1.73111C170.628 0.577037 169.169 0 167.404 0C165.639 0 164.179 0.610979 163.025 1.83294C161.871 2.98702 161.294 4.44659 161.294 6.21165V26.2326C160.69 25.663 160.011 25.0992 159.257 24.5411C157.492 23.1834 155.388 22.0632 152.944 21.1807C150.5 20.2982 147.818 19.8569 144.899 19.8569C140.351 19.8569 136.21 21.0789 132.476 23.5228C128.742 25.8988 125.755 29.2253 123.515 33.5022C121.343 37.7111 120.256 42.599 120.256 48.1657C120.256 53.6646 121.343 58.5524 123.515 62.8293C125.755 67.0383 128.776 70.3647 132.578 72.8087C136.379 75.1847 140.622 76.3727 145.307 76.3727C147.886 76.3727 150.262 75.9654 152.435 75.1507C154.675 74.2682 156.61 73.216 158.239 71.994C159.443 71.0909 160.462 70.1878 161.295 69.2847C161.325 70.988 161.902 72.4342 163.025 73.6233C164.179 74.7774 165.639 75.3544 167.404 75.3544C169.169 75.3544 170.628 74.7774 171.782 73.6233C172.937 72.4013 173.514 70.9078 173.514 69.1428V6.21165C173.514 4.3787 172.937 2.88519 171.782 1.73111ZM154.675 62.9311C152.435 64.4246 149.821 65.1714 146.834 65.1714C143.915 65.1714 141.335 64.4246 139.095 62.9311C136.855 61.4376 135.09 59.401 133.8 56.8213C132.578 54.2416 131.967 51.3564 131.967 48.1657C131.967 44.9072 132.578 41.988 133.8 39.4083C135.09 36.8286 136.855 34.792 139.095 33.2985C141.335 31.805 143.915 31.0582 146.834 31.0582C149.821 31.0582 152.435 31.805 154.675 33.2985C156.915 34.792 158.646 36.8286 159.868 39.4083C161.158 41.988 161.803 44.9072 161.803 48.1657C161.803 51.3564 161.158 54.2416 159.868 56.8213C158.646 59.401 156.915 61.4376 154.675 62.9311Z"
        fill="#000000" />
    <path fill-rule="evenodd" clip-rule="evenodd"
        d="M112.108 48.1657C112.108 53.7324 110.852 58.6542 108.34 62.9311C105.896 67.1401 102.569 70.4326 98.3604 72.8087C94.2193 75.1847 89.5691 76.3727 84.4097 76.3727C79.2503 76.3727 74.5661 75.1847 70.3571 72.8087C66.216 70.4326 62.8896 67.1401 60.3777 62.9311C57.9338 58.6542 56.7119 53.7324 56.7119 48.1657C56.7119 42.599 57.9338 37.7111 60.3777 33.5022C62.8896 29.2253 66.216 25.8988 70.3571 23.5228C74.5661 21.0789 79.2503 19.8569 84.4097 19.8569C89.5691 19.8569 94.2193 21.0789 98.3604 23.5228C102.569 25.8988 105.896 29.2253 108.34 33.5022C110.852 37.7111 112.108 42.599 112.108 48.1657ZM99.8879 48.1657C99.8879 44.7035 99.1751 41.7165 97.7495 39.2047C96.3917 36.625 94.5248 34.6223 92.1488 33.1967C89.8406 31.771 87.2609 31.0582 84.4097 31.0582C81.5584 31.0582 78.9448 31.771 76.5688 33.1967C74.2606 34.6223 72.3937 36.625 70.9681 39.2047C69.6104 41.7165 68.9315 44.7035 68.9315 48.1657C68.9315 51.5601 69.6104 54.5471 70.9681 57.1268C72.3937 59.6386 74.2606 61.6073 76.5688 63.0329C78.9448 64.4586 81.5584 65.1714 84.4097 65.1714C87.2609 65.1714 89.8406 64.4586 92.1488 63.0329C94.5248 61.6073 96.3917 59.6386 97.7495 57.1268C99.1751 54.5471 99.8879 51.5601 99.8879 48.1657Z"
        fill="#000000" />
    <path fill-rule="evenodd" clip-rule="evenodd"
        d="M239.594 48.1657C239.594 53.7324 238.338 58.6542 235.827 62.9311C233.383 67.1401 230.056 70.4326 225.847 72.8087C221.706 75.1847 217.056 76.3727 211.896 76.3727C206.737 76.3727 202.053 75.1847 197.844 72.8087C193.703 70.4326 190.376 67.1401 187.865 62.9311C185.421 58.6542 184.199 53.7324 184.199 48.1657C184.199 42.599 185.421 37.7111 187.865 33.5022C190.376 29.2253 193.703 25.8988 197.844 23.5228C202.053 21.0789 206.737 19.8569 211.896 19.8569C217.056 19.8569 221.706 21.0789 225.847 23.5228C230.056 25.8988 233.383 29.2253 235.827 33.5022C238.338 37.7111 239.594 42.599 239.594 48.1657ZM227.375 48.1657C227.375 44.7035 226.662 41.7165 225.236 39.2047C223.878 36.625 222.012 34.6223 219.636 33.1967C217.327 31.771 214.748 31.0582 211.896 31.0582C209.045 31.0582 206.432 31.771 204.056 33.1967C201.747 34.6223 199.88 36.625 198.455 39.2047C197.097 41.7165 196.418 44.7035 196.418 48.1657C196.418 51.5601 197.097 54.5471 198.455 57.1268C199.88 59.6386 201.747 61.6073 204.056 63.0329C206.432 64.4586 209.045 65.1714 211.896 65.1714C214.748 65.1714 217.327 64.4586 219.636 63.0329C222.012 61.6073 223.878 59.6386 225.236 57.1268C226.662 54.5471 227.375 51.5601 227.375 48.1657Z"
        fill="#000000" />
    <path
        d="M290.919 23.8283C288.339 21.1807 284.334 19.8569 278.903 19.8569C276.663 19.8569 274.592 20.2303 272.692 20.977C270.791 21.6559 269.06 22.5724 267.498 23.7265C265.937 24.8805 264.613 26.1364 263.527 27.4942C263.16 27.9294 262.821 28.3569 262.508 28.7766V27.0869C262.508 25.3218 261.931 23.8622 260.777 22.7082C259.623 21.4862 258.164 20.8752 256.399 20.8752C254.634 20.8752 253.174 21.4862 252.02 22.7082C250.866 23.8622 250.289 25.3218 250.289 27.0869V69.1428C250.289 70.9078 250.866 72.4013 252.02 73.6233C253.174 74.7774 254.634 75.3544 256.399 75.3544C258.164 75.3544 259.623 74.7774 260.777 73.6233C261.931 72.4013 262.508 70.9078 262.508 69.1428V43.0742C262.508 40.8339 262.95 38.8313 263.832 37.0662C264.783 35.2333 266.174 33.7737 268.007 32.6875C269.84 31.6013 272.047 31.0582 274.626 31.0582C277.274 31.0582 279.31 31.6013 280.736 32.6875C282.162 33.7737 283.146 35.2333 283.689 37.0662C284.232 38.8313 284.504 40.8339 284.504 43.0742V69.1428C284.504 70.9078 285.081 72.4013 286.235 73.6233C287.389 74.7774 288.849 75.3544 290.614 75.3544C292.379 75.3544 293.838 74.7774 294.992 73.6233C296.146 72.4013 296.723 70.9078 296.723 69.1428V43.0742C296.723 40.8339 297.165 38.8313 298.047 37.0662C298.998 35.2333 300.389 33.7737 302.222 32.6875C304.055 31.6013 306.262 31.0582 308.841 31.0582C311.489 31.0582 313.525 31.6013 314.951 32.6875C316.377 33.7737 317.361 35.2333 317.904 37.0662C318.447 38.8313 318.719 40.8339 318.719 43.0742V69.1428C318.719 70.9078 319.296 72.4013 320.45 73.6233C321.604 74.7774 323.064 75.3544 324.829 75.3544C326.594 75.3544 328.053 74.7774 329.207 73.6233C330.361 72.4013 330.938 70.9078 330.938 69.1428V43.0742C330.938 38.7973 330.463 34.9278 329.513 31.4656C328.562 27.9354 326.797 25.1181 324.218 23.0136C321.706 20.9092 318.006 19.8569 313.118 19.8569C310.131 19.8569 307.416 20.5018 304.972 21.7917C302.596 23.0136 300.559 24.5411 298.862 26.374C297.28 28.0196 296.081 29.5766 295.266 31.0451C294.325 28.1904 292.876 25.7848 290.919 23.8283Z"
        fill="#000000" />
    <path fill-rule="evenodd" clip-rule="evenodd"
        d="M369.825 76.3727C364.054 76.3727 359.031 75.1847 354.754 72.8087C350.545 70.3647 347.286 67.0722 344.978 62.9311C342.738 58.79 341.618 54.1058 341.618 48.8785C341.618 42.7687 342.84 37.5754 345.284 33.2985C347.796 28.9537 351.054 25.6273 355.06 23.3191C359.065 21.011 363.308 19.8569 367.788 19.8569C371.251 19.8569 374.509 20.5697 377.564 21.9953C380.687 23.421 383.436 25.3897 385.812 27.9015C388.188 30.3454 390.055 33.1967 391.413 36.4552C392.839 39.7138 393.551 43.176 393.551 46.8419C393.483 48.4712 392.839 49.795 391.617 50.8133C390.395 51.8316 388.969 52.3408 387.34 52.3408H353.713C354.075 54.2242 354.694 55.9214 355.569 57.4323C357.13 59.9441 359.099 61.8789 361.475 63.2366C363.919 64.5265 366.498 65.1714 369.214 65.1714C371.726 65.1714 373.728 64.9677 375.222 64.5604C376.715 64.1531 377.903 63.6779 378.786 63.1348C379.736 62.5238 380.585 62.0146 381.332 61.6073C382.554 60.9963 383.708 60.6908 384.794 60.6908C386.287 60.6908 387.509 61.2 388.46 62.2183C389.478 63.2366 389.987 64.4246 389.987 65.7824C389.987 67.6153 389.037 69.2785 387.136 70.772C385.371 72.2656 382.893 73.5893 379.702 74.7434C376.512 75.8296 373.219 76.3727 369.825 76.3727ZM354.449 39.8156C354.202 40.5334 353.996 41.3141 353.831 42.1577H380.517V41.4449C380.381 39.4762 379.669 37.7111 378.379 36.1497C377.157 34.5883 375.595 33.3664 373.694 32.4839C371.861 31.5334 369.893 31.0582 367.788 31.0582C365.752 31.0582 363.851 31.3298 362.086 31.8729C360.321 32.416 358.793 33.3324 357.503 34.6223C356.214 35.9121 355.195 37.6433 354.449 39.8156Z"
        fill="#000000" />
    <path
        d="M409.523 21.8935H404.839C403.209 21.8935 401.852 22.4366 400.765 23.5228C399.679 24.5411 399.136 25.8309 399.136 27.3923C399.136 29.0216 399.679 30.3794 400.765 31.4656C401.852 32.5517 403.209 33.0948 404.839 33.0948H409.523V61.2C409.523 64.5265 410.032 67.1401 411.05 69.0409C412.069 70.9418 413.324 72.3674 414.818 73.3178C416.379 74.2003 418.009 74.7774 419.706 75.0489C421.471 75.2526 423.066 75.3544 424.492 75.3544C426.868 75.3544 429.074 74.7434 431.111 73.5215C433.215 72.2995 434.268 70.7381 434.268 68.8373C434.268 67.2759 433.86 66.0539 433.046 65.1714C432.299 64.2889 431.45 63.8476 430.5 63.8476C429.617 63.8476 428.837 64.0173 428.158 64.3567C427.479 64.6283 426.732 64.7641 425.917 64.7641C425.171 64.7641 424.458 64.6283 423.779 64.3567C423.168 64.0852 422.659 63.6439 422.252 63.0329C421.912 62.422 421.742 61.6413 421.742 60.6908V33.0948H428.972C430.602 33.0948 431.959 32.5857 433.046 31.5674C434.132 30.4812 434.675 29.1574 434.675 27.596C434.675 25.9667 434.132 24.609 433.046 23.5228C431.959 22.4366 430.602 21.8935 428.972 21.8935H421.742V15.3764C421.742 13.6113 421.165 12.1517 420.011 10.9977C418.925 9.77571 417.499 9.16472 415.734 9.16472C413.969 9.16472 412.476 9.77571 411.254 10.9977C410.1 12.1517 409.523 13.6113 409.523 15.3764V21.8935Z"
        fill="#000000" />
    <path fill-rule="evenodd" clip-rule="evenodd"
        d="M471.059 76.3727C465.288 76.3727 460.264 75.1847 455.988 72.8087C451.779 70.3647 448.52 67.0722 446.212 62.9311C443.972 58.79 442.852 54.1058 442.852 48.8785C442.852 42.7687 444.073 37.5754 446.517 33.2985C449.029 28.9537 452.288 25.6273 456.293 23.3191C460.298 21.011 464.541 19.8569 469.022 19.8569C472.484 19.8569 475.743 20.5697 478.798 21.9953C481.92 23.421 484.67 25.3897 487.046 27.9015C489.422 30.3454 491.289 33.1967 492.647 36.4552C494.072 39.7138 494.785 43.176 494.785 46.8419C494.717 48.4712 494.072 49.795 492.85 50.8133C491.628 51.8316 490.203 52.3408 488.573 52.3408H454.947C455.309 54.2242 455.928 55.9214 456.802 57.4323C458.364 59.9441 460.332 61.8789 462.708 63.2366C465.152 64.5265 467.732 65.1714 470.448 65.1714C472.959 65.1714 474.962 64.9677 476.456 64.5604C477.949 64.1531 479.137 63.6779 480.02 63.1348C480.97 62.5238 481.819 62.0146 482.565 61.6073C483.787 60.9963 484.941 60.6908 486.028 60.6908C487.521 60.6908 488.743 61.2 489.693 62.2183C490.712 63.2366 491.221 64.4246 491.221 65.7824C491.221 67.6153 490.27 69.2785 488.37 70.772C486.605 72.2656 484.127 73.5893 480.936 74.7434C477.745 75.8296 474.453 76.3727 471.059 76.3727ZM455.682 39.8156C455.435 40.5334 455.229 41.3141 455.064 42.1577H481.751V41.4449C481.615 39.4762 480.902 37.7111 479.612 36.1497C478.39 34.5883 476.829 33.3664 474.928 32.4839C473.095 31.5334 471.126 31.0582 469.022 31.0582C466.985 31.0582 465.084 31.3298 463.319 31.8729C461.554 32.416 460.027 33.3324 458.737 34.6223C457.447 35.9121 456.429 37.6433 455.682 39.8156Z"
        fill="#000000" />
    <path
        d="M507.192 73.6233C508.346 74.7774 509.806 75.3544 511.571 75.3544C513.336 75.3544 514.796 74.7774 515.95 73.6233C517.104 72.4013 517.681 70.9078 517.681 69.1428V45.009C517.681 42.5651 517.986 40.4606 518.597 38.6955C519.276 36.8626 520.125 35.3351 521.143 34.1131C522.229 32.8912 523.383 32.0087 524.605 31.4656C525.895 30.8546 527.151 30.5491 528.373 30.5491C529.731 30.5491 530.919 30.7867 531.937 31.2619C533.023 31.7371 534.211 31.9747 535.501 31.9747C536.859 31.9747 538.115 31.4995 539.269 30.5491C540.423 29.5308 541 27.9015 541 25.6612C541 24.0998 540.287 22.7421 538.862 21.588C537.504 20.4339 535.807 19.8569 533.77 19.8569C532.073 19.8569 530.376 20.0606 528.679 20.4679C526.981 20.8752 525.386 21.5201 523.893 22.4027C522.399 23.2173 521.041 24.2695 519.819 25.5594C519.005 26.4215 518.292 27.3849 517.681 28.4497V27.0869C517.681 25.3218 517.104 23.8622 515.95 22.7082C514.796 21.4862 513.336 20.8752 511.571 20.8752C509.806 20.8752 508.346 21.4862 507.192 22.7082C506.038 23.8622 505.461 25.3218 505.461 27.0869V69.1428C505.461 70.9078 506.038 72.4013 507.192 73.6233Z"
        fill="#000000" />
</svg>
