<svg width="1440px" height="331px"
 viewBox="0.00 0.00 1036.62 238.00" xmlns="http://www.w3.org/2000/svg" xmlns:xlink="http://www.w3.org/1999/xlink">
<g id="graph0" class="graph" transform="scale(1.0007919936640506 1.0007919936640506) rotate(0.0) translate(4.0 234.0)">
<polygon fill="white" stroke="transparent" points="-4,4 -4,-234 1032.62,-234 1032.62,4 -4,4"/>
<text text-anchor="middle" x="514.31" y="-194.5" font-family="Times,serif" font-size="35.00">ui</text>
<!-- :app&#45;common:ui -->
<g id="node1" class="node">
<title>:app&#45;common:ui</title>
<polygon fill="#7f52ff" stroke="black" points="559.95,-180 451.86,-180 451.86,-144 559.95,-144 559.95,-180"/>
<text text-anchor="middle" x="505.91" y="-157.8" font-family="Times,serif" font-size="14.00">:app&#45;common:ui</text>
</g>
<!-- :app&#45;common:designsystem -->
<g id="node2" class="node">
<title>:app&#45;common:designsystem</title>
<ellipse fill="#7f52ff" stroke="black" cx="141.91" cy="-90" rx="119.28" ry="18"/>
<text text-anchor="middle" x="141.91" y="-85.8" font-family="Times,serif" font-size="14.00">:app&#45;common:designsystem</text>
</g>
<!-- :app&#45;common:ui&#45;&gt;:app&#45;common:designsystem -->
<g id="edge1" class="edge">
<title>:app&#45;common:ui&#45;&gt;:app&#45;common:designsystem</title>
<path fill="none" stroke="black" stroke-dasharray="1,5" d="M451.81,-150.6C391.21,-138.94 292.38,-119.94 222.64,-106.53"/>
<polygon fill="black" stroke="black" points="223.05,-103.04 212.57,-104.59 221.73,-109.91 223.05,-103.04"/>
</g>
<!-- :common:domain -->
<g id="node4" class="node">
<title>:common:domain</title>
<ellipse fill="#7f52ff" stroke="black" cx="801.91" cy="-18" rx="79.34" ry="18"/>
<text text-anchor="middle" x="801.91" y="-13.8" font-family="Times,serif" font-size="14.00">:common:domain</text>
</g>
<!-- :app&#45;common:ui&#45;&gt;:common:domain -->
<g id="edge2" class="edge">
<title>:app&#45;common:ui&#45;&gt;:common:domain</title>
<path fill="none" stroke="black" stroke-dasharray="1,5" d="M451.62,-155.43C378.55,-145.9 262.63,-122.39 307.91,-72 334.49,-42.41 579.2,-27.95 713.93,-22.17"/>
<polygon fill="black" stroke="black" points="714.38,-25.66 724.23,-21.74 714.09,-18.66 714.38,-25.66"/>
</g>
<!-- :common:navigation -->
<g id="node5" class="node">
<title>:common:navigation</title>
<ellipse fill="#7f52ff" stroke="black" cx="407.91" cy="-90" rx="90.93" ry="18"/>
<text text-anchor="middle" x="407.91" y="-85.8" font-family="Times,serif" font-size="14.00">:common:navigation</text>
</g>
<!-- :app&#45;common:ui&#45;&gt;:common:navigation -->
<g id="edge3" class="edge">
<title>:app&#45;common:ui&#45;&gt;:common:navigation</title>
<path fill="none" stroke="black" stroke-dasharray="1,5" d="M481.93,-143.88C469.08,-134.69 453.07,-123.26 439.24,-113.38"/>
<polygon fill="black" stroke="black" points="441.13,-110.43 430.96,-107.47 437.06,-116.13 441.13,-110.43"/>
</g>
<!-- :common:resources -->
<g id="node6" class="node">
<title>:common:resources</title>
<ellipse fill="#7f52ff" stroke="black" cx="603.91" cy="-90" rx="86.82" ry="18"/>
<text text-anchor="middle" x="603.91" y="-85.8" font-family="Times,serif" font-size="14.00">:common:resources</text>
</g>
<!-- :app&#45;common:ui&#45;&gt;:common:resources -->
<g id="edge4" class="edge">
<title>:app&#45;common:ui&#45;&gt;:common:resources</title>
<path fill="none" stroke="black" stroke-dasharray="1,5" d="M529.88,-143.88C542.74,-134.69 558.74,-123.26 572.57,-113.38"/>
<polygon fill="black" stroke="black" points="574.75,-116.13 580.86,-107.47 570.68,-110.43 574.75,-116.13"/>
</g>
<!-- :common:viewmodel -->
<g id="node7" class="node">
<title>:common:viewmodel</title>
<ellipse fill="#7f52ff" stroke="black" cx="801.91" cy="-90" rx="93.22" ry="18"/>
<text text-anchor="middle" x="801.91" y="-85.8" font-family="Times,serif" font-size="14.00">:common:viewmodel</text>
</g>
<!-- :app&#45;common:ui&#45;&gt;:common:viewmodel -->
<g id="edge5" class="edge">
<title>:app&#45;common:ui&#45;&gt;:common:viewmodel</title>
<path fill="none" stroke="black" stroke-dasharray="1,5" d="M560.2,-148.16C609.59,-136.48 682.63,-119.21 735.49,-106.71"/>
<polygon fill="black" stroke="black" points="736.52,-110.06 745.44,-104.35 734.9,-103.25 736.52,-110.06"/>
</g>
<!-- :common:ui -->
<g id="node8" class="node">
<title>:common:ui</title>
<ellipse fill="#7f52ff" stroke="black" cx="970.91" cy="-90" rx="57.93" ry="18"/>
<text text-anchor="middle" x="970.91" y="-85.8" font-family="Times,serif" font-size="14.00">:common:ui</text>
</g>
<!-- :app&#45;common:ui&#45;&gt;:common:ui -->
<g id="edge6" class="edge">
<title>:app&#45;common:ui&#45;&gt;:common:ui</title>
<path fill="none" stroke="black" stroke-dasharray="1,5" d="M559.98,-155.81C636.84,-147.98 781.9,-131.52 903.91,-108 908.86,-107.04 914,-105.94 919.12,-104.77"/>
<polygon fill="black" stroke="black" points="919.98,-108.17 928.9,-102.45 918.36,-101.36 919.98,-108.17"/>
</g>
<!-- :common:designsystem&#45;resources -->
<g id="node3" class="node">
<title>:common:designsystem&#45;resources</title>
<ellipse fill="#7f52ff" stroke="black" cx="141.91" cy="-18" rx="141.81" ry="18"/>
<text text-anchor="middle" x="141.91" y="-13.8" font-family="Times,serif" font-size="14.00">:common:designsystem&#45;resources</text>
</g>
<!-- :app&#45;common:designsystem&#45;&gt;:common:designsystem&#45;resources -->
<g id="edge7" class="edge">
<title>:app&#45;common:designsystem&#45;&gt;:common:designsystem&#45;resources</title>
<path fill="none" stroke="black" d="M141.91,-71.7C141.91,-63.98 141.91,-54.71 141.91,-46.11"/>
<polygon fill="black" stroke="black" points="145.41,-46.1 141.91,-36.1 138.41,-46.1 145.41,-46.1"/>
</g>
<!-- :common:viewmodel&#45;&gt;:common:domain -->
<g id="edge8" class="edge">
<title>:common:viewmodel&#45;&gt;:common:domain</title>
<path fill="none" stroke="black" stroke-dasharray="1,5" d="M801.91,-71.7C801.91,-63.98 801.91,-54.71 801.91,-46.11"/>
<polygon fill="black" stroke="black" points="805.41,-46.1 801.91,-36.1 798.41,-46.1 805.41,-46.1"/>
</g>
<!-- :common:ui&#45;&gt;:common:domain -->
<g id="edge9" class="edge">
<title>:common:ui&#45;&gt;:common:domain</title>
<path fill="none" stroke="black" stroke-dasharray="1,5" d="M937.52,-75.17C911.76,-64.5 875.86,-49.63 847.47,-37.87"/>
<polygon fill="black" stroke="black" points="848.73,-34.61 838.15,-34.01 846.05,-41.07 848.73,-34.61"/>
</g>
</g>
</svg>
