<svg width="3492px" height="531px"
 viewBox="0.00 0.00 2514.49 382.00" xmlns="http://www.w3.org/2000/svg" xmlns:xlink="http://www.w3.org/1999/xlink">
<g id="graph0" class="graph" transform="scale(1.0007919936640506 1.0007919936640506) rotate(0.0) translate(4.0 378.0)">
<polygon fill="white" stroke="transparent" points="-4,4 -4,-378 2510.49,-378 2510.49,4 -4,4"/>
<text text-anchor="middle" x="1253.24" y="-338.5" font-family="Times,serif" font-size="35.00">app&#45;android</text>
<!-- :app&#45;android -->
<g id="node1" class="node">
<title>:app&#45;android</title>
<polygon fill="#66bb6a" stroke="black" points="1013.72,-324 926.65,-324 926.65,-288 1013.72,-288 1013.72,-324"/>
<text text-anchor="middle" x="970.18" y="-301.8" font-family="Times,serif" font-size="14.00">:app&#45;android</text>
</g>
<!-- :app&#45;common:designsystem -->
<g id="node2" class="node">
<title>:app&#45;common:designsystem</title>
<ellipse fill="#7f52ff" stroke="black" cx="593.18" cy="-90" rx="119.28" ry="18"/>
<text text-anchor="middle" x="593.18" y="-85.8" font-family="Times,serif" font-size="14.00">:app&#45;common:designsystem</text>
</g>
<!-- :app&#45;android&#45;&gt;:app&#45;common:designsystem -->
<g id="edge1" class="edge">
<title>:app&#45;android&#45;&gt;:app&#45;common:designsystem</title>
<path fill="none" stroke="black" stroke-dasharray="1,5" d="M926.6,-304.22C744.28,-300.75 50.75,-285.38 19.18,-252 -5.6,-225.8 34.87,-152.58 46.18,-144 120.64,-87.53 372.28,-118.15 465.18,-108 476.13,-106.8 487.58,-105.44 498.95,-104.02"/>
<polygon fill="black" stroke="black" points="499.43,-107.49 508.91,-102.76 498.55,-100.54 499.43,-107.49"/>
</g>
<!-- :app&#45;common:ui -->
<g id="node4" class="node">
<title>:app&#45;common:ui</title>
<ellipse fill="#7f52ff" stroke="black" cx="880.18" cy="-162" rx="74.74" ry="18"/>
<text text-anchor="middle" x="880.18" y="-157.8" font-family="Times,serif" font-size="14.00">:app&#45;common:ui</text>
</g>
<!-- :app&#45;android&#45;&gt;:app&#45;common:ui -->
<g id="edge2" class="edge">
<title>:app&#45;android&#45;&gt;:app&#45;common:ui</title>
<path fill="none" stroke="black" stroke-dasharray="1,5" d="M926.36,-290.63C908.42,-282.34 889.48,-269.91 879.18,-252 868.45,-233.32 869.7,-208.59 873.07,-189.94"/>
<polygon fill="black" stroke="black" points="876.52,-190.53 875.16,-180.02 869.67,-189.08 876.52,-190.53"/>
</g>
<!-- :common:android -->
<g id="node5" class="node">
<title>:common:android</title>
<ellipse fill="#66bb6a" stroke="black" cx="376.18" cy="-90" rx="79.9" ry="18"/>
<text text-anchor="middle" x="376.18" y="-85.8" font-family="Times,serif" font-size="14.00">:common:android</text>
</g>
<!-- :app&#45;android&#45;&gt;:common:android -->
<g id="edge11" class="edge">
<title>:app&#45;android&#45;&gt;:common:android</title>
<path fill="none" stroke="black" stroke-dasharray="1,5" d="M926.41,-304.24C742.46,-300.86 40.14,-285.77 8.18,-252 -9.17,-233.67 6.1,-158.63 21.18,-144 57.99,-108.3 194.2,-96.59 286.78,-92.79"/>
<polygon fill="black" stroke="black" points="287.15,-96.28 297,-92.39 286.88,-89.28 287.15,-96.28"/>
</g>
<!-- :common:domain -->
<g id="node6" class="node">
<title>:common:domain</title>
<ellipse fill="#7f52ff" stroke="black" cx="1800.18" cy="-18" rx="79.34" ry="18"/>
<text text-anchor="middle" x="1800.18" y="-13.8" font-family="Times,serif" font-size="14.00">:common:domain</text>
</g>
<!-- :app&#45;android&#45;&gt;:common:domain -->
<g id="edge13" class="edge">
<title>:app&#45;android&#45;&gt;:common:domain</title>
<path fill="none" stroke="black" stroke-dasharray="1,5" d="M1014.06,-304.19C1221.58,-300.19 2099.58,-281.65 2218.18,-252 2354.33,-217.96 2427.74,-228.79 2499.18,-108 2507.33,-94.23 2510.06,-83.73 2499.18,-72 2458.55,-28.17 2068.71,-20.4 1889.5,-19.15"/>
<polygon fill="black" stroke="black" points="1889.32,-15.65 1879.3,-19.09 1889.28,-22.65 1889.32,-15.65"/>
</g>
<!-- :common:navigation -->
<g id="node7" class="node">
<title>:common:navigation</title>
<ellipse fill="#7f52ff" stroke="black" cx="1401.18" cy="-90" rx="90.93" ry="18"/>
<text text-anchor="middle" x="1401.18" y="-85.8" font-family="Times,serif" font-size="14.00">:common:navigation</text>
</g>
<!-- :app&#45;android&#45;&gt;:common:navigation -->
<g id="edge14" class="edge">
<title>:app&#45;android&#45;&gt;:common:navigation</title>
<path fill="none" stroke="black" stroke-dasharray="1,5" d="M1013.93,-305.33C1168.08,-306.03 1679.35,-304.37 1728.18,-252 1807.1,-167.37 1606.44,-121.5 1485.33,-102.19"/>
<polygon fill="black" stroke="black" points="1485.74,-98.71 1475.32,-100.63 1484.66,-105.63 1485.74,-98.71"/>
</g>
<!-- :common:resources -->
<g id="node8" class="node">
<title>:common:resources</title>
<ellipse fill="#7f52ff" stroke="black" cx="1097.18" cy="-90" rx="86.82" ry="18"/>
<text text-anchor="middle" x="1097.18" y="-85.8" font-family="Times,serif" font-size="14.00">:common:resources</text>
</g>
<!-- :app&#45;android&#45;&gt;:common:resources -->
<g id="edge15" class="edge">
<title>:app&#45;android&#45;&gt;:common:resources</title>
<path fill="none" stroke="black" stroke-dasharray="1,5" d="M1013.93,-305.21C1164.45,-305.46 1654.31,-302.4 1701.18,-252 1780.17,-167.08 1705.31,-187.79 1560.18,-144 1525.2,-133.44 1308.98,-111.39 1184.77,-99.32"/>
<polygon fill="black" stroke="black" points="1184.81,-95.81 1174.52,-98.33 1184.13,-102.78 1184.81,-95.81"/>
</g>
<!-- :common:viewmodel -->
<g id="node9" class="node">
<title>:common:viewmodel</title>
<ellipse fill="#7f52ff" stroke="black" cx="861.18" cy="-90" rx="93.22" ry="18"/>
<text text-anchor="middle" x="861.18" y="-85.8" font-family="Times,serif" font-size="14.00">:common:viewmodel</text>
</g>
<!-- :app&#45;android&#45;&gt;:common:viewmodel -->
<g id="edge17" class="edge">
<title>:app&#45;android&#45;&gt;:common:viewmodel</title>
<path fill="none" stroke="black" stroke-dasharray="1,5" d="M926.35,-304.16C746.22,-300.49 70.97,-284.59 40.18,-252 -17.13,-191.32 80.31,-163.45 131.18,-144 253.88,-97.09 590.37,-119.92 721.18,-108 739.18,-106.36 758.45,-104.25 776.75,-102.08"/>
<polygon fill="black" stroke="black" points="777.29,-105.54 786.8,-100.87 776.45,-98.59 777.29,-105.54"/>
</g>
<!-- :common:ui -->
<g id="node10" class="node">
<title>:common:ui</title>
<ellipse fill="#7f52ff" stroke="black" cx="1686.18" cy="-90" rx="57.93" ry="18"/>
<text text-anchor="middle" x="1686.18" y="-85.8" font-family="Times,serif" font-size="14.00">:common:ui</text>
</g>
<!-- :app&#45;android&#45;&gt;:common:ui -->
<g id="edge16" class="edge">
<title>:app&#45;android&#45;&gt;:common:ui</title>
<path fill="none" stroke="black" stroke-dasharray="1,5" d="M1013.73,-305.16C1157.11,-305.22 1613.08,-301.42 1750.18,-252 1811.72,-229.82 1888.68,-196.89 1850.18,-144 1828.07,-113.61 1788.18,-100.28 1753.27,-94.59"/>
<polygon fill="black" stroke="black" points="1753.5,-91.09 1743.11,-93.12 1752.5,-98.02 1753.5,-91.09"/>
</g>
<!-- :app&#45;feature:about -->
<g id="node11" class="node">
<title>:app&#45;feature:about</title>
<ellipse fill="#7f52ff" stroke="black" cx="970.18" cy="-234" rx="81.64" ry="18"/>
<text text-anchor="middle" x="970.18" y="-229.8" font-family="Times,serif" font-size="14.00">:app&#45;feature:about</text>
</g>
<!-- :app&#45;android&#45;&gt;:app&#45;feature:about -->
<g id="edge3" class="edge">
<title>:app&#45;android&#45;&gt;:app&#45;feature:about</title>
<path fill="none" stroke="black" stroke-dasharray="1,5" d="M970.18,-287.7C970.18,-279.98 970.18,-270.71 970.18,-262.11"/>
<polygon fill="black" stroke="black" points="973.68,-262.1 970.18,-252.1 966.68,-262.1 973.68,-262.1"/>
</g>
<!-- :app&#45;feature:addtask -->
<g id="node12" class="node">
<title>:app&#45;feature:addtask</title>
<ellipse fill="#7f52ff" stroke="black" cx="1380.18" cy="-234" rx="89.72" ry="18"/>
<text text-anchor="middle" x="1380.18" y="-229.8" font-family="Times,serif" font-size="14.00">:app&#45;feature:addtask</text>
</g>
<!-- :app&#45;android&#45;&gt;:app&#45;feature:addtask -->
<g id="edge4" class="edge">
<title>:app&#45;android&#45;&gt;:app&#45;feature:addtask</title>
<path fill="none" stroke="black" stroke-dasharray="1,5" d="M1013.96,-297.56C1074.17,-287.32 1185.9,-268.3 1281.18,-252 1288.74,-250.71 1296.62,-249.36 1304.48,-248.01"/>
<polygon fill="black" stroke="black" points="1305.15,-251.45 1314.42,-246.3 1303.97,-244.55 1305.15,-251.45"/>
</g>
<!-- :app&#45;feature:addtasklist -->
<g id="node13" class="node">
<title>:app&#45;feature:addtasklist</title>
<ellipse fill="#7f52ff" stroke="black" cx="1590.18" cy="-234" rx="101.84" ry="18"/>
<text text-anchor="middle" x="1590.18" y="-229.8" font-family="Times,serif" font-size="14.00">:app&#45;feature:addtasklist</text>
</g>
<!-- :app&#45;android&#45;&gt;:app&#45;feature:addtasklist -->
<g id="edge5" class="edge">
<title>:app&#45;android&#45;&gt;:app&#45;feature:addtasklist</title>
<path fill="none" stroke="black" stroke-dasharray="1,5" d="M1013.84,-301.17C1101.96,-293.28 1307.35,-274.09 1479.18,-252 1488.37,-250.82 1497.97,-249.49 1507.51,-248.11"/>
<polygon fill="black" stroke="black" points="1508.02,-251.57 1517.41,-246.66 1507.01,-244.65 1508.02,-251.57"/>
</g>
<!-- :app&#45;feature:edittask -->
<g id="node14" class="node">
<title>:app&#45;feature:edittask</title>
<ellipse fill="#7f52ff" stroke="black" cx="321.18" cy="-234" rx="90.3" ry="18"/>
<text text-anchor="middle" x="321.18" y="-229.8" font-family="Times,serif" font-size="14.00">:app&#45;feature:edittask</text>
</g>
<!-- :app&#45;android&#45;&gt;:app&#45;feature:edittask -->
<g id="edge6" class="edge">
<title>:app&#45;android&#45;&gt;:app&#45;feature:edittask</title>
<path fill="none" stroke="black" stroke-dasharray="1,5" d="M926.65,-301.87C833.62,-294.95 608.65,-276.95 421.18,-252 412.9,-250.9 404.26,-249.62 395.67,-248.27"/>
<polygon fill="black" stroke="black" points="396.06,-244.79 385.63,-246.66 394.95,-251.7 396.06,-244.79"/>
</g>
<!-- :app&#45;feature:edittasklist -->
<g id="node15" class="node">
<title>:app&#45;feature:edittasklist</title>
<ellipse fill="#7f52ff" stroke="black" cx="532.18" cy="-234" rx="102.42" ry="18"/>
<text text-anchor="middle" x="532.18" y="-229.8" font-family="Times,serif" font-size="14.00">:app&#45;feature:edittasklist</text>
</g>
<!-- :app&#45;android&#45;&gt;:app&#45;feature:edittasklist -->
<g id="edge7" class="edge">
<title>:app&#45;android&#45;&gt;:app&#45;feature:edittasklist</title>
<path fill="none" stroke="black" stroke-dasharray="1,5" d="M926.58,-298.03C854.14,-286.45 707.8,-263.07 615.18,-248.26"/>
<polygon fill="black" stroke="black" points="615.7,-244.8 605.27,-246.68 614.59,-251.72 615.7,-244.8"/>
</g>
<!-- :app&#45;feature:home -->
<g id="node16" class="node">
<title>:app&#45;feature:home</title>
<ellipse fill="#7f52ff" stroke="black" cx="131.18" cy="-234" rx="81.64" ry="18"/>
<text text-anchor="middle" x="131.18" y="-229.8" font-family="Times,serif" font-size="14.00">:app&#45;feature:home</text>
</g>
<!-- :app&#45;android&#45;&gt;:app&#45;feature:home -->
<g id="edge8" class="edge">
<title>:app&#45;android&#45;&gt;:app&#45;feature:home</title>
<path fill="none" stroke="black" stroke-dasharray="1,5" d="M926.59,-303.65C811.22,-299.69 488.51,-286.2 222.18,-252 214.56,-251.02 206.61,-249.82 198.72,-248.5"/>
<polygon fill="black" stroke="black" points="199.24,-245.04 188.79,-246.79 198.05,-251.94 199.24,-245.04"/>
</g>
<!-- :app&#45;feature:settings -->
<g id="node17" class="node">
<title>:app&#45;feature:settings</title>
<ellipse fill="#7f52ff" stroke="black" cx="742.18" cy="-234" rx="89.74" ry="18"/>
<text text-anchor="middle" x="742.18" y="-229.8" font-family="Times,serif" font-size="14.00">:app&#45;feature:settings</text>
</g>
<!-- :app&#45;android&#45;&gt;:app&#45;feature:settings -->
<g id="edge9" class="edge">
<title>:app&#45;android&#45;&gt;:app&#45;feature:settings</title>
<path fill="none" stroke="black" stroke-dasharray="1,5" d="M926.49,-291.59C890.26,-280.46 838.47,-264.56 799.01,-252.45"/>
<polygon fill="black" stroke="black" points="799.85,-249.04 789.26,-249.45 797.79,-255.73 799.85,-249.04"/>
</g>
<!-- :app&#45;feature:taskdetails -->
<g id="node18" class="node">
<title>:app&#45;feature:taskdetails</title>
<ellipse fill="#7f52ff" stroke="black" cx="1171.18" cy="-234" rx="101.25" ry="18"/>
<text text-anchor="middle" x="1171.18" y="-229.8" font-family="Times,serif" font-size="14.00">:app&#45;feature:taskdetails</text>
</g>
<!-- :app&#45;android&#45;&gt;:app&#45;feature:taskdetails -->
<g id="edge10" class="edge">
<title>:app&#45;android&#45;&gt;:app&#45;feature:taskdetails</title>
<path fill="none" stroke="black" stroke-dasharray="1,5" d="M1013.8,-289.81C1044.25,-279.21 1085.08,-264.99 1117.53,-253.69"/>
<polygon fill="black" stroke="black" points="1119.02,-256.87 1127.31,-250.28 1116.71,-250.26 1119.02,-256.87"/>
</g>
<!-- :common:core -->
<g id="node19" class="node">
<title>:common:core</title>
<ellipse fill="#7f52ff" stroke="black" cx="2142.18" cy="-234" rx="66.63" ry="18"/>
<text text-anchor="middle" x="2142.18" y="-229.8" font-family="Times,serif" font-size="14.00">:common:core</text>
</g>
<!-- :app&#45;android&#45;&gt;:common:core -->
<g id="edge12" class="edge">
<title>:app&#45;android&#45;&gt;:common:core</title>
<path fill="none" stroke="black" stroke-dasharray="1,5" d="M1013.92,-304.23C1158.31,-301.4 1632.82,-289.63 2023.18,-252 2040.55,-250.33 2059.26,-247.93 2076.59,-245.47"/>
<polygon fill="black" stroke="black" points="2077.22,-248.91 2086.61,-244.01 2076.21,-241.99 2077.22,-248.91"/>
</g>
<!-- :common:designsystem&#45;resources -->
<g id="node3" class="node">
<title>:common:designsystem&#45;resources</title>
<ellipse fill="#7f52ff" stroke="black" cx="593.18" cy="-18" rx="141.81" ry="18"/>
<text text-anchor="middle" x="593.18" y="-13.8" font-family="Times,serif" font-size="14.00">:common:designsystem&#45;resources</text>
</g>
<!-- :app&#45;common:designsystem&#45;&gt;:common:designsystem&#45;resources -->
<g id="edge18" class="edge">
<title>:app&#45;common:designsystem&#45;&gt;:common:designsystem&#45;resources</title>
<path fill="none" stroke="black" d="M593.18,-71.7C593.18,-63.98 593.18,-54.71 593.18,-46.11"/>
<polygon fill="black" stroke="black" points="596.68,-46.1 593.18,-36.1 589.68,-46.1 596.68,-46.1"/>
</g>
<!-- :app&#45;common:ui&#45;&gt;:app&#45;common:designsystem -->
<g id="edge20" class="edge">
<title>:app&#45;common:ui&#45;&gt;:app&#45;common:designsystem</title>
<path fill="none" stroke="black" stroke-dasharray="1,5" d="M829.53,-148.65C783.2,-137.35 714.23,-120.52 662.73,-107.96"/>
<polygon fill="black" stroke="black" points="663.55,-104.56 653.01,-105.59 661.89,-111.36 663.55,-104.56"/>
</g>
<!-- :app&#45;common:ui&#45;&gt;:common:android -->
<g id="edge19" class="edge">
<title>:app&#45;common:ui&#45;&gt;:common:android</title>
<path fill="none" stroke="black" stroke-dasharray="1,5" d="M813.52,-153.77C731.38,-144.57 587.66,-127.5 465.18,-108 458.4,-106.92 451.34,-105.71 444.3,-104.46"/>
<polygon fill="black" stroke="black" points="444.49,-100.93 434.02,-102.58 443.23,-107.82 444.49,-100.93"/>
</g>
<!-- :app&#45;common:ui&#45;&gt;:common:domain -->
<g id="edge21" class="edge">
<title>:app&#45;common:ui&#45;&gt;:common:domain</title>
<path fill="none" stroke="black" stroke-dasharray="1,5" d="M907.98,-145.07C924.54,-135.14 945.67,-121.69 963.18,-108 981.51,-93.68 979.87,-81.32 1001.18,-72 1064.92,-44.12 1517.48,-27.44 1711.84,-21.49"/>
<polygon fill="black" stroke="black" points="1712.14,-24.98 1722.03,-21.18 1711.92,-17.98 1712.14,-24.98"/>
</g>
<!-- :app&#45;common:ui&#45;&gt;:common:navigation -->
<g id="edge22" class="edge">
<title>:app&#45;common:ui&#45;&gt;:common:navigation</title>
<path fill="none" stroke="black" stroke-dasharray="1,5" d="M935.63,-149.82C946.72,-147.75 958.3,-145.7 969.18,-144 1087.49,-125.47 1224.87,-109.57 1312.37,-100.15"/>
<polygon fill="black" stroke="black" points="1312.96,-103.6 1322.53,-99.06 1312.21,-96.64 1312.96,-103.6"/>
</g>
<!-- :app&#45;common:ui&#45;&gt;:common:resources -->
<g id="edge23" class="edge">
<title>:app&#45;common:ui&#45;&gt;:common:resources</title>
<path fill="none" stroke="black" stroke-dasharray="1,5" d="M923.06,-147.17C957.3,-136.12 1005.51,-120.57 1042.52,-108.63"/>
<polygon fill="black" stroke="black" points="1043.72,-111.93 1052.16,-105.52 1041.57,-105.26 1043.72,-111.93"/>
</g>
<!-- :app&#45;common:ui&#45;&gt;:common:viewmodel -->
<g id="edge24" class="edge">
<title>:app&#45;common:ui&#45;&gt;:common:viewmodel</title>
<path fill="none" stroke="black" stroke-dasharray="1,5" d="M875.49,-143.7C873.37,-135.9 870.82,-126.51 868.47,-117.83"/>
<polygon fill="black" stroke="black" points="871.82,-116.84 865.83,-108.1 865.07,-118.67 871.82,-116.84"/>
</g>
<!-- :app&#45;common:ui&#45;&gt;:common:ui -->
<g id="edge25" class="edge">
<title>:app&#45;common:ui&#45;&gt;:common:ui</title>
<path fill="none" stroke="black" stroke-dasharray="1,5" d="M934.61,-149.52C946,-147.43 957.95,-145.45 969.18,-144 1204.23,-113.71 1264.95,-126.84 1501.18,-108 1541.27,-104.8 1586.2,-100.69 1621.74,-97.31"/>
<polygon fill="black" stroke="black" points="1622.35,-100.76 1631.98,-96.33 1621.69,-93.79 1622.35,-100.76"/>
</g>
<!-- :common:viewmodel&#45;&gt;:common:domain -->
<g id="edge26" class="edge">
<title>:common:viewmodel&#45;&gt;:common:domain</title>
<path fill="none" stroke="black" stroke-dasharray="1,5" d="M927.83,-77.42C941.17,-75.38 955.1,-73.45 968.18,-72 1238.35,-42 1559.91,-27.49 1712.04,-21.89"/>
<polygon fill="black" stroke="black" points="1712.39,-25.38 1722.26,-21.52 1712.14,-18.39 1712.39,-25.38"/>
</g>
<!-- :common:ui&#45;&gt;:common:domain -->
<g id="edge27" class="edge">
<title>:common:ui&#45;&gt;:common:domain</title>
<path fill="none" stroke="black" stroke-dasharray="1,5" d="M1711.2,-73.64C1727.05,-63.91 1747.78,-51.18 1765.25,-40.45"/>
<polygon fill="black" stroke="black" points="1767.35,-43.27 1774.04,-35.06 1763.68,-37.31 1767.35,-43.27"/>
</g>
<!-- :app&#45;feature:about&#45;&gt;:app&#45;common:designsystem -->
<g id="edge28" class="edge">
<title>:app&#45;feature:about&#45;&gt;:app&#45;common:designsystem</title>
<path fill="none" stroke="black" stroke-dasharray="1,5" d="M917.25,-220.17C879.87,-210.54 828.86,-196.27 785.18,-180 731.7,-160.08 672.43,-131.57 634.09,-112.22"/>
<polygon fill="black" stroke="black" points="635.31,-108.92 624.81,-107.51 632.14,-115.16 635.31,-108.92"/>
</g>
<!-- :app&#45;feature:about&#45;&gt;:app&#45;common:ui -->
<g id="edge29" class="edge">
<title>:app&#45;feature:about&#45;&gt;:app&#45;common:ui</title>
<path fill="none" stroke="black" stroke-dasharray="1,5" d="M948.85,-216.41C937.09,-207.26 922.3,-195.76 909.46,-185.77"/>
<polygon fill="black" stroke="black" points="911.4,-182.85 901.36,-179.47 907.1,-188.37 911.4,-182.85"/>
</g>
<!-- :app&#45;feature:about&#45;&gt;:common:navigation -->
<g id="edge30" class="edge">
<title>:app&#45;feature:about&#45;&gt;:common:navigation</title>
<path fill="none" stroke="black" stroke-dasharray="1,5" d="M1028.82,-221.41C1039.56,-219.47 1050.69,-217.58 1061.18,-216 1131.08,-205.5 1323.6,-226.09 1377.18,-180 1394.77,-164.87 1400.13,-138.34 1401.48,-118.17"/>
<polygon fill="black" stroke="black" points="1404.98,-118.14 1401.86,-108.02 1397.99,-117.88 1404.98,-118.14"/>
</g>
<!-- :app&#45;feature:about&#45;&gt;:common:resources -->
<g id="edge31" class="edge">
<title>:app&#45;feature:about&#45;&gt;:common:resources</title>
<path fill="none" stroke="black" stroke-dasharray="1,5" d="M985.25,-216.15C1007.59,-191.17 1049.63,-144.17 1075.34,-115.42"/>
<polygon fill="black" stroke="black" points="1078.08,-117.61 1082.14,-107.82 1072.86,-112.95 1078.08,-117.61"/>
</g>
<!-- :app&#45;feature:about&#45;&gt;:common:viewmodel -->
<g id="edge33" class="edge">
<title>:app&#45;feature:about&#45;&gt;:common:viewmodel</title>
<path fill="none" stroke="black" stroke-dasharray="1,5" d="M891,-229.27C856.08,-223.19 818.08,-209.56 796.18,-180 786.66,-167.14 789.32,-158.45 796.18,-144 802.06,-131.63 812.39,-121.2 823.1,-112.95"/>
<polygon fill="black" stroke="black" points="825.22,-115.74 831.31,-107.07 821.14,-110.05 825.22,-115.74"/>
</g>
<!-- :app&#45;feature:about&#45;&gt;:common:ui -->
<g id="edge32" class="edge">
<title>:app&#45;feature:about&#45;&gt;:common:ui</title>
<path fill="none" stroke="black" stroke-dasharray="1,5" d="M1028.81,-221.34C1039.55,-219.41 1050.69,-217.53 1061.18,-216 1211.54,-194.03 1252.38,-210.8 1401.18,-180 1488.09,-162.01 1586.24,-128.27 1641.71,-107.9"/>
<polygon fill="black" stroke="black" points="1643.06,-111.13 1651.23,-104.38 1640.64,-104.57 1643.06,-111.13"/>
</g>
<!-- :app&#45;feature:addtask&#45;&gt;:app&#45;common:designsystem -->
<g id="edge34" class="edge">
<title>:app&#45;feature:addtask&#45;&gt;:app&#45;common:designsystem</title>
<path fill="none" stroke="black" stroke-dasharray="1,5" d="M1330.11,-218.96C1259.81,-199.68 1127.64,-165.03 1013.18,-144 954.25,-133.17 799.98,-114.63 695.74,-102.6"/>
<polygon fill="black" stroke="black" points="695.83,-99.09 685.5,-101.42 695.03,-106.04 695.83,-99.09"/>
</g>
<!-- :app&#45;feature:addtask&#45;&gt;:app&#45;common:ui -->
<g id="edge35" class="edge">
<title>:app&#45;feature:addtask&#45;&gt;:app&#45;common:ui</title>
<path fill="none" stroke="black" stroke-dasharray="1,5" d="M1315.27,-221.48C1303.92,-219.58 1292.22,-217.68 1281.18,-216 1168,-198.81 1036.35,-182.02 955.65,-172.09"/>
<polygon fill="black" stroke="black" points="955.93,-168.6 945.58,-170.86 955.08,-175.55 955.93,-168.6"/>
</g>
<!-- :app&#45;feature:addtask&#45;&gt;:common:domain -->
<g id="edge36" class="edge">
<title>:app&#45;feature:addtask&#45;&gt;:common:domain</title>
<path fill="none" stroke="black" stroke-dasharray="1,5" d="M1443.98,-221.29C1455.66,-219.36 1467.77,-217.5 1479.18,-216 1522.55,-210.29 1841.7,-212.31 1871.18,-180 1903.54,-144.54 1892.7,-114.91 1871.18,-72 1864.64,-58.94 1853.18,-48.28 1841.35,-40.03"/>
<polygon fill="black" stroke="black" points="1843.04,-36.95 1832.74,-34.45 1839.23,-42.83 1843.04,-36.95"/>
</g>
<!-- :app&#45;feature:addtask&#45;&gt;:common:navigation -->
<g id="edge37" class="edge">
<title>:app&#45;feature:addtask&#45;&gt;:common:navigation</title>
<path fill="none" stroke="black" stroke-dasharray="1,5" d="M1446.29,-221.7C1509.02,-210.31 1595.17,-192.64 1605.18,-180 1641.88,-133.66 1561.87,-110.92 1491.54,-100.12"/>
<polygon fill="black" stroke="black" points="1491.65,-96.6 1481.24,-98.62 1490.63,-103.53 1491.65,-96.6"/>
</g>
<!-- :app&#45;feature:addtask&#45;&gt;:common:resources -->
<g id="edge38" class="edge">
<title>:app&#45;feature:addtask&#45;&gt;:common:resources</title>
<path fill="none" stroke="black" stroke-dasharray="1,5" d="M1369.57,-215.83C1356.14,-195.57 1331.14,-162.34 1301.18,-144 1265.09,-121.9 1219.97,-108.95 1181.34,-101.39"/>
<polygon fill="black" stroke="black" points="1181.63,-97.88 1171.16,-99.49 1180.35,-104.77 1181.63,-97.88"/>
</g>
<!-- :app&#45;feature:addtask&#45;&gt;:common:viewmodel -->
<g id="edge40" class="edge">
<title>:app&#45;feature:addtask&#45;&gt;:common:viewmodel</title>
<path fill="none" stroke="black" stroke-dasharray="1,5" d="M1353.43,-216.64C1337.75,-206.66 1317.82,-193.31 1301.18,-180 1283.02,-165.47 1284.18,-154.01 1263.18,-144 1256.09,-140.62 1063.35,-116.17 947.36,-101.69"/>
<polygon fill="black" stroke="black" points="947.78,-98.22 937.43,-100.45 946.92,-105.16 947.78,-98.22"/>
</g>
<!-- :app&#45;feature:addtask&#45;&gt;:common:ui -->
<g id="edge39" class="edge">
<title>:app&#45;feature:addtask&#45;&gt;:common:ui</title>
<path fill="none" stroke="black" stroke-dasharray="1,5" d="M1444.54,-221.41C1456.06,-219.49 1467.96,-217.6 1479.18,-216 1549.15,-206.02 1748.12,-232.73 1795.18,-180 1805.84,-168.06 1803.67,-157.56 1795.18,-144 1783.19,-124.83 1762.05,-112.41 1741.56,-104.46"/>
<polygon fill="black" stroke="black" points="1742.51,-101.08 1731.92,-101.01 1740.15,-107.67 1742.51,-101.08"/>
</g>
<!-- :app&#45;feature:addtasklist&#45;&gt;:app&#45;common:designsystem -->
<g id="edge41" class="edge">
<title>:app&#45;feature:addtasklist&#45;&gt;:app&#45;common:designsystem</title>
<path fill="none" stroke="black" stroke-dasharray="1,5" d="M1527.54,-219.81C1435.68,-200.84 1258.9,-165.76 1107.18,-144 1102.17,-143.28 848.08,-117.16 699.08,-101.87"/>
<polygon fill="black" stroke="black" points="699.28,-98.37 688.98,-100.83 698.57,-105.33 699.28,-98.37"/>
</g>
<!-- :app&#45;feature:addtasklist&#45;&gt;:app&#45;common:ui -->
<g id="edge42" class="edge">
<title>:app&#45;feature:addtasklist&#45;&gt;:app&#45;common:ui</title>
<path fill="none" stroke="black" stroke-dasharray="1,5" d="M1518.03,-221.27C1505.11,-219.36 1491.76,-217.52 1479.18,-216 1294.56,-193.72 1076.86,-176.78 961.5,-168.54"/>
<polygon fill="black" stroke="black" points="961.56,-165.04 951.34,-167.82 961.06,-172.02 961.56,-165.04"/>
</g>
<!-- :app&#45;feature:addtasklist&#45;&gt;:common:domain -->
<g id="edge43" class="edge">
<title>:app&#45;feature:addtasklist&#45;&gt;:common:domain</title>
<path fill="none" stroke="black" stroke-dasharray="1,5" d="M1683.53,-226.86C1794.02,-218.62 1965.59,-202.39 1985.18,-180 2016.79,-143.87 2014.08,-110.33 1985.18,-72 1971.37,-53.67 1919.08,-39.75 1873.6,-30.78"/>
<polygon fill="black" stroke="black" points="1874.2,-27.33 1863.72,-28.89 1872.88,-34.21 1874.2,-27.33"/>
</g>
<!-- :app&#45;feature:addtasklist&#45;&gt;:common:navigation -->
<g id="edge44" class="edge">
<title>:app&#45;feature:addtasklist&#45;&gt;:common:navigation</title>
<path fill="none" stroke="black" stroke-dasharray="1,5" d="M1605.56,-216.04C1621,-196.89 1640.23,-165.6 1623.18,-144 1606.31,-122.63 1543.56,-108.93 1489.06,-100.82"/>
<polygon fill="black" stroke="black" points="1489.39,-97.33 1479,-99.37 1488.4,-104.26 1489.39,-97.33"/>
</g>
<!-- :app&#45;feature:addtasklist&#45;&gt;:common:resources -->
<g id="edge45" class="edge">
<title>:app&#45;feature:addtasklist&#45;&gt;:common:resources</title>
<path fill="none" stroke="black" stroke-dasharray="1,5" d="M1583.68,-215.95C1574.79,-195.16 1556.72,-160.73 1529.18,-144 1500.59,-126.63 1304.84,-107.93 1186.87,-98.05"/>
<polygon fill="black" stroke="black" points="1187.02,-94.55 1176.76,-97.21 1186.44,-101.53 1187.02,-94.55"/>
</g>
<!-- :app&#45;feature:addtasklist&#45;&gt;:common:viewmodel -->
<g id="edge47" class="edge">
<title>:app&#45;feature:addtasklist&#45;&gt;:common:viewmodel</title>
<path fill="none" stroke="black" stroke-dasharray="1,5" d="M1570.49,-216.26C1558.45,-205.94 1542.79,-192.35 1529.18,-180 1511.95,-164.37 1512.47,-153.4 1491.18,-144 1391.31,-99.89 1109.85,-118.58 1001.18,-108 983.3,-106.26 964.15,-104.12 945.95,-101.95"/>
<polygon fill="black" stroke="black" points="946.29,-98.47 935.95,-100.74 945.46,-105.42 946.29,-98.47"/>
</g>
<!-- :app&#45;feature:addtasklist&#45;&gt;:common:ui -->
<g id="edge46" class="edge">
<title>:app&#45;feature:addtasklist&#45;&gt;:common:ui</title>
<path fill="none" stroke="black" stroke-dasharray="1,5" d="M1679.1,-225.19C1740.26,-217.76 1813.82,-204.04 1833.18,-180 1863.48,-142.38 1796.64,-116.74 1743.43,-102.98"/>
<polygon fill="black" stroke="black" points="1744.22,-99.57 1733.67,-100.55 1742.53,-106.37 1744.22,-99.57"/>
</g>
<!-- :app&#45;feature:edittask&#45;&gt;:app&#45;common:designsystem -->
<g id="edge48" class="edge">
<title>:app&#45;feature:edittask&#45;&gt;:app&#45;common:designsystem</title>
<path fill="none" stroke="black" stroke-dasharray="1,5" d="M276.88,-218.07C259.42,-209.76 241.17,-197.47 231.18,-180 223.24,-166.11 220.72,-156.11 231.18,-144 233.39,-141.45 391.88,-118.97 498.39,-104.12"/>
<polygon fill="black" stroke="black" points="499.11,-107.55 508.53,-102.71 498.14,-100.62 499.11,-107.55"/>
</g>
<!-- :app&#45;feature:edittask&#45;&gt;:app&#45;common:ui -->
<g id="edge49" class="edge">
<title>:app&#45;feature:edittask&#45;&gt;:app&#45;common:ui</title>
<path fill="none" stroke="black" stroke-dasharray="1,5" d="M386.19,-221.43C397.83,-219.51 409.85,-217.62 421.18,-216 554.75,-196.95 710.94,-180.05 802.37,-170.7"/>
<polygon fill="black" stroke="black" points="802.78,-174.18 812.38,-169.69 802.07,-167.22 802.78,-174.18"/>
</g>
<!-- :app&#45;feature:edittask&#45;&gt;:common:domain -->
<g id="edge50" class="edge">
<title>:app&#45;feature:edittask&#45;&gt;:common:domain</title>
<path fill="none" stroke="black" stroke-dasharray="1,5" d="M271.32,-218.91C252.18,-210.8 232.28,-198.43 221.18,-180 194.19,-135.15 222.59,-97.72 268.18,-72 331.23,-36.44 1393.72,-23.04 1711.26,-19.82"/>
<polygon fill="black" stroke="black" points="1711.37,-23.32 1721.34,-19.72 1711.3,-16.32 1711.37,-23.32"/>
</g>
<!-- :app&#45;feature:edittask&#45;&gt;:common:navigation -->
<g id="edge51" class="edge">
<title>:app&#45;feature:edittask&#45;&gt;:common:navigation</title>
<path fill="none" stroke="black" stroke-dasharray="1,5" d="M379.38,-220.19C468.64,-200.98 644.9,-164.75 796.18,-144 845.57,-137.23 1152.1,-111.54 1308.94,-98.58"/>
<polygon fill="black" stroke="black" points="1309.37,-102.06 1319.05,-97.74 1308.8,-95.08 1309.37,-102.06"/>
</g>
<!-- :app&#45;feature:edittask&#45;&gt;:common:resources -->
<g id="edge52" class="edge">
<title>:app&#45;feature:edittask&#45;&gt;:common:resources</title>
<path fill="none" stroke="black" stroke-dasharray="1,5" d="M367.02,-218.48C430.78,-198.8 550.14,-163.86 654.18,-144 789.99,-118.08 825.93,-124.7 963.18,-108 980.11,-105.94 998.24,-103.68 1015.51,-101.5"/>
<polygon fill="black" stroke="black" points="1016.09,-104.95 1025.57,-100.22 1015.21,-98.01 1016.09,-104.95"/>
</g>
<!-- :app&#45;feature:edittask&#45;&gt;:common:viewmodel -->
<g id="edge54" class="edge">
<title>:app&#45;feature:edittask&#45;&gt;:common:viewmodel</title>
<path fill="none" stroke="black" stroke-dasharray="1,5" d="M311.24,-215.9C301.14,-196.03 289.32,-163.48 307.18,-144 338.39,-109.97 675.26,-112.78 721.18,-108 738.77,-106.17 757.58,-104.02 775.52,-101.87"/>
<polygon fill="black" stroke="black" points="776.16,-105.32 785.67,-100.65 775.33,-98.37 776.16,-105.32"/>
</g>
<!-- :app&#45;feature:edittask&#45;&gt;:common:ui -->
<g id="edge53" class="edge">
<title>:app&#45;feature:edittask&#45;&gt;:common:ui</title>
<path fill="none" stroke="black" stroke-dasharray="1,5" d="M384.79,-221.19C396.85,-219.23 409.38,-217.39 421.18,-216 661.38,-187.7 727.27,-228.7 964.18,-180 1011.27,-170.32 1019.17,-154.07 1066.18,-144 1255.88,-103.38 1307.92,-124.88 1501.18,-108 1541.1,-104.51 1585.85,-100.41 1621.33,-97.1"/>
<polygon fill="black" stroke="black" points="1621.92,-100.56 1631.55,-96.15 1621.27,-93.59 1621.92,-100.56"/>
</g>
<!-- :app&#45;feature:edittasklist&#45;&gt;:app&#45;common:designsystem -->
<g id="edge55" class="edge">
<title>:app&#45;feature:edittasklist&#45;&gt;:app&#45;common:designsystem</title>
<path fill="none" stroke="black" stroke-dasharray="1,5" d="M497.2,-216.85C482.65,-208.16 467.29,-195.91 459.18,-180 451.92,-165.75 450.19,-157.23 459.18,-144 470.79,-126.93 488.83,-115.36 507.95,-107.51"/>
<polygon fill="black" stroke="black" points="509.28,-110.76 517.41,-103.96 506.81,-104.2 509.28,-110.76"/>
</g>
<!-- :app&#45;feature:edittasklist&#45;&gt;:app&#45;common:ui -->
<g id="edge56" class="edge">
<title>:app&#45;feature:edittasklist&#45;&gt;:app&#45;common:ui</title>
<path fill="none" stroke="black" stroke-dasharray="1,5" d="M596.82,-220C658.92,-207.51 752.27,-188.73 814.66,-176.18"/>
<polygon fill="black" stroke="black" points="815.66,-179.55 824.78,-174.14 814.28,-172.69 815.66,-179.55"/>
</g>
<!-- :app&#45;feature:edittasklist&#45;&gt;:common:domain -->
<g id="edge57" class="edge">
<title>:app&#45;feature:edittasklist&#45;&gt;:common:domain</title>
<path fill="none" stroke="black" stroke-dasharray="1,5" d="M473.97,-219.14C382.27,-194.82 221.07,-140.47 287.18,-72 312.05,-46.24 1391.2,-25.93 1711.48,-20.46"/>
<polygon fill="black" stroke="black" points="1711.7,-23.95 1721.64,-20.28 1711.58,-16.96 1711.7,-23.95"/>
</g>
<!-- :app&#45;feature:edittasklist&#45;&gt;:common:navigation -->
<g id="edge58" class="edge">
<title>:app&#45;feature:edittasklist&#45;&gt;:common:navigation</title>
<path fill="none" stroke="black" stroke-dasharray="1,5" d="M605.27,-221.38C617.9,-219.49 630.91,-217.63 643.18,-216 785.5,-197.13 822.37,-202.35 964.18,-180 1034.2,-168.97 1227.6,-128.19 1332.08,-105.86"/>
<polygon fill="black" stroke="black" points="1332.86,-109.27 1341.9,-103.76 1331.39,-102.43 1332.86,-109.27"/>
</g>
<!-- :app&#45;feature:edittasklist&#45;&gt;:common:resources -->
<g id="edge59" class="edge">
<title>:app&#45;feature:edittasklist&#45;&gt;:common:resources</title>
<path fill="none" stroke="black" stroke-dasharray="1,5" d="M566.55,-216.88C610.5,-196.89 689.43,-163.13 760.18,-144 807.09,-131.32 932.31,-113.12 1016.18,-101.69"/>
<polygon fill="black" stroke="black" points="1016.76,-105.14 1026.2,-100.33 1015.82,-98.2 1016.76,-105.14"/>
</g>
<!-- :app&#45;feature:edittasklist&#45;&gt;:common:viewmodel -->
<g id="edge61" class="edge">
<title>:app&#45;feature:edittasklist&#45;&gt;:common:viewmodel</title>
<path fill="none" stroke="black" stroke-dasharray="1,5" d="M527.01,-215.95C522.14,-196.12 517.92,-163.61 535.18,-144 543.18,-134.91 682.44,-114.76 776.34,-102.09"/>
<polygon fill="black" stroke="black" points="776.97,-105.53 786.41,-100.73 776.04,-98.6 776.97,-105.53"/>
</g>
<!-- :app&#45;feature:edittasklist&#45;&gt;:common:ui -->
<g id="edge60" class="edge">
<title>:app&#45;feature:edittasklist&#45;&gt;:common:ui</title>
<path fill="none" stroke="black" stroke-dasharray="1,5" d="M604.33,-221.22C617.25,-219.32 630.6,-217.49 643.18,-216 832.31,-193.57 882.28,-211.04 1070.18,-180 1135.7,-169.18 1149.83,-155.74 1215.18,-144 1291.66,-130.26 1511.63,-107.95 1621.76,-97.19"/>
<polygon fill="black" stroke="black" points="1622.13,-100.67 1631.74,-96.22 1621.45,-93.7 1622.13,-100.67"/>
</g>
<!-- :app&#45;feature:home&#45;&gt;:app&#45;common:designsystem -->
<g id="edge62" class="edge">
<title>:app&#45;feature:home&#45;&gt;:app&#45;common:designsystem</title>
<path fill="none" stroke="black" stroke-dasharray="1,5" d="M121.3,-215.95C111.25,-196.13 99.48,-163.63 117.18,-144 143.22,-115.13 426.58,-112.56 465.18,-108 475.75,-106.75 486.8,-105.38 497.79,-103.98"/>
<polygon fill="black" stroke="black" points="498.38,-107.43 507.85,-102.68 497.49,-100.49 498.38,-107.43"/>
</g>
<!-- :app&#45;feature:home&#45;&gt;:app&#45;common:ui -->
<g id="edge63" class="edge">
<title>:app&#45;feature:home&#45;&gt;:app&#45;common:ui</title>
<path fill="none" stroke="black" stroke-dasharray="1,5" d="M189.29,-221.21C200.19,-219.27 211.51,-217.42 222.18,-216 427.98,-188.57 672.02,-173.42 797.12,-166.91"/>
<polygon fill="black" stroke="black" points="797.57,-170.39 807.38,-166.38 797.21,-163.4 797.57,-170.39"/>
</g>
<!-- :app&#45;feature:home&#45;&gt;:common:domain -->
<g id="edge64" class="edge">
<title>:app&#45;feature:home&#45;&gt;:common:domain</title>
<path fill="none" stroke="black" stroke-dasharray="1,5" d="M134.97,-215.99C143.62,-181.67 168.37,-104.62 222.18,-72 254.21,-52.58 1382.42,-27.68 1711.15,-20.82"/>
<polygon fill="black" stroke="black" points="1711.65,-24.31 1721.58,-20.6 1711.51,-17.31 1711.65,-24.31"/>
</g>
<!-- :app&#45;feature:home&#45;&gt;:common:navigation -->
<g id="edge65" class="edge">
<title>:app&#45;feature:home&#45;&gt;:common:navigation</title>
<path fill="none" stroke="black" stroke-dasharray="1,5" d="M191.13,-221.72C244.78,-210.98 318.91,-194.37 345.18,-180 365.59,-168.83 361.77,-153.09 383.18,-144 466.11,-108.8 1103.27,-113.67 1193.18,-108 1231.52,-105.58 1273.79,-102.25 1310.14,-99.18"/>
<polygon fill="black" stroke="black" points="1310.57,-102.65 1320.24,-98.32 1309.97,-95.68 1310.57,-102.65"/>
</g>
<!-- :app&#45;feature:home&#45;&gt;:common:resources -->
<g id="edge66" class="edge">
<title>:app&#45;feature:home&#45;&gt;:common:resources</title>
<path fill="none" stroke="black" stroke-dasharray="1,5" d="M178.27,-219.22C248.41,-199.26 384.78,-162.68 503.18,-144 705.75,-112.04 759.18,-128.91 963.18,-108 980.44,-106.23 998.92,-104.06 1016.46,-101.88"/>
<polygon fill="black" stroke="black" points="1017.19,-105.32 1026.67,-100.59 1016.31,-98.37 1017.19,-105.32"/>
</g>
<!-- :app&#45;feature:home&#45;&gt;:common:viewmodel -->
<g id="edge68" class="edge">
<title>:app&#45;feature:home&#45;&gt;:common:viewmodel</title>
<path fill="none" stroke="black" stroke-dasharray="1,5" d="M130.36,-215.81C130.41,-195.21 134,-161.32 155.18,-144 203.97,-104.11 658.43,-113.8 721.18,-108 739.18,-106.34 758.44,-104.22 776.74,-102.05"/>
<polygon fill="black" stroke="black" points="777.29,-105.51 786.8,-100.84 776.45,-98.56 777.29,-105.51"/>
</g>
<!-- :app&#45;feature:home&#45;&gt;:common:ui -->
<g id="edge67" class="edge">
<title>:app&#45;feature:home&#45;&gt;:common:ui</title>
<path fill="none" stroke="black" stroke-dasharray="1,5" d="M190.33,-221.42C200.91,-219.5 211.86,-217.61 222.18,-216 476.22,-176.37 540.07,-166.57 796.18,-144 1108.71,-116.46 1188.24,-130.36 1501.18,-108 1541.3,-105.13 1586.23,-101.03 1621.76,-97.57"/>
<polygon fill="black" stroke="black" points="1622.38,-101.02 1631.99,-96.56 1621.7,-94.06 1622.38,-101.02"/>
</g>
<!-- :app&#45;feature:settings&#45;&gt;:app&#45;common:designsystem -->
<g id="edge69" class="edge">
<title>:app&#45;feature:settings&#45;&gt;:app&#45;common:designsystem</title>
<path fill="none" stroke="black" stroke-dasharray="1,5" d="M678.73,-221.2C636.33,-211.88 586.06,-197.53 573.18,-180 559.79,-161.76 567.57,-136.16 577.07,-117.1"/>
<polygon fill="black" stroke="black" points="580.28,-118.53 581.94,-108.06 574.11,-115.21 580.28,-118.53"/>
</g>
<!-- :app&#45;feature:settings&#45;&gt;:app&#45;common:ui -->
<g id="edge70" class="edge">
<title>:app&#45;feature:settings&#45;&gt;:app&#45;common:ui</title>
<path fill="none" stroke="black" stroke-dasharray="1,5" d="M773.5,-217.12C793.31,-207.07 819.1,-193.98 840.36,-183.2"/>
<polygon fill="black" stroke="black" points="842.13,-186.23 849.47,-178.58 838.97,-179.98 842.13,-186.23"/>
</g>
<!-- :app&#45;feature:settings&#45;&gt;:common:domain -->
<g id="edge71" class="edge">
<title>:app&#45;feature:settings&#45;&gt;:common:domain</title>
<path fill="none" stroke="black" stroke-dasharray="1,5" d="M737.73,-215.84C730.24,-182.62 719.59,-109.49 759.18,-72 793.51,-39.49 1465.62,-24.74 1711.27,-20.42"/>
<polygon fill="black" stroke="black" points="1711.65,-23.91 1721.58,-20.24 1711.52,-16.91 1711.65,-23.91"/>
</g>
<!-- :app&#45;feature:settings&#45;&gt;:common:navigation -->
<g id="edge72" class="edge">
<title>:app&#45;feature:settings&#45;&gt;:common:navigation</title>
<path fill="none" stroke="black" stroke-dasharray="1,5" d="M816.41,-223.74C929.41,-209.59 1133.22,-183.81 1149.18,-180 1223.01,-162.36 1305.39,-130.92 1355.24,-110.52"/>
<polygon fill="black" stroke="black" points="1356.86,-113.64 1364.77,-106.6 1354.19,-107.17 1356.86,-113.64"/>
</g>
<!-- :app&#45;feature:settings&#45;&gt;:common:resources -->
<g id="edge73" class="edge">
<title>:app&#45;feature:settings&#45;&gt;:common:resources</title>
<path fill="none" stroke="black" stroke-dasharray="1,5" d="M747.65,-215.85C755.15,-195.3 770.67,-161.45 796.18,-144 814.2,-131.68 933.43,-113.3 1016.31,-101.74"/>
<polygon fill="black" stroke="black" points="1016.8,-105.2 1026.22,-100.36 1015.84,-98.27 1016.8,-105.2"/>
</g>
<!-- :app&#45;feature:settings&#45;&gt;:common:viewmodel -->
<g id="edge75" class="edge">
<title>:app&#45;feature:settings&#45;&gt;:common:viewmodel</title>
<path fill="none" stroke="black" stroke-dasharray="1,5" d="M747.54,-215.77C754.11,-196.66 766.7,-165.68 785.18,-144 795.53,-131.87 809.26,-121.18 822.2,-112.65"/>
<polygon fill="black" stroke="black" points="824.4,-115.39 830.98,-107.09 820.66,-109.48 824.4,-115.39"/>
</g>
<!-- :app&#45;feature:settings&#45;&gt;:common:ui -->
<g id="edge74" class="edge">
<title>:app&#45;feature:settings&#45;&gt;:common:ui</title>
<path fill="none" stroke="black" stroke-dasharray="1,5" d="M815.74,-223.63C836.27,-221.08 858.59,-218.37 879.18,-216 1030.14,-198.64 1068.86,-202.24 1219.18,-180 1259.26,-174.07 1512.52,-124.89 1628.42,-102.29"/>
<polygon fill="black" stroke="black" points="1629.38,-105.67 1638.53,-100.31 1628.04,-98.79 1629.38,-105.67"/>
</g>
<!-- :app&#45;feature:taskdetails&#45;&gt;:app&#45;common:designsystem -->
<g id="edge76" class="edge">
<title>:app&#45;feature:taskdetails&#45;&gt;:app&#45;common:designsystem</title>
<path fill="none" stroke="black" stroke-dasharray="1,5" d="M1128.47,-217.58C1101.46,-207.52 1065.95,-193.76 1035.18,-180 1002.88,-165.56 997.92,-154.64 964.18,-144 916.04,-128.81 789.94,-112.56 698.08,-102.12"/>
<polygon fill="black" stroke="black" points="698.23,-98.61 687.9,-100.97 697.44,-105.57 698.23,-98.61"/>
</g>
<!-- :app&#45;feature:taskdetails&#45;&gt;:app&#45;common:ui -->
<g id="edge77" class="edge">
<title>:app&#45;feature:taskdetails&#45;&gt;:app&#45;common:ui</title>
<path fill="none" stroke="black" stroke-dasharray="1,5" d="M1113.69,-219.17C1063.84,-207.18 991.92,-189.88 941.1,-177.65"/>
<polygon fill="black" stroke="black" points="941.77,-174.21 931.23,-175.28 940.13,-181.02 941.77,-174.21"/>
</g>
<!-- :app&#45;feature:taskdetails&#45;&gt;:common:domain -->
<g id="edge78" class="edge">
<title>:app&#45;feature:taskdetails&#45;&gt;:common:domain</title>
<path fill="none" stroke="black" stroke-dasharray="1,5" d="M1242.99,-221.26C1255.69,-219.36 1268.81,-217.53 1281.18,-216 1367.34,-205.37 1590.34,-214.08 1670.18,-180 1715.1,-160.83 1722.82,-146.25 1753.18,-108 1768.38,-88.86 1781,-64.07 1789.32,-45.51"/>
<polygon fill="black" stroke="black" points="1792.6,-46.75 1793.38,-36.18 1786.18,-43.96 1792.6,-46.75"/>
</g>
<!-- :app&#45;feature:taskdetails&#45;&gt;:common:navigation -->
<g id="edge79" class="edge">
<title>:app&#45;feature:taskdetails&#45;&gt;:common:navigation</title>
<path fill="none" stroke="black" stroke-dasharray="1,5" d="M1244.79,-221.55C1326.08,-208.54 1446.47,-188.09 1453.18,-180 1470,-159.73 1450.29,-133.34 1430.49,-114.58"/>
<polygon fill="black" stroke="black" points="1432.74,-111.9 1422.98,-107.79 1428.05,-117.09 1432.74,-111.9"/>
</g>
<!-- :app&#45;feature:taskdetails&#45;&gt;:common:resources -->
<g id="edge80" class="edge">
<title>:app&#45;feature:taskdetails&#45;&gt;:common:resources</title>
<path fill="none" stroke="black" stroke-dasharray="1,5" d="M1162.26,-215.87C1149.48,-191.35 1125.86,-146.03 1110.87,-117.26"/>
<polygon fill="black" stroke="black" points="1113.87,-115.44 1106.14,-108.19 1107.66,-118.67 1113.87,-115.44"/>
</g>
<!-- :app&#45;feature:taskdetails&#45;&gt;:common:viewmodel -->
<g id="edge82" class="edge">
<title>:app&#45;feature:taskdetails&#45;&gt;:common:viewmodel</title>
<path fill="none" stroke="black" stroke-dasharray="1,5" d="M1149.7,-216.15C1123.81,-196.52 1078.38,-164.21 1035.18,-144 1001.48,-128.24 961.95,-115.76 929.09,-106.88"/>
<polygon fill="black" stroke="black" points="929.68,-103.41 919.12,-104.24 927.89,-110.18 929.68,-103.41"/>
</g>
<!-- :app&#45;feature:taskdetails&#45;&gt;:common:ui -->
<g id="edge81" class="edge">
<title>:app&#45;feature:taskdetails&#45;&gt;:common:ui</title>
<path fill="none" stroke="black" stroke-dasharray="1,5" d="M1243.29,-221.28C1255.9,-219.4 1268.91,-217.56 1281.18,-216 1361.38,-205.82 1576.92,-226.31 1643.18,-180 1663.88,-165.54 1674.99,-138.3 1680.7,-117.75"/>
<polygon fill="black" stroke="black" points="1684.1,-118.55 1683.15,-108 1677.32,-116.84 1684.1,-118.55"/>
</g>
<!-- :common:core&#45;&gt;:common:domain -->
<g id="edge86" class="edge">
<title>:common:core&#45;&gt;:common:domain</title>
<path fill="none" stroke="black" stroke-dasharray="1,5" d="M2133.05,-216.13C2114.27,-183.08 2068,-109.76 2008.18,-72 1970.27,-48.07 1922.06,-34.93 1881.6,-27.72"/>
<polygon fill="black" stroke="black" points="1881.93,-24.22 1871.49,-26.01 1880.76,-31.12 1881.93,-24.22"/>
</g>
<!-- :common:core&#45;&gt;:common:ui -->
<g id="edge83" class="edge">
<title>:common:core&#45;&gt;:common:ui</title>
<path fill="none" stroke="black" stroke-dasharray="1,5" d="M2125.74,-216.47C2104.2,-195.89 2064.31,-161.34 2023.18,-144 1935.02,-106.82 1823.92,-95.46 1753.94,-92.14"/>
<polygon fill="black" stroke="black" points="1754.07,-88.64 1743.93,-91.7 1753.77,-95.63 1754.07,-88.64"/>
</g>
<!-- :common:data -->
<g id="node20" class="node">
<title>:common:data</title>
<ellipse fill="#7f52ff" stroke="black" cx="2264.18" cy="-162" rx="66.07" ry="18"/>
<text text-anchor="middle" x="2264.18" y="-157.8" font-family="Times,serif" font-size="14.00">:common:data</text>
</g>
<!-- :common:core&#45;&gt;:common:data -->
<g id="edge84" class="edge">
<title>:common:core&#45;&gt;:common:data</title>
<path fill="none" stroke="black" stroke-dasharray="1,5" d="M2169.26,-217.46C2186.63,-207.5 2209.39,-194.44 2228.27,-183.61"/>
<polygon fill="black" stroke="black" points="2230.25,-186.5 2237.18,-178.49 2226.77,-180.43 2230.25,-186.5"/>
</g>
<!-- :common:database -->
<g id="node21" class="node">
<title>:common:database</title>
<ellipse fill="#7f52ff" stroke="black" cx="2161.18" cy="-90" rx="83.39" ry="18"/>
<text text-anchor="middle" x="2161.18" y="-85.8" font-family="Times,serif" font-size="14.00">:common:database</text>
</g>
<!-- :common:core&#45;&gt;:common:database -->
<g id="edge85" class="edge">
<title>:common:core&#45;&gt;:common:database</title>
<path fill="none" stroke="black" stroke-dasharray="1,5" d="M2144.48,-215.87C2147.71,-191.67 2153.66,-147.21 2157.52,-118.39"/>
<polygon fill="black" stroke="black" points="2161.03,-118.57 2158.88,-108.19 2154.09,-117.64 2161.03,-118.57"/>
</g>
<!-- :common:preferences -->
<g id="node22" class="node">
<title>:common:preferences</title>
<ellipse fill="#7f52ff" stroke="black" cx="2395.18" cy="-90" rx="94.88" ry="18"/>
<text text-anchor="middle" x="2395.18" y="-85.8" font-family="Times,serif" font-size="14.00">:common:preferences</text>
</g>
<!-- :common:core&#45;&gt;:common:preferences -->
<g id="edge87" class="edge">
<title>:common:core&#45;&gt;:common:preferences</title>
<path fill="none" stroke="black" stroke-dasharray="1,5" d="M2205.46,-227.91C2246.87,-221.88 2300.29,-208.72 2339.18,-180 2360.64,-164.16 2375.84,-137.41 2384.94,-117.37"/>
<polygon fill="black" stroke="black" points="2388.18,-118.71 2388.92,-108.14 2381.75,-115.94 2388.18,-118.71"/>
</g>
<!-- :common:data&#45;&gt;:common:domain -->
<g id="edge88" class="edge">
<title>:common:data&#45;&gt;:common:domain</title>
<path fill="none" stroke="black" stroke-dasharray="1,5" d="M2267.65,-143.93C2270.65,-123.78 2271.96,-90.65 2253.18,-72 2227.74,-46.72 2011.46,-30.68 1887.18,-23.46"/>
<polygon fill="black" stroke="black" points="1887.1,-19.95 1876.92,-22.87 1886.7,-26.94 1887.1,-19.95"/>
</g>
<!-- :common:data&#45;&gt;:common:database -->
<g id="edge89" class="edge">
<title>:common:data&#45;&gt;:common:database</title>
<path fill="none" stroke="black" stroke-dasharray="1,5" d="M2240.81,-145.12C2226.92,-135.67 2209.09,-123.56 2193.82,-113.18"/>
<polygon fill="black" stroke="black" points="2195.42,-110.03 2185.18,-107.31 2191.48,-115.82 2195.42,-110.03"/>
</g>
<!-- :common:data&#45;&gt;:common:preferences -->
<g id="edge90" class="edge">
<title>:common:data&#45;&gt;:common:preferences</title>
<path fill="none" stroke="black" stroke-dasharray="1,5" d="M2292.93,-145.64C2311.35,-135.8 2335.5,-122.89 2355.71,-112.09"/>
<polygon fill="black" stroke="black" points="2357.51,-115.1 2364.68,-107.3 2354.21,-108.93 2357.51,-115.1"/>
</g>
<!-- :common:database&#45;&gt;:common:domain -->
<g id="edge91" class="edge">
<title>:common:database&#45;&gt;:common:domain</title>
<path fill="none" stroke="black" stroke-dasharray="1,5" d="M2101.17,-77.36C2037,-64.92 1935.43,-45.23 1868.31,-32.21"/>
<polygon fill="black" stroke="black" points="1868.73,-28.73 1858.25,-30.26 1867.4,-35.6 1868.73,-28.73"/>
</g>
</g>
</svg>
