<svg width="688px" height="431px" viewBox="0.00 0.00 495.07 310.00"
    xmlns="http://www.w3.org/2000/svg">
    <g id="graph0" class="graph"
        transform="scale(1.0007919936640506 1.0007919936640506) rotate(0.0) translate(4.0 306.0)">
        <polygon fill="white" stroke="transparent"
            points="-4,4 -4,-306 491.07,-306 491.07,4 -4,4" />
        <text text-anchor="middle" x="243.53" y="-266.5" font-family="Times,serif"
            font-size="35.00">core
        </text>
        <!-- :common:core -->
        <g id="node1" class="node">
            <title>:common:core</title>
            <polygon fill="#A280FF" stroke="black"
                points="257.72,-252 160.99,-252 160.99,-216 257.72,-216 257.72,-252" />
            <text text-anchor="middle" x="209.35" y="-229.8" font-family="Times,serif"
                font-size="14.00">:common:core
            </text>
        </g>
        <!-- :common:ui -->
        <g id="node2" class="node">
            <title>:common:ui</title>
            <ellipse fill="#A280FF" stroke="black" cx="429.35" cy="-162" rx="57.93" ry="18" />
            <text text-anchor="middle" x="429.35" y="-157.8" font-family="Times,serif"
                font-size="14.00">:common:ui
            </text>
        </g>
        <!-- :common:core&#45;&gt;:common:ui -->
        <g id="edge1" class="edge">
            <title>:common:core&#45;&gt;:common:ui</title>
            <path fill="none" stroke="black" stroke-dasharray="1,5"
                d="M257.91,-217.55C294.34,-205.96 344.02,-190.15 380.52,-178.54" />
            <polygon fill="black" stroke="black"
                points="381.98,-181.75 390.44,-175.38 379.85,-175.08 381.98,-181.75" />
        </g>
        <!-- :common:domain -->
        <g id="node3" class="node">
            <title>:common:domain</title>
            <ellipse fill="#A280FF" stroke="black" cx="153.35" cy="-18" rx="79.34" ry="18" />
            <text text-anchor="middle" x="153.35" y="-13.8" font-family="Times,serif"
                font-size="14.00">:common:domain
            </text>
        </g>
        <!-- :common:core&#45;&gt;:common:domain -->
        <g id="edge4" class="edge">
            <title>:common:core&#45;&gt;:common:domain</title>
            <path fill="none" stroke="black" stroke-dasharray="1,5"
                d="M160.9,-219.13C111.5,-202.04 37.8,-167.69 6.35,-108 -1.1,-93.84 -2.84,-85.09 6.35,-72 21.98,-49.76 47.89,-36.81 73.65,-29.28" />
            <polygon fill="black" stroke="black"
                points="74.73,-32.62 83.49,-26.66 72.92,-25.85 74.73,-32.62" />
        </g>
        <!-- :common:data -->
        <g id="node4" class="node">
            <title>:common:data</title>
            <ellipse fill="#A280FF" stroke="black" cx="209.35" cy="-162" rx="66.07" ry="18" />
            <text text-anchor="middle" x="209.35" y="-157.8" font-family="Times,serif"
                font-size="14.00">:common:data
            </text>
        </g>
        <!-- :common:core&#45;&gt;:common:data -->
        <g id="edge2" class="edge">
            <title>:common:core&#45;&gt;:common:data</title>
            <path fill="none" stroke="black" stroke-dasharray="1,5"
                d="M209.35,-215.7C209.35,-207.98 209.35,-198.71 209.35,-190.11" />
            <polygon fill="black" stroke="black"
                points="212.85,-190.1 209.35,-180.1 205.85,-190.1 212.85,-190.1" />
        </g>
        <!-- :common:database -->
        <g id="node5" class="node">
            <title>:common:database</title>
            <ellipse fill="#A280FF" stroke="black" cx="98.35" cy="-90" rx="83.39" ry="18" />
            <text text-anchor="middle" x="98.35" y="-85.8" font-family="Times,serif"
                font-size="14.00">:common:database
            </text>
        </g>
        <!-- :common:core&#45;&gt;:common:database -->
        <g id="edge3" class="edge">
            <title>:common:core&#45;&gt;:common:database</title>
            <path fill="none" stroke="black" stroke-dasharray="1,5"
                d="M176.9,-215.79C162.32,-206.74 145.84,-194.5 134.35,-180 119.86,-161.7 110.45,-136.78 104.9,-117.97" />
            <polygon fill="black" stroke="black"
                points="108.24,-116.93 102.2,-108.22 101.49,-118.8 108.24,-116.93" />
        </g>
        <!-- :common:preferences -->
        <g id="node6" class="node">
            <title>:common:preferences</title>
            <ellipse fill="#A280FF" stroke="black" cx="332.35" cy="-90" rx="94.88" ry="18" />
            <text text-anchor="middle" x="332.35" y="-85.8" font-family="Times,serif"
                font-size="14.00">:common:preferences
            </text>
        </g>
        <!-- :common:core&#45;&gt;:common:preferences -->
        <g id="edge5" class="edge">
            <title>:common:core&#45;&gt;:common:preferences</title>
            <path fill="none" stroke="black" stroke-dasharray="1,5"
                d="M239.99,-215.91C254.68,-206.65 271.77,-194.2 284.35,-180 300.74,-161.51 313.61,-136.46 321.89,-117.64" />
            <polygon fill="black" stroke="black"
                points="325.22,-118.75 325.89,-108.18 318.77,-116.02 325.22,-118.75" />
        </g>
        <!-- :common:ui&#45;&gt;:common:domain -->
        <g id="edge6" class="edge">
            <title>:common:ui&#45;&gt;:common:domain</title>
            <path fill="none" stroke="black" stroke-dasharray="1,5"
                d="M437.03,-144.13C444.67,-124.49 453.08,-92.15 436.35,-72 411.73,-42.34 314.04,-29.18 240.27,-23.4" />
            <polygon fill="black" stroke="black"
                points="240.27,-19.89 230.03,-22.64 239.74,-26.88 240.27,-19.89" />
        </g>
        <!-- :common:data&#45;&gt;:common:domain -->
        <g id="edge7" class="edge">
            <title>:common:data&#45;&gt;:common:domain</title>
            <path fill="none" stroke="black" stroke-dasharray="1,5"
                d="M207.76,-143.99C205.57,-125.61 200.68,-95.76 190.35,-72 186.17,-62.38 180.11,-52.71 174.1,-44.32" />
            <polygon fill="black" stroke="black"
                points="176.73,-41.99 167.93,-36.09 171.12,-46.19 176.73,-41.99" />
        </g>
        <!-- :common:data&#45;&gt;:common:database -->
        <g id="edge8" class="edge">
            <title>:common:data&#45;&gt;:common:database</title>
            <path fill="none" stroke="black" stroke-dasharray="1,5"
                d="M184.44,-145.29C169.09,-135.61 149.2,-123.07 132.41,-112.48" />
            <polygon fill="black" stroke="black"
                points="134.28,-109.52 123.95,-107.14 130.54,-115.44 134.28,-109.52" />
        </g>
        <!-- :common:data&#45;&gt;:common:preferences -->
        <g id="edge9" class="edge">
            <title>:common:data&#45;&gt;:common:preferences</title>
            <path fill="none" stroke="black" stroke-dasharray="1,5"
                d="M236.65,-145.46C253.8,-135.7 276.16,-122.98 294.95,-112.29" />
            <polygon fill="black" stroke="black"
                points="296.89,-115.21 303.85,-107.22 293.43,-109.13 296.89,-115.21" />
        </g>
        <!-- :common:database&#45;&gt;:common:domain -->
        <g id="edge10" class="edge">
            <title>:common:database&#45;&gt;:common:domain</title>
            <path fill="none" stroke="black" stroke-dasharray="1,5"
                d="M111.67,-72.05C118.36,-63.54 126.59,-53.07 133.96,-43.68" />
            <polygon fill="black" stroke="black"
                points="136.74,-45.81 140.16,-35.79 131.23,-41.49 136.74,-45.81" />
        </g>
    </g>
</svg>
