<svg width="2397px" height="531px"
 viewBox="0.00 0.00 1725.58 382.00" xmlns="http://www.w3.org/2000/svg" xmlns:xlink="http://www.w3.org/1999/xlink">
<g id="graph0" class="graph" transform="scale(1.0007919936640506 1.0007919936640506) rotate(0.0) translate(4.0 378.0)">
<polygon fill="white" stroke="transparent" points="-4,4 -4,-378 1721.58,-378 1721.58,4 -4,4"/>
<text text-anchor="middle" x="858.79" y="-338.5" font-family="Times,serif" font-size="35.00">desktop</text>
<!-- :desktop -->
<g id="node1" class="node">
<title>:desktop</title>
<polygon fill="#7f52ff" stroke="black" points="990.86,-324 926.98,-324 926.98,-288 990.86,-288 990.86,-324"/>
<text text-anchor="middle" x="958.92" y="-301.8" font-family="Times,serif" font-size="14.00">:desktop</text>
</g>
<!-- :common:core -->
<g id="node2" class="node">
<title>:common:core</title>
<ellipse fill="#7f52ff" stroke="black" cx="292.92" cy="-234" rx="66.63" ry="18"/>
<text text-anchor="middle" x="292.92" y="-229.8" font-family="Times,serif" font-size="14.00">:common:core</text>
</g>
<!-- :desktop&#45;&gt;:common:core -->
<g id="edge1" class="edge">
<title>:desktop&#45;&gt;:common:core</title>
<path fill="none" stroke="black" stroke-dasharray="1,5" d="M926.8,-301.62C824.86,-290.91 506.95,-257.5 363.91,-242.46"/>
<polygon fill="black" stroke="black" points="364.23,-238.98 353.92,-241.41 363.5,-245.94 364.23,-238.98"/>
</g>
<!-- :common:domain -->
<g id="node3" class="node">
<title>:common:domain</title>
<ellipse fill="#7f52ff" stroke="black" cx="535.92" cy="-18" rx="79.34" ry="18"/>
<text text-anchor="middle" x="535.92" y="-13.8" font-family="Times,serif" font-size="14.00">:common:domain</text>
</g>
<!-- :desktop&#45;&gt;:common:domain -->
<g id="edge4" class="edge">
<title>:desktop&#45;&gt;:common:domain</title>
<path fill="none" stroke="black" stroke-dasharray="1,5" d="M926.88,-300.39C866.79,-290.05 736.88,-259.37 665.92,-180 632.01,-142.06 660.44,-111.14 627.92,-72 616.2,-57.9 599.7,-46.75 583.9,-38.39"/>
<polygon fill="black" stroke="black" points="585.23,-35.14 574.72,-33.79 582.09,-41.4 585.23,-35.14"/>
</g>
<!-- :common:compose&#45;ui -->
<g id="node8" class="node">
<title>:common:compose&#45;ui</title>
<ellipse fill="#7f52ff" stroke="black" cx="1137.92" cy="-234" rx="95.01" ry="18"/>
<text text-anchor="middle" x="1137.92" y="-229.8" font-family="Times,serif" font-size="14.00">:common:compose&#45;ui</text>
</g>
<!-- :desktop&#45;&gt;:common:compose&#45;ui -->
<g id="edge2" class="edge">
<title>:desktop&#45;&gt;:common:compose&#45;ui</title>
<path fill="none" stroke="black" stroke-dasharray="1,5" d="M990.92,-292.49C1018.17,-281.83 1057.75,-266.35 1088.98,-254.14"/>
<polygon fill="black" stroke="black" points="1090.34,-257.37 1098.38,-250.46 1087.79,-250.85 1090.34,-257.37"/>
</g>
<!-- :common:compose&#45;ui&#45;designsystem -->
<g id="node10" class="node">
<title>:common:compose&#45;ui&#45;designsystem</title>
<ellipse fill="#7f52ff" stroke="black" cx="958.92" cy="-162" rx="150.5" ry="18"/>
<text text-anchor="middle" x="958.92" y="-157.8" font-family="Times,serif" font-size="14.00">:common:compose&#45;ui&#45;designsystem</text>
</g>
<!-- :desktop&#45;&gt;:common:compose&#45;ui&#45;designsystem -->
<g id="edge3" class="edge">
<title>:desktop&#45;&gt;:common:compose&#45;ui&#45;designsystem</title>
<path fill="none" stroke="black" stroke-dasharray="1,5" d="M958.92,-287.87C958.92,-263.67 958.92,-219.21 958.92,-190.39"/>
<polygon fill="black" stroke="black" points="962.42,-190.19 958.92,-180.19 955.42,-190.19 962.42,-190.19"/>
</g>
<!-- :common:navigation -->
<g id="node11" class="node">
<title>:common:navigation</title>
<ellipse fill="#7f52ff" stroke="black" cx="1434.92" cy="-162" rx="90.93" ry="18"/>
<text text-anchor="middle" x="1434.92" y="-157.8" font-family="Times,serif" font-size="14.00">:common:navigation</text>
</g>
<!-- :desktop&#45;&gt;:common:navigation -->
<g id="edge5" class="edge">
<title>:desktop&#45;&gt;:common:navigation</title>
<path fill="none" stroke="black" stroke-dasharray="1,5" d="M990.96,-301.61C1044.08,-295.42 1153.34,-280.24 1241.92,-252 1297.66,-234.23 1358.4,-204.33 1396.55,-184.14"/>
<polygon fill="black" stroke="black" points="1398.58,-187.03 1405.75,-179.23 1395.28,-180.85 1398.58,-187.03"/>
</g>
<!-- :common:resources -->
<g id="node12" class="node">
<title>:common:resources</title>
<ellipse fill="#7f52ff" stroke="black" cx="1630.92" cy="-162" rx="86.82" ry="18"/>
<text text-anchor="middle" x="1630.92" y="-157.8" font-family="Times,serif" font-size="14.00">:common:resources</text>
</g>
<!-- :desktop&#45;&gt;:common:resources -->
<g id="edge6" class="edge">
<title>:desktop&#45;&gt;:common:resources</title>
<path fill="none" stroke="black" stroke-dasharray="1,5" d="M991,-301.17C1051.56,-293.67 1186.7,-275.72 1298.92,-252 1396.8,-231.31 1508.86,-199.55 1574.55,-180.09"/>
<polygon fill="black" stroke="black" points="1575.71,-183.4 1584.3,-177.2 1573.71,-176.69 1575.71,-183.4"/>
</g>
<!-- :common:ui -->
<g id="node13" class="node">
<title>:common:ui</title>
<ellipse fill="#7f52ff" stroke="black" cx="732.92" cy="-162" rx="57.93" ry="18"/>
<text text-anchor="middle" x="732.92" y="-157.8" font-family="Times,serif" font-size="14.00">:common:ui</text>
</g>
<!-- :desktop&#45;&gt;:common:ui -->
<g id="edge7" class="edge">
<title>:desktop&#45;&gt;:common:ui</title>
<path fill="none" stroke="black" stroke-dasharray="1,5" d="M931.66,-287.87C890.06,-261.73 810.84,-211.96 766,-183.79"/>
<polygon fill="black" stroke="black" points="767.84,-180.81 757.52,-178.45 764.12,-186.74 767.84,-180.81"/>
</g>
<!-- :common:core&#45;&gt;:common:domain -->
<g id="edge8" class="edge">
<title>:common:core&#45;&gt;:common:domain</title>
<path fill="none" stroke="black" stroke-dasharray="1,5" d="M238.94,-223.26C139.46,-203.12 -56.32,-151.98 15.92,-72 44.26,-40.63 306.84,-26.85 447.65,-21.67"/>
<polygon fill="black" stroke="black" points="448.12,-25.15 457.99,-21.3 447.87,-18.16 448.12,-25.15"/>
</g>
<!-- :common:data -->
<g id="node4" class="node">
<title>:common:data</title>
<ellipse fill="#7f52ff" stroke="black" cx="245.92" cy="-162" rx="66.07" ry="18"/>
<text text-anchor="middle" x="245.92" y="-157.8" font-family="Times,serif" font-size="14.00">:common:data</text>
</g>
<!-- :common:core&#45;&gt;:common:data -->
<g id="edge9" class="edge">
<title>:common:core&#45;&gt;:common:data</title>
<path fill="none" stroke="black" stroke-dasharray="1,5" d="M281.54,-216.05C275.94,-207.71 269.08,-197.49 262.88,-188.25"/>
<polygon fill="black" stroke="black" points="265.67,-186.14 257.19,-179.79 259.86,-190.04 265.67,-186.14"/>
</g>
<!-- :common:database -->
<g id="node5" class="node">
<title>:common:database</title>
<ellipse fill="#7f52ff" stroke="black" cx="535.92" cy="-90" rx="83.39" ry="18"/>
<text text-anchor="middle" x="535.92" y="-85.8" font-family="Times,serif" font-size="14.00">:common:database</text>
</g>
<!-- :common:core&#45;&gt;:common:database -->
<g id="edge10" class="edge">
<title>:common:core&#45;&gt;:common:database</title>
<path fill="none" stroke="black" stroke-dasharray="1,5" d="M319.85,-217.26C363.71,-191.63 450.59,-140.87 499.77,-112.13"/>
<polygon fill="black" stroke="black" points="501.63,-115.09 508.49,-107.03 498.09,-109.05 501.63,-115.09"/>
</g>
<!-- :common:network -->
<g id="node6" class="node">
<title>:common:network</title>
<ellipse fill="#7f52ff" stroke="black" cx="106.92" cy="-90" rx="81.68" ry="18"/>
<text text-anchor="middle" x="106.92" y="-85.8" font-family="Times,serif" font-size="14.00">:common:network</text>
</g>
<!-- :common:core&#45;&gt;:common:network -->
<g id="edge11" class="edge">
<title>:common:core&#45;&gt;:common:network</title>
<path fill="none" stroke="black" stroke-dasharray="1,5" d="M248.89,-220.31C224.19,-211.7 193.84,-198.48 170.92,-180 149.53,-162.75 131.91,-136.65 120.61,-117.17"/>
<polygon fill="black" stroke="black" points="123.53,-115.22 115.59,-108.21 117.42,-118.64 123.53,-115.22"/>
</g>
<!-- :common:preferences -->
<g id="node7" class="node">
<title>:common:preferences</title>
<ellipse fill="#7f52ff" stroke="black" cx="339.92" cy="-90" rx="94.88" ry="18"/>
<text text-anchor="middle" x="339.92" y="-85.8" font-family="Times,serif" font-size="14.00">:common:preferences</text>
</g>
<!-- :common:core&#45;&gt;:common:preferences -->
<g id="edge12" class="edge">
<title>:common:core&#45;&gt;:common:preferences</title>
<path fill="none" stroke="black" stroke-dasharray="1,5" d="M303.51,-215.89C309.38,-205.77 316.38,-192.52 320.92,-180 328.23,-159.86 333.13,-136.08 336.12,-118.17"/>
<polygon fill="black" stroke="black" points="339.6,-118.54 337.7,-108.12 332.69,-117.45 339.6,-118.54"/>
</g>
<!-- :common:data&#45;&gt;:common:domain -->
<g id="edge13" class="edge">
<title>:common:data&#45;&gt;:common:domain</title>
<path fill="none" stroke="black" stroke-dasharray="1,5" d="M237.39,-144.13C228.8,-124.47 219.03,-92.13 235.92,-72 262.6,-40.2 369.33,-27.47 447.93,-22.38"/>
<polygon fill="black" stroke="black" points="448.57,-25.85 458.33,-21.74 448.14,-18.86 448.57,-25.85"/>
</g>
<!-- :common:data&#45;&gt;:common:database -->
<g id="edge14" class="edge">
<title>:common:data&#45;&gt;:common:database</title>
<path fill="none" stroke="black" stroke-dasharray="1,5" d="M293.81,-149.44C342.73,-137.63 418.94,-119.24 472.77,-106.24"/>
<polygon fill="black" stroke="black" points="473.65,-109.63 482.55,-103.88 472,-102.83 473.65,-109.63"/>
</g>
<!-- :common:data&#45;&gt;:common:network -->
<g id="edge15" class="edge">
<title>:common:data&#45;&gt;:common:network</title>
<path fill="none" stroke="black" stroke-dasharray="1,5" d="M215.76,-145.81C195.78,-135.75 169.33,-122.43 147.51,-111.44"/>
<polygon fill="black" stroke="black" points="148.98,-108.26 138.47,-106.89 145.83,-114.51 148.98,-108.26"/>
</g>
<!-- :common:data&#45;&gt;:common:preferences -->
<g id="edge16" class="edge">
<title>:common:data&#45;&gt;:common:preferences</title>
<path fill="none" stroke="black" stroke-dasharray="1,5" d="M267.72,-144.76C280.12,-135.53 295.84,-123.83 309.44,-113.7"/>
<polygon fill="black" stroke="black" points="311.65,-116.41 317.58,-107.63 307.47,-110.8 311.65,-116.41"/>
</g>
<!-- :common:database&#45;&gt;:common:domain -->
<g id="edge17" class="edge">
<title>:common:database&#45;&gt;:common:domain</title>
<path fill="none" stroke="black" stroke-dasharray="1,5" d="M535.92,-71.7C535.92,-63.98 535.92,-54.71 535.92,-46.11"/>
<polygon fill="black" stroke="black" points="539.42,-46.1 535.92,-36.1 532.42,-46.1 539.42,-46.1"/>
</g>
<!-- :common:network&#45;&gt;:common:domain -->
<g id="edge18" class="edge">
<title>:common:network&#45;&gt;:common:domain</title>
<path fill="none" stroke="black" stroke-dasharray="1,5" d="M168.09,-78C179.65,-75.97 191.65,-73.89 202.92,-72 292.01,-57.02 394.71,-40.84 462.23,-30.35"/>
<polygon fill="black" stroke="black" points="462.99,-33.77 472.34,-28.78 461.92,-26.86 462.99,-33.77"/>
</g>
<!-- :common:compose&#45;ui&#45;&gt;:common:domain -->
<g id="edge21" class="edge">
<title>:common:compose&#45;ui&#45;&gt;:common:domain</title>
<path fill="none" stroke="black" stroke-dasharray="1,5" d="M1139.37,-215.69C1140.03,-195.63 1137.79,-162.89 1118.92,-144 1049.57,-74.59 763.23,-39.43 619.3,-25.86"/>
<polygon fill="black" stroke="black" points="619.47,-22.36 609.19,-24.92 618.82,-29.33 619.47,-22.36"/>
</g>
<!-- :common:android -->
<g id="node9" class="node">
<title>:common:android</title>
<ellipse fill="#66bb6a" stroke="black" cx="1245.92" cy="-162" rx="79.9" ry="18"/>
<text text-anchor="middle" x="1245.92" y="-157.8" font-family="Times,serif" font-size="14.00">:common:android</text>
</g>
<!-- :common:compose&#45;ui&#45;&gt;:common:android -->
<g id="edge19" class="edge">
<title>:common:compose&#45;ui&#45;&gt;:common:android</title>
<path fill="none" stroke="black" stroke-dasharray="1,5" d="M1163.24,-216.59C1177.87,-207.11 1196.44,-195.07 1212.28,-184.8"/>
<polygon fill="black" stroke="black" points="1214.27,-187.69 1220.76,-179.31 1210.46,-181.81 1214.27,-187.69"/>
</g>
<!-- :common:compose&#45;ui&#45;&gt;:common:compose&#45;ui&#45;designsystem -->
<g id="edge20" class="edge">
<title>:common:compose&#45;ui&#45;&gt;:common:compose&#45;ui&#45;designsystem</title>
<path fill="none" stroke="black" stroke-dasharray="1,5" d="M1098.19,-217.46C1072.31,-207.34 1038.27,-194.03 1010.32,-183.1"/>
<polygon fill="black" stroke="black" points="1011.3,-179.73 1000.72,-179.34 1008.75,-186.25 1011.3,-179.73"/>
</g>
<!-- :common:compose&#45;ui&#45;&gt;:common:navigation -->
<g id="edge22" class="edge">
<title>:common:compose&#45;ui&#45;&gt;:common:navigation</title>
<path fill="none" stroke="black" stroke-dasharray="1,5" d="M1195.19,-219.5C1244.91,-207.78 1316.92,-190.81 1369.02,-178.53"/>
<polygon fill="black" stroke="black" points="1369.91,-181.92 1378.84,-176.22 1368.3,-175.11 1369.91,-181.92"/>
</g>
<!-- :common:compose&#45;ui&#45;&gt;:common:resources -->
<g id="edge23" class="edge">
<title>:common:compose&#45;ui&#45;&gt;:common:resources</title>
<path fill="none" stroke="black" stroke-dasharray="1,5" d="M1216.03,-223.57C1296.19,-213.66 1424.47,-197.14 1534.92,-180 1542.51,-178.82 1550.42,-177.53 1558.3,-176.2"/>
<polygon fill="black" stroke="black" points="1558.98,-179.63 1568.24,-174.5 1557.8,-172.73 1558.98,-179.63"/>
</g>
<!-- :common:compose&#45;ui&#45;&gt;:common:ui -->
<g id="edge24" class="edge">
<title>:common:compose&#45;ui&#45;&gt;:common:ui</title>
<path fill="none" stroke="black" stroke-dasharray="1,5" d="M1061.47,-223.21C992.51,-213.86 888.47,-198.49 798.92,-180 794.31,-179.05 789.54,-177.98 784.77,-176.86"/>
<polygon fill="black" stroke="black" points="785.57,-173.45 775.03,-174.5 783.92,-180.26 785.57,-173.45"/>
</g>
<!-- :common:ui&#45;&gt;:common:domain -->
<g id="edge25" class="edge">
<title>:common:ui&#45;&gt;:common:domain</title>
<path fill="none" stroke="black" stroke-dasharray="1,5" d="M722.92,-144.15C710.53,-124.53 687.74,-92.21 660.92,-72 640.41,-56.55 614.72,-44.65 591.98,-36.08"/>
<polygon fill="black" stroke="black" points="593.03,-32.73 582.43,-32.61 590.63,-39.31 593.03,-32.73"/>
</g>
</g>
</svg>
