<svg width="2318px" height="531px"
 viewBox="0.00 0.00 1669.06 382.00" xmlns="http://www.w3.org/2000/svg" xmlns:xlink="http://www.w3.org/1999/xlink">
<g id="graph0" class="graph" transform="scale(1.0007919936640506 1.0007919936640506) rotate(0.0) translate(4.0 378.0)">
<polygon fill="white" stroke="transparent" points="-4,4 -4,-378 1665.06,-378 1665.06,4 -4,4"/>
<text text-anchor="middle" x="830.53" y="-338.5" font-family="Times,serif" font-size="35.00">ios&#45;compose&#45;ui</text>
<!-- :ios&#45;compose&#45;ui -->
<g id="node1" class="node">
<title>:ios&#45;compose&#45;ui</title>
<polygon fill="#7f52ff" stroke="black" points="1037.7,-324 931.3,-324 931.3,-288 1037.7,-288 1037.7,-324"/>
<text text-anchor="middle" x="984.5" y="-301.8" font-family="Times,serif" font-size="14.00">:ios&#45;compose&#45;ui</text>
</g>
<!-- :common:compose&#45;ui -->
<g id="node2" class="node">
<title>:common:compose&#45;ui</title>
<ellipse fill="#7f52ff" stroke="black" cx="626.5" cy="-234" rx="95.01" ry="18"/>
<text text-anchor="middle" x="626.5" y="-229.8" font-family="Times,serif" font-size="14.00">:common:compose&#45;ui</text>
</g>
<!-- :ios&#45;compose&#45;ui&#45;&gt;:common:compose&#45;ui -->
<g id="edge1" class="edge">
<title>:ios&#45;compose&#45;ui&#45;&gt;:common:compose&#45;ui</title>
<path fill="none" stroke="black" stroke-dasharray="1,5" d="M931.29,-294.6C870.03,-282.62 769.01,-262.86 700.2,-249.41"/>
<polygon fill="black" stroke="black" points="700.78,-245.96 690.29,-247.47 699.44,-252.83 700.78,-245.96"/>
</g>
<!-- :common:compose&#45;ui&#45;designsystem -->
<g id="node4" class="node">
<title>:common:compose&#45;ui&#45;designsystem</title>
<ellipse fill="#7f52ff" stroke="black" cx="150.5" cy="-162" rx="150.5" ry="18"/>
<text text-anchor="middle" x="150.5" y="-157.8" font-family="Times,serif" font-size="14.00">:common:compose&#45;ui&#45;designsystem</text>
</g>
<!-- :ios&#45;compose&#45;ui&#45;&gt;:common:compose&#45;ui&#45;designsystem -->
<g id="edge2" class="edge">
<title>:ios&#45;compose&#45;ui&#45;&gt;:common:compose&#45;ui&#45;designsystem</title>
<path fill="none" stroke="black" stroke-dasharray="1,5" d="M931.2,-300.99C844.89,-294.02 669.39,-277.9 522.5,-252 414.23,-232.91 290.4,-201.29 216.43,-181.33"/>
<polygon fill="black" stroke="black" points="217.35,-177.95 206.78,-178.71 215.52,-184.7 217.35,-177.95"/>
</g>
<!-- :common:domain -->
<g id="node5" class="node">
<title>:common:domain</title>
<ellipse fill="#7f52ff" stroke="black" cx="1133.5" cy="-18" rx="79.34" ry="18"/>
<text text-anchor="middle" x="1133.5" y="-13.8" font-family="Times,serif" font-size="14.00">:common:domain</text>
</g>
<!-- :ios&#45;compose&#45;ui&#45;&gt;:common:domain -->
<g id="edge4" class="edge">
<title>:ios&#45;compose&#45;ui&#45;&gt;:common:domain</title>
<path fill="none" stroke="black" stroke-dasharray="1,5" d="M1037.85,-297.82C1183.38,-277 1581.26,-211.41 1653.5,-108 1662.67,-94.88 1664.23,-83.87 1653.5,-72 1625.17,-40.63 1362.58,-26.85 1221.77,-21.67"/>
<polygon fill="black" stroke="black" points="1221.55,-18.16 1211.43,-21.3 1221.3,-25.15 1221.55,-18.16"/>
</g>
<!-- :common:ui -->
<g id="node8" class="node">
<title>:common:ui</title>
<ellipse fill="#7f52ff" stroke="black" cx="984.5" cy="-162" rx="57.93" ry="18"/>
<text text-anchor="middle" x="984.5" y="-157.8" font-family="Times,serif" font-size="14.00">:common:ui</text>
</g>
<!-- :ios&#45;compose&#45;ui&#45;&gt;:common:ui -->
<g id="edge5" class="edge">
<title>:ios&#45;compose&#45;ui&#45;&gt;:common:ui</title>
<path fill="none" stroke="black" stroke-dasharray="1,5" d="M984.5,-287.87C984.5,-263.67 984.5,-219.21 984.5,-190.39"/>
<polygon fill="black" stroke="black" points="988,-190.19 984.5,-180.19 981,-190.19 988,-190.19"/>
</g>
<!-- :common:core -->
<g id="node9" class="node">
<title>:common:core</title>
<ellipse fill="#7f52ff" stroke="black" cx="1184.5" cy="-234" rx="66.63" ry="18"/>
<text text-anchor="middle" x="1184.5" y="-229.8" font-family="Times,serif" font-size="14.00">:common:core</text>
</g>
<!-- :ios&#45;compose&#45;ui&#45;&gt;:common:core -->
<g id="edge3" class="edge">
<title>:ios&#45;compose&#45;ui&#45;&gt;:common:core</title>
<path fill="none" stroke="black" stroke-dasharray="1,5" d="M1033.17,-287.97C1064.26,-277.08 1104.44,-263.02 1135.58,-252.12"/>
<polygon fill="black" stroke="black" points="1137.07,-255.31 1145.35,-248.7 1134.75,-248.7 1137.07,-255.31"/>
</g>
<!-- :common:android -->
<g id="node3" class="node">
<title>:common:android</title>
<ellipse fill="#66bb6a" stroke="black" cx="437.5" cy="-162" rx="79.9" ry="18"/>
<text text-anchor="middle" x="437.5" y="-157.8" font-family="Times,serif" font-size="14.00">:common:android</text>
</g>
<!-- :common:compose&#45;ui&#45;&gt;:common:android -->
<g id="edge6" class="edge">
<title>:common:compose&#45;ui&#45;&gt;:common:android</title>
<path fill="none" stroke="black" stroke-dasharray="1,5" d="M585.03,-217.64C556.1,-206.93 517.38,-192.58 486.86,-181.28"/>
<polygon fill="black" stroke="black" points="487.86,-177.92 477.26,-177.73 485.43,-184.48 487.86,-177.92"/>
</g>
<!-- :common:compose&#45;ui&#45;&gt;:common:compose&#45;ui&#45;designsystem -->
<g id="edge7" class="edge">
<title>:common:compose&#45;ui&#45;&gt;:common:compose&#45;ui&#45;designsystem</title>
<path fill="none" stroke="black" stroke-dasharray="1,5" d="M553.95,-222.33C473.17,-210.45 342.08,-191.17 251.35,-177.83"/>
<polygon fill="black" stroke="black" points="251.73,-174.35 241.32,-176.36 250.71,-181.27 251.73,-174.35"/>
</g>
<!-- :common:compose&#45;ui&#45;&gt;:common:domain -->
<g id="edge8" class="edge">
<title>:common:compose&#45;ui&#45;&gt;:common:domain</title>
<path fill="none" stroke="black" stroke-dasharray="1,5" d="M549.22,-223.35C471.49,-212.85 361.32,-195.5 348.5,-180 338.3,-167.67 338.12,-156.17 348.5,-144 437.12,-40.15 857.68,-22.16 1044.14,-19.34"/>
<polygon fill="black" stroke="black" points="1044.24,-22.84 1054.19,-19.2 1044.14,-15.84 1044.24,-22.84"/>
</g>
<!-- :common:navigation -->
<g id="node6" class="node">
<title>:common:navigation</title>
<ellipse fill="#7f52ff" stroke="black" cx="626.5" cy="-162" rx="90.93" ry="18"/>
<text text-anchor="middle" x="626.5" y="-157.8" font-family="Times,serif" font-size="14.00">:common:navigation</text>
</g>
<!-- :common:compose&#45;ui&#45;&gt;:common:navigation -->
<g id="edge9" class="edge">
<title>:common:compose&#45;ui&#45;&gt;:common:navigation</title>
<path fill="none" stroke="black" stroke-dasharray="1,5" d="M626.5,-215.7C626.5,-207.98 626.5,-198.71 626.5,-190.11"/>
<polygon fill="black" stroke="black" points="630,-190.1 626.5,-180.1 623,-190.1 630,-190.1"/>
</g>
<!-- :common:resources -->
<g id="node7" class="node">
<title>:common:resources</title>
<ellipse fill="#7f52ff" stroke="black" cx="822.5" cy="-162" rx="86.82" ry="18"/>
<text text-anchor="middle" x="822.5" y="-157.8" font-family="Times,serif" font-size="14.00">:common:resources</text>
</g>
<!-- :common:compose&#45;ui&#45;&gt;:common:resources -->
<g id="edge10" class="edge">
<title>:common:compose&#45;ui&#45;&gt;:common:resources</title>
<path fill="none" stroke="black" stroke-dasharray="1,5" d="M669.03,-217.81C699.03,-207.1 739.37,-192.69 771.16,-181.34"/>
<polygon fill="black" stroke="black" points="772.49,-184.58 780.73,-177.92 770.13,-177.99 772.49,-184.58"/>
</g>
<!-- :common:compose&#45;ui&#45;&gt;:common:ui -->
<g id="edge11" class="edge">
<title>:common:compose&#45;ui&#45;&gt;:common:ui</title>
<path fill="none" stroke="black" stroke-dasharray="1,5" d="M696.7,-221.73C756.03,-211.85 843.14,-196.52 918.5,-180 923.1,-178.99 927.86,-177.89 932.63,-176.74"/>
<polygon fill="black" stroke="black" points="933.49,-180.13 942.36,-174.34 931.81,-173.33 933.49,-180.13"/>
</g>
<!-- :common:ui&#45;&gt;:common:domain -->
<g id="edge12" class="edge">
<title>:common:ui&#45;&gt;:common:domain</title>
<path fill="none" stroke="black" stroke-dasharray="1,5" d="M984.8,-143.87C986.03,-124.27 990.84,-92.27 1008.5,-72 1024.01,-54.19 1046.52,-42.21 1068.18,-34.21"/>
<polygon fill="black" stroke="black" points="1069.41,-37.49 1077.72,-30.92 1067.12,-30.88 1069.41,-37.49"/>
</g>
<!-- :common:core&#45;&gt;:common:domain -->
<g id="edge13" class="edge">
<title>:common:core&#45;&gt;:common:domain</title>
<path fill="none" stroke="black" stroke-dasharray="1,5" d="M1155.39,-217.79C1120.79,-197.87 1064.81,-159.34 1041.5,-108 1034.89,-93.43 1033.5,-85.85 1041.5,-72 1050.29,-56.79 1065.29,-45.56 1080.65,-37.46"/>
<polygon fill="black" stroke="black" points="1082.24,-40.57 1089.69,-33.04 1079.17,-34.28 1082.24,-40.57"/>
</g>
<!-- :common:data -->
<g id="node10" class="node">
<title>:common:data</title>
<ellipse fill="#7f52ff" stroke="black" cx="1329.5" cy="-162" rx="66.07" ry="18"/>
<text text-anchor="middle" x="1329.5" y="-157.8" font-family="Times,serif" font-size="14.00">:common:data</text>
</g>
<!-- :common:core&#45;&gt;:common:data -->
<g id="edge14" class="edge">
<title>:common:core&#45;&gt;:common:data</title>
<path fill="none" stroke="black" stroke-dasharray="1,5" d="M1215.61,-217.98C1237.11,-207.6 1265.92,-193.7 1289.18,-182.47"/>
<polygon fill="black" stroke="black" points="1290.96,-185.49 1298.45,-177.99 1287.92,-179.19 1290.96,-185.49"/>
</g>
<!-- :common:database -->
<g id="node11" class="node">
<title>:common:database</title>
<ellipse fill="#7f52ff" stroke="black" cx="1133.5" cy="-90" rx="83.39" ry="18"/>
<text text-anchor="middle" x="1133.5" y="-85.8" font-family="Times,serif" font-size="14.00">:common:database</text>
</g>
<!-- :common:core&#45;&gt;:common:database -->
<g id="edge15" class="edge">
<title>:common:core&#45;&gt;:common:database</title>
<path fill="none" stroke="black" stroke-dasharray="1,5" d="M1178.35,-215.87C1169.58,-191.46 1153.41,-146.43 1143.07,-117.64"/>
<polygon fill="black" stroke="black" points="1146.35,-116.42 1139.68,-108.19 1139.76,-118.78 1146.35,-116.42"/>
</g>
<!-- :common:network -->
<g id="node12" class="node">
<title>:common:network</title>
<ellipse fill="#7f52ff" stroke="black" cx="1562.5" cy="-90" rx="81.68" ry="18"/>
<text text-anchor="middle" x="1562.5" y="-85.8" font-family="Times,serif" font-size="14.00">:common:network</text>
</g>
<!-- :common:core&#45;&gt;:common:network -->
<g id="edge16" class="edge">
<title>:common:core&#45;&gt;:common:network</title>
<path fill="none" stroke="black" stroke-dasharray="1,5" d="M1240.5,-223.94C1285.76,-215.57 1350.57,-201.21 1404.5,-180 1450.23,-162.01 1498.94,-132.87 1529.99,-112.87"/>
<polygon fill="black" stroke="black" points="1532.18,-115.62 1538.65,-107.23 1528.36,-109.75 1532.18,-115.62"/>
</g>
<!-- :common:preferences -->
<g id="node13" class="node">
<title>:common:preferences</title>
<ellipse fill="#7f52ff" stroke="black" cx="1329.5" cy="-90" rx="94.88" ry="18"/>
<text text-anchor="middle" x="1329.5" y="-85.8" font-family="Times,serif" font-size="14.00">:common:preferences</text>
</g>
<!-- :common:core&#45;&gt;:common:preferences -->
<g id="edge17" class="edge">
<title>:common:core&#45;&gt;:common:preferences</title>
<path fill="none" stroke="black" stroke-dasharray="1,5" d="M1195.6,-216.07C1208.43,-197.22 1230.84,-166.48 1254.5,-144 1266.45,-132.65 1280.98,-121.83 1294.05,-112.95"/>
<polygon fill="black" stroke="black" points="1295.99,-115.86 1302.39,-107.42 1292.12,-110.03 1295.99,-115.86"/>
</g>
<!-- :common:data&#45;&gt;:common:domain -->
<g id="edge18" class="edge">
<title>:common:data&#45;&gt;:common:domain</title>
<path fill="none" stroke="black" stroke-dasharray="1,5" d="M1376.42,-149.28C1397.74,-141.35 1420.96,-128.48 1433.5,-108 1441.86,-94.36 1443.78,-84.26 1433.5,-72 1406.83,-40.2 1300.09,-27.47 1221.5,-22.38"/>
<polygon fill="black" stroke="black" points="1221.29,-18.86 1211.09,-21.74 1220.86,-25.85 1221.29,-18.86"/>
</g>
<!-- :common:data&#45;&gt;:common:database -->
<g id="edge19" class="edge">
<title>:common:data&#45;&gt;:common:database</title>
<path fill="none" stroke="black" stroke-dasharray="1,5" d="M1290.78,-147.17C1260.32,-136.29 1217.62,-121.04 1184.39,-109.18"/>
<polygon fill="black" stroke="black" points="1185.45,-105.84 1174.85,-105.77 1183.09,-112.43 1185.45,-105.84"/>
</g>
<!-- :common:data&#45;&gt;:common:network -->
<g id="edge20" class="edge">
<title>:common:data&#45;&gt;:common:network</title>
<path fill="none" stroke="black" stroke-dasharray="1,5" d="M1372.24,-148.16C1409.94,-136.83 1465.16,-120.25 1506.41,-107.85"/>
<polygon fill="black" stroke="black" points="1507.47,-111.19 1516.04,-104.96 1505.46,-104.48 1507.47,-111.19"/>
</g>
<!-- :common:data&#45;&gt;:common:preferences -->
<g id="edge21" class="edge">
<title>:common:data&#45;&gt;:common:preferences</title>
<path fill="none" stroke="black" stroke-dasharray="1,5" d="M1329.5,-143.7C1329.5,-135.98 1329.5,-126.71 1329.5,-118.11"/>
<polygon fill="black" stroke="black" points="1333,-118.1 1329.5,-108.1 1326,-118.1 1333,-118.1"/>
</g>
<!-- :common:database&#45;&gt;:common:domain -->
<g id="edge22" class="edge">
<title>:common:database&#45;&gt;:common:domain</title>
<path fill="none" stroke="black" stroke-dasharray="1,5" d="M1133.5,-71.7C1133.5,-63.98 1133.5,-54.71 1133.5,-46.11"/>
<polygon fill="black" stroke="black" points="1137,-46.1 1133.5,-36.1 1130,-46.1 1137,-46.1"/>
</g>
<!-- :common:network&#45;&gt;:common:domain -->
<g id="edge23" class="edge">
<title>:common:network&#45;&gt;:common:domain</title>
<path fill="none" stroke="black" stroke-dasharray="1,5" d="M1501.33,-78C1489.77,-75.97 1477.77,-73.89 1466.5,-72 1377.41,-57.02 1274.72,-40.84 1207.2,-30.35"/>
<polygon fill="black" stroke="black" points="1207.5,-26.86 1197.08,-28.78 1206.43,-33.77 1207.5,-26.86"/>
</g>
</g>
</svg>
