<svg width="1519px" height="531px"
 viewBox="0.00 0.00 1094.03 382.00" xmlns="http://www.w3.org/2000/svg" xmlns:xlink="http://www.w3.org/1999/xlink">
<g id="graph0" class="graph" transform="scale(1.0007919936640506 1.0007919936640506) rotate(0.0) translate(4.0 378.0)">
<polygon fill="white" stroke="transparent" points="-4,4 -4,-378 1090.03,-378 1090.03,4 -4,4"/>
<text text-anchor="middle" x="543.01" y="-338.5" font-family="Times,serif" font-size="35.00">wearos</text>
<!-- :wearos -->
<g id="node1" class="node">
<title>:wearos</title>
<polygon fill="#66bb6a" stroke="black" points="713.9,-324 654.84,-324 654.84,-288 713.9,-288 713.9,-324"/>
<text text-anchor="middle" x="684.37" y="-301.8" font-family="Times,serif" font-size="14.00">:wearos</text>
</g>
<!-- :common:core -->
<g id="node2" class="node">
<title>:common:core</title>
<ellipse fill="#7f52ff" stroke="black" cx="294.37" cy="-234" rx="66.63" ry="18"/>
<text text-anchor="middle" x="294.37" y="-229.8" font-family="Times,serif" font-size="14.00">:common:core</text>
</g>
<!-- :wearos&#45;&gt;:common:core -->
<g id="edge1" class="edge">
<title>:wearos&#45;&gt;:common:core</title>
<path fill="none" stroke="black" stroke-dasharray="1,5" d="M654.74,-299.68C591.81,-288.39 443.64,-261.79 358.18,-246.45"/>
<polygon fill="black" stroke="black" points="358.79,-243.01 348.33,-244.68 357.55,-249.9 358.79,-243.01"/>
</g>
<!-- :common:domain -->
<g id="node3" class="node">
<title>:common:domain</title>
<ellipse fill="#7f52ff" stroke="black" cx="377.37" cy="-18" rx="79.34" ry="18"/>
<text text-anchor="middle" x="377.37" y="-13.8" font-family="Times,serif" font-size="14.00">:common:domain</text>
</g>
<!-- :wearos&#45;&gt;:common:domain -->
<g id="edge2" class="edge">
<title>:wearos&#45;&gt;:common:domain</title>
<path fill="none" stroke="black" stroke-dasharray="1,5" d="M687.69,-287.75C694.95,-244.19 707.03,-129.16 645.37,-72 618.94,-47.5 529.47,-33.41 461.1,-26.01"/>
<polygon fill="black" stroke="black" points="461.06,-22.49 450.75,-24.92 460.33,-29.45 461.06,-22.49"/>
</g>
<!-- :common:navigation -->
<g id="node8" class="node">
<title>:common:navigation</title>
<ellipse fill="#7f52ff" stroke="black" cx="803.37" cy="-234" rx="90.93" ry="18"/>
<text text-anchor="middle" x="803.37" y="-229.8" font-family="Times,serif" font-size="14.00">:common:navigation</text>
</g>
<!-- :wearos&#45;&gt;:common:navigation -->
<g id="edge3" class="edge">
<title>:wearos&#45;&gt;:common:navigation</title>
<path fill="none" stroke="black" stroke-dasharray="1,5" d="M713.48,-287.88C729.65,-278.36 749.92,-266.44 767.11,-256.33"/>
<polygon fill="black" stroke="black" points="768.94,-259.31 775.79,-251.23 765.39,-253.28 768.94,-259.31"/>
</g>
<!-- :common:resources -->
<g id="node9" class="node">
<title>:common:resources</title>
<ellipse fill="#7f52ff" stroke="black" cx="999.37" cy="-234" rx="86.82" ry="18"/>
<text text-anchor="middle" x="999.37" y="-229.8" font-family="Times,serif" font-size="14.00">:common:resources</text>
</g>
<!-- :wearos&#45;&gt;:common:resources -->
<g id="edge4" class="edge">
<title>:wearos&#45;&gt;:common:resources</title>
<path fill="none" stroke="black" stroke-dasharray="1,5" d="M714,-298.41C763.68,-287.38 864.94,-264.87 932.49,-249.86"/>
<polygon fill="black" stroke="black" points="933.61,-253.2 942.62,-247.61 932.09,-246.36 933.61,-253.2"/>
</g>
<!-- :common:ui -->
<g id="node10" class="node">
<title>:common:ui</title>
<ellipse fill="#7f52ff" stroke="black" cx="598.37" cy="-162" rx="57.93" ry="18"/>
<text text-anchor="middle" x="598.37" y="-157.8" font-family="Times,serif" font-size="14.00">:common:ui</text>
</g>
<!-- :wearos&#45;&gt;:common:ui -->
<g id="edge5" class="edge">
<title>:wearos&#45;&gt;:common:ui</title>
<path fill="none" stroke="black" stroke-dasharray="1,5" d="M674,-287.87C659,-263.11 631.16,-217.14 613.77,-188.42"/>
<polygon fill="black" stroke="black" points="616.69,-186.49 608.51,-179.75 610.7,-190.12 616.69,-186.49"/>
</g>
<!-- :common:core&#45;&gt;:common:domain -->
<g id="edge6" class="edge">
<title>:common:core&#45;&gt;:common:domain</title>
<path fill="none" stroke="black" stroke-dasharray="1,5" d="M239.95,-223.54C140.22,-203.96 -55.39,-153.87 15.37,-72 49.88,-32.07 192.15,-21.65 287.72,-19.25"/>
<polygon fill="black" stroke="black" points="288.06,-22.74 297.97,-19.02 287.9,-15.74 288.06,-22.74"/>
</g>
<!-- :common:data -->
<g id="node4" class="node">
<title>:common:data</title>
<ellipse fill="#7f52ff" stroke="black" cx="247.37" cy="-162" rx="66.07" ry="18"/>
<text text-anchor="middle" x="247.37" y="-157.8" font-family="Times,serif" font-size="14.00">:common:data</text>
</g>
<!-- :common:core&#45;&gt;:common:data -->
<g id="edge7" class="edge">
<title>:common:core&#45;&gt;:common:data</title>
<path fill="none" stroke="black" stroke-dasharray="1,5" d="M282.99,-216.05C277.39,-207.71 270.53,-197.49 264.33,-188.25"/>
<polygon fill="black" stroke="black" points="267.12,-186.14 258.64,-179.79 261.31,-190.04 267.12,-186.14"/>
</g>
<!-- :common:database -->
<g id="node5" class="node">
<title>:common:database</title>
<ellipse fill="#7f52ff" stroke="black" cx="107.37" cy="-90" rx="83.39" ry="18"/>
<text text-anchor="middle" x="107.37" y="-85.8" font-family="Times,serif" font-size="14.00">:common:database</text>
</g>
<!-- :common:core&#45;&gt;:common:database -->
<g id="edge8" class="edge">
<title>:common:core&#45;&gt;:common:database</title>
<path fill="none" stroke="black" stroke-dasharray="1,5" d="M250.68,-220.35C225.95,-211.72 195.45,-198.47 172.37,-180 150.7,-162.66 132.73,-136.4 121.21,-116.9"/>
<polygon fill="black" stroke="black" points="124.24,-115.14 116.24,-108.2 118.16,-118.62 124.24,-115.14"/>
</g>
<!-- :common:network -->
<g id="node6" class="node">
<title>:common:network</title>
<ellipse fill="#7f52ff" stroke="black" cx="536.37" cy="-90" rx="81.68" ry="18"/>
<text text-anchor="middle" x="536.37" y="-85.8" font-family="Times,serif" font-size="14.00">:common:network</text>
</g>
<!-- :common:core&#45;&gt;:common:network -->
<g id="edge9" class="edge">
<title>:common:core&#45;&gt;:common:network</title>
<path fill="none" stroke="black" stroke-dasharray="1,5" d="M321.19,-217.26C364.87,-191.63 451.39,-140.87 500.37,-112.13"/>
<polygon fill="black" stroke="black" points="502.2,-115.11 509.06,-107.03 498.66,-109.07 502.2,-115.11"/>
</g>
<!-- :common:preferences -->
<g id="node7" class="node">
<title>:common:preferences</title>
<ellipse fill="#7f52ff" stroke="black" cx="341.37" cy="-90" rx="94.88" ry="18"/>
<text text-anchor="middle" x="341.37" y="-85.8" font-family="Times,serif" font-size="14.00">:common:preferences</text>
</g>
<!-- :common:core&#45;&gt;:common:preferences -->
<g id="edge10" class="edge">
<title>:common:core&#45;&gt;:common:preferences</title>
<path fill="none" stroke="black" stroke-dasharray="1,5" d="M304.96,-215.89C310.83,-205.77 317.83,-192.52 322.37,-180 329.68,-159.86 334.58,-136.08 337.57,-118.17"/>
<polygon fill="black" stroke="black" points="341.05,-118.54 339.15,-108.12 334.14,-117.45 341.05,-118.54"/>
</g>
<!-- :common:data&#45;&gt;:common:domain -->
<g id="edge11" class="edge">
<title>:common:data&#45;&gt;:common:domain</title>
<path fill="none" stroke="black" stroke-dasharray="1,5" d="M239.23,-143.96C231.37,-124.73 222.61,-93.37 237.37,-72 252.04,-50.76 276.4,-38.03 300.72,-30.39"/>
<polygon fill="black" stroke="black" points="301.74,-33.74 310.38,-27.61 299.8,-27.01 301.74,-33.74"/>
</g>
<!-- :common:data&#45;&gt;:common:database -->
<g id="edge12" class="edge">
<title>:common:data&#45;&gt;:common:database</title>
<path fill="none" stroke="black" stroke-dasharray="1,5" d="M216.99,-145.81C196.87,-135.75 170.23,-122.43 148.25,-111.44"/>
<polygon fill="black" stroke="black" points="149.66,-108.23 139.15,-106.89 146.53,-114.49 149.66,-108.23"/>
</g>
<!-- :common:data&#45;&gt;:common:network -->
<g id="edge13" class="edge">
<title>:common:data&#45;&gt;:common:network</title>
<path fill="none" stroke="black" stroke-dasharray="1,5" d="M295.09,-149.44C343.92,-137.61 420.02,-119.18 473.68,-106.18"/>
<polygon fill="black" stroke="black" points="474.53,-109.58 483.43,-103.82 472.89,-102.78 474.53,-109.58"/>
</g>
<!-- :common:data&#45;&gt;:common:preferences -->
<g id="edge14" class="edge">
<title>:common:data&#45;&gt;:common:preferences</title>
<path fill="none" stroke="black" stroke-dasharray="1,5" d="M269.17,-144.76C281.57,-135.53 297.28,-123.83 310.89,-113.7"/>
<polygon fill="black" stroke="black" points="313.1,-116.41 319.03,-107.63 308.92,-110.8 313.1,-116.41"/>
</g>
<!-- :common:database&#45;&gt;:common:domain -->
<g id="edge15" class="edge">
<title>:common:database&#45;&gt;:common:domain</title>
<path fill="none" stroke="black" stroke-dasharray="1,5" d="M158.47,-75.75C203.58,-64.06 269.38,-47 317.05,-34.64"/>
<polygon fill="black" stroke="black" points="318.13,-37.97 326.93,-32.08 316.38,-31.2 318.13,-37.97"/>
</g>
<!-- :common:network&#45;&gt;:common:domain -->
<g id="edge16" class="edge">
<title>:common:network&#45;&gt;:common:domain</title>
<path fill="none" stroke="black" stroke-dasharray="1,5" d="M501.48,-73.64C477.89,-63.25 446.55,-49.46 421.27,-38.33"/>
<polygon fill="black" stroke="black" points="422.47,-35.03 411.91,-34.21 419.65,-41.44 422.47,-35.03"/>
</g>
<!-- :common:ui&#45;&gt;:common:domain -->
<g id="edge17" class="edge">
<title>:common:ui&#45;&gt;:common:domain</title>
<path fill="none" stroke="black" stroke-dasharray="1,5" d="M612.39,-144.2C626.7,-124.91 644.56,-93.21 627.37,-72 606.62,-46.4 525.77,-32.66 461.56,-25.64"/>
<polygon fill="black" stroke="black" points="461.72,-22.14 451.41,-24.57 460.99,-29.1 461.72,-22.14"/>
</g>
</g>
</svg>
