<svg fill="none" height="180" viewBox="0 0 230 180" width="230" xmlns="http://www.w3.org/2000/svg">
    <g clip-path="url(#clip0_2:2)">
        <path
            d="M68.19 129.22L81.67 115.82L92.48 126.48L100.55 118.48L89.74 107.75L100.55 96.93L119.36 115.82L127.43 107.75L108.62 88.86L119.36 78.13L130.17 88.86L138.24 80.79L127.43 70.05L138.24 59.24L157.05 78.13L165.12 70.05L146.31 51.17L157.05 40.43L167.79 51.17L175.93 43.1L165.12 32.36L175.93 21.55L194.66 40.43L202.81 32.36L184 13.48L197.41 0L229.77 32.36L100.55 161.58L68.19 129.22Z"
            fill="#0059C1" />
        <path d="M78.2173 119.22L53.9847 143.453L86.3278 175.796L110.56 151.563L78.2173 119.22Z"
            fill="url(#paint0_linear_2:2)" />
        <path
            d="M27.223 87.5955L100.762 161.135C100.788 161.161 100.803 161.197 100.803 161.234C100.803 161.271 100.788 161.306 100.762 161.333L91.8667 170.228C85.965 176.13 77.9604 179.445 69.6141 179.445C61.2677 179.445 53.2632 176.13 47.3614 170.228L9.17766 132.044C6.25633 129.123 3.939 125.655 2.35799 121.838C0.776972 118.021 -0.036764 113.93 -0.036764 109.799C-0.036764 105.667 0.776973 101.576 2.35799 97.7595C3.939 93.9426 6.25633 90.4744 9.17766 87.5531C10.3633 86.3674 11.7715 85.4277 13.3214 84.7878C14.8713 84.1479 16.5324 83.8206 18.2092 83.8245C19.8859 83.8285 21.5454 84.1636 23.0923 84.8108C24.6392 85.4579 26.043 86.4043 27.223 87.5955V87.5955Z"
            fill="#4285F4" />
    </g>
    <defs>
        <linearGradient gradientUnits="userSpaceOnUse" id="paint0_linear_2:2" x1="95.1767"
            x2="70.902" y1="136.242" y2="160.517">
            <stop stop-color="#0059C1" />
            <stop offset="0.81" stop-color="#073042" />
        </linearGradient>
        <clipPath id="clip0_2:2">
            <rect fill="white" height="179.46" width="229.77" />
        </clipPath>
    </defs>
</svg>
